<?xml version="1.0" standalone="no"?>
<!DOCTYPE svg PUBLIC "-//W3C//DTD SVG 1.1//EN" "http://www.w3.org/Graphics/SVG/1.1/DTD/svg11.dtd" >
<svg xmlns="http://www.w3.org/2000/svg" xmlns:xlink="http://www.w3.org/1999/xlink" version="1.1">
<metadata>
Created by FontForge 20150824 at Thu Nov  3 21:21:21 2016
 By Everything Fonts
Copyright (c) 2006 by Prof.Dr. Srisakdi Charmonman (www.charm.au.edu),College of Internet Distance Education (www.eLearning.au.edu),Srisakdi Charmonman IT Center (www.scit.au.edu),Assumption University of Thailand (www.au.edu).All rights reserved.
</metadata>
<defs>
<font id="THCharmofAU" horiz-adv-x="0" >
  <font-face 
    font-family="THCharmofAU"
    font-weight="400"
    font-stretch="normal"
    units-per-em="1000"
    panose-1="2 11 5 0 4 2 0 2 0 3"
    ascent="800"
    descent="-200"
    x-height="352"
    cap-height="493"
    bbox="-494 -426.143 2205 1100.06"
    underline-thickness="30"
    underline-position="-80"
    unicode-range="U+0020-FB02"
  />
<missing-glyph horiz-adv-x="500" 
d="M352 43q21 154 41 304.5t42 305.5h-287q-21 -155 -42 -305t-43 -305h289zM389 0h-377l97 695h377z" />
    <glyph glyph-name="Agrave" unicode="A&#x300;" horiz-adv-x="446" 
d="M208 219h94q0 29 1.5 52t3.5 40q1 10 4 31t6.5 43t7 39.5t5.5 20.5q-18 -8 -34 -31t-31 -53.5t-27.5 -64t-22.5 -62.5zM375 54q7 -1 14 1.5t10 4.5q10 5 18 11t13 6q10 -2 1 -17t-22.5 -26.5t-28 -19t-27.5 -11t-22 -0.5q-17 9 -22 40q-5 34 -6.5 71t-1.5 73
q-4 -3 -9 -6.5t-8 -6.5h-92q-13 -34 -30.5 -63t-36.5 -47l-20 -17q18 -5 30 -5q2 0 8 2t10 4q3 2 7 2.5t6 -1.5t0.5 -7t-8.5 -12q-18 -20 -31 -25.5t-20 -3.5q-3 0 -9 2q-8 2 -21 5.5t-22 4.5l-6 -2t-13 -4.5t-12 -4.5l-5 -2q-3 0 -2 5t4 11t7.5 12t7.5 8l17 5q25 10 42 30
t25 35q8 17 23 52t30 76q21 64 37.5 101t30.5 58q13 19 27 33.5t34 27.5q-41 9 -82 9q-121 0 -127 -101q-3 -35 10 -67l-54 -60q-6 22 -8 43t-1 37q6 86 71 143q55 45 178 45q6 0 18.5 -0.5t25.5 -1.5t24 -2t14 -1h25q-14 -23 -24.5 -67.5t-13.5 -108.5q-3 -55 -2.5 -110
t4.5 -102q1 -8 2 -25t3 -25q1 -2 1.5 -3.5t8.5 -2.5zM282 524q-37 31 -56 104l28 31q22 -71 56 -100z" />
    <glyph glyph-name="Aacute" unicode="A&#x301;" horiz-adv-x="446" 
d="M208 219h94q0 29 1.5 52t3.5 40q1 10 4 31t6.5 43t7 39.5t5.5 20.5q-18 -8 -34 -31t-31 -53.5t-27.5 -64t-22.5 -62.5zM375 54q7 -1 14 1.5t10 4.5q10 5 18 11t13 6q10 -2 1 -17t-22.5 -26.5t-28 -19t-27.5 -11t-22 -0.5q-17 9 -22 40q-5 34 -6.5 71t-1.5 73
q-4 -3 -9 -6.5t-8 -6.5h-92q-13 -34 -30.5 -63t-36.5 -47l-20 -17q18 -5 30 -5q2 0 8 2t10 4q3 2 7 2.5t6 -1.5t0.5 -7t-8.5 -12q-18 -20 -31 -25.5t-20 -3.5q-3 0 -9 2q-8 2 -21 5.5t-22 4.5l-6 -2t-13 -4.5t-12 -4.5l-5 -2q-3 0 -2 5t4 11t7.5 12t7.5 8l17 5q25 10 42 30
t25 35q8 17 23 52t30 76q21 64 37.5 101t30.5 58q13 19 27 33.5t34 27.5q-41 9 -82 9q-121 0 -127 -101q-3 -35 10 -67l-54 -60q-6 22 -8 43t-1 37q6 86 71 143q55 45 178 45q6 0 18.5 -0.5t25.5 -1.5t24 -2t14 -1h25q-14 -23 -24.5 -67.5t-13.5 -108.5q-3 -55 -2.5 -110
t4.5 -102q1 -8 2 -25t3 -25q1 -2 1.5 -3.5t8.5 -2.5zM412 668q2 -3 4 -7q4 -8 4 -14q-5 -41 -131 -118l-7 -4l45 85q16 8 32 17q13 8 27 18t24 21z" />
    <glyph glyph-name="Atilde" unicode="A&#x303;" horiz-adv-x="446" 
d="M208 219h94q0 29 1.5 52t3.5 40q1 10 4 31t6.5 43t7 39.5t5.5 20.5q-18 -8 -34 -31t-31 -53.5t-27.5 -64t-22.5 -62.5zM375 54q7 -1 14 1.5t10 4.5q10 5 18 11t13 6q10 -2 1 -17t-22.5 -26.5t-28 -19t-27.5 -11t-22 -0.5q-17 9 -22 40q-5 34 -6.5 71t-1.5 73
q-4 -3 -9 -6.5t-8 -6.5h-92q-13 -34 -30.5 -63t-36.5 -47l-20 -17q18 -5 30 -5q2 0 8 2t10 4q3 2 7 2.5t6 -1.5t0.5 -7t-8.5 -12q-18 -20 -31 -25.5t-20 -3.5q-3 0 -9 2q-8 2 -21 5.5t-22 4.5l-6 -2t-13 -4.5t-12 -4.5l-5 -2q-3 0 -2 5t4 11t7.5 12t7.5 8l17 5q25 10 42 30
t25 35q8 17 23 52t30 76q21 64 37.5 101t30.5 58q13 19 27 33.5t34 27.5q-41 9 -82 9q-121 0 -127 -101q-3 -35 10 -67l-54 -60q-6 22 -8 43t-1 37q6 86 71 143q55 45 178 45q6 0 18.5 -0.5t25.5 -1.5t24 -2t14 -1h25q-14 -23 -24.5 -67.5t-13.5 -108.5q-3 -55 -2.5 -110
t4.5 -102q1 -8 2 -25t3 -25q1 -2 1.5 -3.5t8.5 -2.5zM334 634q3 0 5 -2q3 -4 5 -11v-2q-1 -18 -22 -47q-20 -29 -34 -29q-9 0 -19 8l-34 27q-11 7 -16 7q-16 0 -30 -41l-2 -3l-2 2q-8 4 -8 14q2 22 21 47q22 29 37 29q5 0 15 -8l35 -27q10 -7 16 -7q5 0 13 7.5t20 33.5v2z
" />
    <glyph glyph-name="Egrave" unicode="E&#x300;" horiz-adv-x="423" 
d="M431 500q7 2 6.5 -5t-6.5 -14q-10 -12 -25.5 -25.5t-34.5 -12.5q-32 1 -63 2t-63 2q-7 -42 -12.5 -81t-12.5 -81h50q21 0 44.5 2t48.5 6q-42 -58 -77 -58q-5 0 -10 0.5t-10 1.5q-16 2 -24.5 2t-29.5 1q-8 -40 -14.5 -80.5t-14.5 -80.5q-1 -7 -4 -13t-5 -8l-2 -3
q8 -2 27 -5t55 -3q11 0 23.5 0.5t26.5 1.5q4 0 11.5 2t15 4.5t14 4.5t8.5 3q5 3 10.5 -1t-6.5 -18q-14 -16 -34.5 -28.5t-30.5 -13.5q-5 0 -15 -0.5t-22 -0.5q-17 0 -33.5 0.5t-23.5 1.5q-4 0 -15.5 1.5t-24.5 3.5t-23.5 3.5t-12.5 1.5q-5 -2 -17 -6.5t-19 -4.5
q-3 0 -2.5 4.5t3 10.5t6 11.5t6.5 8.5q9 6 14.5 11.5t10 14t8 21.5t6.5 34q12 68 20 117.5t14 87.5t10.5 67.5t8.5 56.5h-4q-52 0 -83 -27q-31 -30 -34 -74q-3 -27 8 -59l-57 -63q-3 17 -4 32.5t0 29.5q4 49 24 89.5t54 71.5q50 44 136 44l155 1q7 -1 15 0q16 2 28 7z
M281 524q-37 31 -56 104l28 31q22 -71 56 -100z" />
    <glyph glyph-name="Eacute" unicode="E&#x301;" horiz-adv-x="423" 
d="M431 500q7 2 6.5 -5t-6.5 -14q-10 -12 -25.5 -25.5t-34.5 -12.5q-32 1 -63 2t-63 2q-7 -42 -12.5 -81t-12.5 -81h50q21 0 44.5 2t48.5 6q-42 -58 -77 -58q-5 0 -10 0.5t-10 1.5q-16 2 -24.5 2t-29.5 1q-8 -40 -14.5 -80.5t-14.5 -80.5q-1 -7 -4 -13t-5 -8l-2 -3
q8 -2 27 -5t55 -3q11 0 23.5 0.5t26.5 1.5q4 0 11.5 2t15 4.5t14 4.5t8.5 3q5 3 10.5 -1t-6.5 -18q-14 -16 -34.5 -28.5t-30.5 -13.5q-5 0 -15 -0.5t-22 -0.5q-17 0 -33.5 0.5t-23.5 1.5q-4 0 -15.5 1.5t-24.5 3.5t-23.5 3.5t-12.5 1.5q-5 -2 -17 -6.5t-19 -4.5
q-3 0 -2.5 4.5t3 10.5t6 11.5t6.5 8.5q9 6 14.5 11.5t10 14t8 21.5t6.5 34q12 68 20 117.5t14 87.5t10.5 67.5t8.5 56.5h-4q-52 0 -83 -27q-31 -30 -34 -74q-3 -27 8 -59l-57 -63q-3 17 -4 32.5t0 29.5q4 49 24 89.5t54 71.5q50 44 136 44l155 1q7 -1 15 0q16 2 28 7z
M351 657q2 -3 4 -7q4 -8 4 -14q-5 -41 -131 -118l-7 -4l45 85q16 8 32 17q13 8 27 18t24 21z" />
    <glyph glyph-name="Igrave" unicode="I&#x300;" horiz-adv-x="256" 
d="M243 474q7 -7 11.5 -17t-3.5 -15l-2 2q-1 1 -5 3q-3 2 -8 3.5t-12 0.5q-4 0 -14 -0.5t-18 -2.5q-14 -96 -29 -189t-29 -189q-1 -7 -4 -12.5t-5 -9.5q10 -2 22 -4t18 -2q3 0 9 1.5t9 3.5q7 5 13 2t-8 -18q-19 -20 -31 -26t-20 -4q-2 0 -9 1.5t-16.5 3.5t-19 3.5t-14.5 2.5
q-2 0 -13 -2.5t-22 -4.5q-6 -2 -11.5 -3t-8.5 -1t-2.5 5t3 11.5t6.5 12.5t7 9q4 3 8.5 4t9.5 3q6 2 11 3.5t7 3.5q8 8 12 22.5t8 41.5l47 324q-8 -2 -19.5 -3t-12.5 -1q-7 0 -15 3.5t-22 23.5q-13 15 -8.5 18t12.5 -1q4 -2 10.5 -2h8.5q3 0 14.5 1.5t26.5 3t30.5 3.5t26.5 4
q3 0 5.5 0.5t4.5 0.5t3 1q13 1 21.5 -5t12.5 -10zM174 524q-37 31 -56 104l28 31q22 -71 56 -100z" />
    <glyph glyph-name="Iacute" unicode="I&#x301;" horiz-adv-x="280" 
d="M243 474q7 -7 11.5 -17t-3.5 -15l-2 2q-1 1 -5 3q-3 2 -8 3.5t-12 0.5q-4 0 -14 -0.5t-18 -2.5q-14 -96 -29 -189t-29 -189q-1 -7 -4 -12.5t-5 -9.5q10 -2 22 -4t18 -2q3 0 9 1.5t9 3.5q7 5 13 2t-8 -18q-19 -20 -31 -26t-20 -4q-2 0 -9 1.5t-16.5 3.5t-19 3.5t-14.5 2.5
q-2 0 -13 -2.5t-22 -4.5q-6 -2 -11.5 -3t-8.5 -1t-2.5 5t3 11.5t6.5 12.5t7 9q4 3 8.5 4t9.5 3q6 2 11 3.5t7 3.5q8 8 12 22.5t8 41.5l47 324q-8 -2 -19.5 -3t-12.5 -1q-7 0 -15 3.5t-22 23.5q-13 15 -8.5 18t12.5 -1q4 -2 10.5 -2h8.5q3 0 14.5 1.5t26.5 3t30.5 3.5t26.5 4
q3 0 5.5 0.5t4.5 0.5t3 1q13 1 21.5 -5t12.5 -10zM271 657q2 -3 4 -7q4 -8 4 -14q-5 -41 -131 -118l-7 -4l45 85q16 8 32 17q13 8 27 18t24 21z" />
    <glyph glyph-name="Ograve" unicode="O&#x300;" horiz-adv-x="426" 
d="M116 90q13 -28 30 -40t39 -12q28 0 53 22t47 56q21 34 32 70.5t15 87.5q1 8 1 16v16q0 64 -21 109q-13 27 -28 39t-36 12q-28 0 -55 -20.5t-48 -52.5q-20 -34 -32 -72.5t-16 -89.5q-1 -9 -1 -18v-17q0 -63 20 -106zM312 92q-38 -46 -78 -69t-87 -23q-29 0 -49.5 14.5
t-37.5 41.5q-32 56 -26 141q9 125 83 217t163 92q29 0 50 -14t38 -41q33 -55 27 -142q-9 -125 -83 -217zM225 524q-37 31 -56 104l28 31q22 -71 56 -100z" />
    <glyph glyph-name="Oacute" unicode="O&#x301;" horiz-adv-x="426" 
d="M116 90q13 -28 30 -40t39 -12q28 0 53 22t47 56q21 34 32 70.5t15 87.5q1 8 1 16v16q0 64 -21 109q-13 27 -28 39t-36 12q-28 0 -55 -20.5t-48 -52.5q-20 -34 -32 -72.5t-16 -89.5q-1 -9 -1 -18v-17q0 -63 20 -106zM312 92q-38 -46 -78 -69t-87 -23q-29 0 -49.5 14.5
t-37.5 41.5q-32 56 -26 141q9 125 83 217t163 92q29 0 50 -14t38 -41q33 -55 27 -142q-9 -125 -83 -217zM367 677q2 -3 4 -7q4 -8 4 -14q-5 -41 -131 -118l-7 -4l45 85q16 8 32 17q13 8 27 18t24 21z" />
    <glyph glyph-name="Otilde" unicode="O&#x303;" horiz-adv-x="426" 
d="M116 90q13 -28 30 -40t39 -12q28 0 53 22t47 56q21 34 32 70.5t15 87.5q1 8 1 16v16q0 64 -21 109q-13 27 -28 39t-36 12q-28 0 -55 -20.5t-48 -52.5q-20 -34 -32 -72.5t-16 -89.5q-1 -9 -1 -18v-17q0 -63 20 -106zM312 92q-38 -46 -78 -69t-87 -23q-29 0 -49.5 14.5
t-37.5 41.5q-32 56 -26 141q9 125 83 217t163 92q29 0 50 -14t38 -41q33 -55 27 -142q-9 -125 -83 -217zM317 614q3 0 5 -2q3 -4 5 -11v-2q-1 -18 -22 -47q-20 -29 -34 -29q-9 0 -19 8l-34 27q-11 7 -16 7q-16 0 -30 -41l-2 -3l-2 2q-8 4 -8 14q2 22 21 47q22 29 37 29
q5 0 15 -8l35 -27q10 -7 16 -7q5 0 13 7.5t20 33.5v2z" />
    <glyph glyph-name="Ugrave" unicode="U&#x300;" horiz-adv-x="489" 
d="M136 191q5 21 12 53.5t14 67.5q8 42 15.5 78.5t12.5 53.5h-18q-56 0 -78.5 -24t-26.5 -70q-1 -27 11 -61l-57 -64q-6 34 -4 64q6 92 65 148q29 29 59 42t75 13h49q-8 -14 -16.5 -44.5t-17.5 -68.5q-2 -8 -7.5 -33t-12 -55t-12 -58.5t-7.5 -42.5q-2 -17 -3 -29.5t-1 -24.5
q0 -41 13 -66t38 -25q11 0 23 6.5t23 15.5t19.5 19.5t12.5 19.5q16 29 27.5 69t20.5 94q0 1 1.5 10t4.5 30t8.5 56t14.5 89q3 17 19 29.5t34 19.5q9 3 16 1.5t5 -7.5q-9 -14 -14 -27.5t-8.5 -29.5t-6 -35.5t-6.5 -45.5l-31 -200q-2 -15 -3.5 -26t-2.5 -21q-3 -31 15 -31
q7 0 18 4.5t25 12.5q0 -2 -0.5 -5t-0.5 -6v-7q-1 -9 -18 -20l-110 -64l17 104q-29 -45 -63 -72.5t-67 -27.5q-21 0 -36.5 11t-26 29.5t-15.5 42t-5 49.5q0 16 2 30.5t5 28.5zM329 524q-37 31 -56 104l28 31q22 -71 56 -100z" />
    <glyph glyph-name="Uacute" unicode="U&#x301;" horiz-adv-x="489" 
d="M136 191q5 21 12 53.5t14 67.5q8 42 15.5 78.5t12.5 53.5h-18q-56 0 -78.5 -24t-26.5 -70q-1 -27 11 -61l-57 -64q-6 34 -4 64q6 92 65 148q29 29 59 42t75 13h49q-8 -14 -16.5 -44.5t-17.5 -68.5q-2 -8 -7.5 -33t-12 -55t-12 -58.5t-7.5 -42.5q-2 -17 -3 -29.5t-1 -24.5
q0 -41 13 -66t38 -25q11 0 23 6.5t23 15.5t19.5 19.5t12.5 19.5q16 29 27.5 69t20.5 94q0 1 1.5 10t4.5 30t8.5 56t14.5 89q3 17 19 29.5t34 19.5q9 3 16 1.5t5 -7.5q-9 -14 -14 -27.5t-8.5 -29.5t-6 -35.5t-6.5 -45.5l-31 -200q-2 -15 -3.5 -26t-2.5 -21q-3 -31 15 -31
q7 0 18 4.5t25 12.5q0 -2 -0.5 -5t-0.5 -6v-7q-1 -9 -18 -20l-110 -64l17 104q-29 -45 -63 -72.5t-67 -27.5q-21 0 -36.5 11t-26 29.5t-15.5 42t-5 49.5q0 16 2 30.5t5 28.5v0zM435 657q2 -3 4 -7q4 -8 4 -14q-5 -41 -131 -118l-7 -4l45 85q16 8 32 17q13 8 27 18t24 21z
" />
    <glyph glyph-name="Yacute" unicode="Y&#x301;" horiz-adv-x="409" 
d="M383 506q18 0 39 -18l-41 -61q-13 12 -25 12q-41 0 -88 -83q-23 -38 -38 -75.5t-23 -79.5l-24 -129q-2 -8 -5 -14t-6 -10q8 -3 16 -4.5t14 -1.5q2 0 8.5 2t8.5 4q7 5 12 0t-6 -17q-17 -20 -30.5 -26t-19.5 -4q-3 0 -9 2q-9 2 -21.5 5t-21.5 4q-3 0 -16.5 -5.5t-19.5 -5.5
q-3 0 -3.5 4t1 9t4.5 10t6 8q10 7 17 13.5t12 15.5t8.5 22t6.5 34l13 72q2 14 2.5 28.5t0.5 28.5q0 33 -4 65t-14 64q-23 78 -49 78q-20 0 -39 -45q-17 7 -15 19q1 22 27 51q27 28 45 28q42 0 71 -75q23 -63 29 -154q15 44 34.5 83.5t42.5 71.5q54 74 100 74zM334 657
q2 -3 4 -7q4 -8 4 -14q-5 -41 -131 -118l-7 -4l45 85q16 8 32 17q13 8 27 18t24 21z" />
    <glyph glyph-name="agrave" unicode="a&#x300;" horiz-adv-x="338" 
d="M235 290q-21 14 -48 14q-19 0 -35.5 -15t-30.5 -43q-16 -29 -25 -66t-12 -79t15 -42q22 0 60 47q25 29 42 68t25 79zM204 130l-9 -13.5t-17 -23.5t-21 -26.5t-20 -23.5q-40 -43 -71 -43q-21 0 -29.5 21.5t-6.5 59.5q8 106 69 186q62 79 140 79q15 0 29 -2.5t25 -7.5
q0 -1 -4 -12.5t-9 -39.5l-29 -154q-9 -44 -10 -55q-1 -8 -1 -11q-2 -11 2 -11q19 0 51 68q12 -11 12 -17q-1 -15 -28 -52q-19 -25 -36 -38.5t-31 -13.5q-11 0 -16.5 11.5t-5.5 25.5q0 4 1 13.5t3 17.5zM198 372q-37 31 -56 104l28 31q22 -71 56 -100z" />
    <glyph glyph-name="aacute" unicode="a&#x301;" horiz-adv-x="338" 
d="M235 290q-21 14 -48 14q-19 0 -35.5 -15t-30.5 -43q-16 -29 -25 -66t-12 -79t15 -42q22 0 60 47q25 29 42 68t25 79zM204 130l-9 -13.5t-17 -23.5t-21 -26.5t-20 -23.5q-40 -43 -71 -43q-21 0 -29.5 21.5t-6.5 59.5q8 106 69 186q62 79 140 79q15 0 29 -2.5t25 -7.5
q0 -1 -4 -12.5t-9 -39.5l-29 -154q-9 -44 -10 -55q-1 -8 -1 -11q-2 -11 2 -11q19 0 51 68q12 -11 12 -17q-1 -15 -28 -52q-19 -25 -36 -38.5t-31 -13.5q-11 0 -16.5 11.5t-5.5 25.5q0 4 1 13.5t3 17.5zM338 525q2 -3 4 -7q4 -8 4 -14q-5 -41 -131 -118l-7 -4l45 85
q16 8 32 17q13 8 27 18t24 21z" />
    <glyph glyph-name="atilde" unicode="a&#x303;" horiz-adv-x="338" 
d="M235 290q-21 14 -48 14q-19 0 -35.5 -15t-30.5 -43q-16 -29 -25 -66t-12 -79t15 -42q22 0 60 47q25 29 42 68t25 79zM204 130l-9 -13.5t-17 -23.5t-21 -26.5t-20 -23.5q-40 -43 -71 -43q-21 0 -29.5 21.5t-6.5 59.5q8 106 69 186q62 79 140 79q15 0 29 -2.5t25 -7.5
q0 -1 -4 -12.5t-9 -39.5l-29 -154q-9 -44 -10 -55q-1 -8 -1 -11q-2 -11 2 -11q19 0 51 68q12 -11 12 -17q-1 -15 -28 -52q-19 -25 -36 -38.5t-31 -13.5q-11 0 -16.5 11.5t-5.5 25.5q0 4 1 13.5t3 17.5zM287 464q3 0 5 -2q3 -4 5 -11v-2q-1 -18 -22 -47q-20 -29 -34 -29
q-9 0 -19 8l-34 27q-11 7 -16 7q-16 0 -30 -41l-2 -3l-2 2q-8 4 -8 14q2 22 21 47q22 29 37 29q5 0 15 -8l35 -27q10 -7 16 -7q5 0 13 7.5t20 33.5v2z" />
    <glyph glyph-name="egrave" unicode="e&#x300;" horiz-adv-x="256" 
d="M114 265q-10 -17 -18 -38.5t-12 -47.5q4 -2 10 -2q33 0 61 26q11 11 19 26t10 33q3 37 -26 37q-23 0 -44 -34zM124 54q23 0 42 19.5t38 57.5q13 -12 12 -20q-2 -8 -8 -18.5t-14 -21.5q-53 -70 -102 -70q-14 0 -26.5 8t-21.5 22t-12.5 33t-1.5 41q6 80 60 163
q58 84 104 84q39 0 36 -49q-2 -26 -15 -54t-33 -51t-46.5 -40t-54.5 -27q0 -77 43 -77zM164 372q-37 31 -56 104l28 31q22 -71 56 -100z" />
    <glyph glyph-name="eacute" unicode="e&#x301;" horiz-adv-x="256" 
d="M266 528q2 -3 4 -7q4 -8 4 -14q-5 -41 -131 -118l-7 -4l45 85q16 8 32 17q13 8 27 18t24 21zM114 265q-10 -17 -18 -38.5t-12 -47.5q4 -2 10 -2q33 0 61 26q11 11 19 26t10 33q3 37 -26 37q-23 0 -44 -34zM124 54q23 0 42 19.5t38 57.5q13 -12 12 -20q-2 -8 -8 -18.5
t-14 -21.5q-53 -70 -102 -70q-14 0 -26.5 8t-21.5 22t-12.5 33t-1.5 41q6 80 60 163q58 84 104 84q39 0 36 -49q-2 -26 -15 -54t-33 -51t-46.5 -40t-54.5 -27q0 -77 43 -77z" />
    <glyph glyph-name="igrave" unicode="i&#x300;" horiz-adv-x="179" 
d="M142 118q-27 -64 -48 -64q-4 0 -2 11l0.5 5.5t4 27t11.5 65t23 119.5q2 8 3 16.5t1 12.5q1 21 -4 31t-19 10q-20 0 -56 -38q-15 -17 -25 -33t-11 -27q0 -4 2 -8.5t8 -10.5q14 32 27 48t22 16q3 0 3.5 -4t0 -9.5t-1.5 -11t-2 -8.5q-14 -82 -22 -127t-12 -68q-4 -26 -5 -32
q-3 -38 21 -38q31 0 68 52q27 37 28 52q0 6 -9 14zM95 372q-37 31 -56 104l28 31q22 -71 56 -100z" />
    <glyph glyph-name="iacute" unicode="i&#x301;" horiz-adv-x="193" 
d="M189 508q2 -3 4 -7q4 -8 4 -14q-5 -41 -131 -118l38 81q16 8 32 17q13 8 27 18t24 21zM148 119q9 -8 9 -14q-1 -15 -28 -52q-37 -52 -68 -52q-24 0 -21 38q1 6 5 32q4 23 12 68t22 127q1 3 2 8.5t1.5 11t0 9.5t-3.5 4q-9 0 -22 -16t-27 -48q-6 6 -8 10.5t-2 8.5
q1 11 11 27t25 33q36 38 56 38q14 0 19 -10t4 -31q0 -4 -1 -12.5t-3 -16.5q-15 -76 -23 -119.5t-11.5 -65t-4 -27l-0.5 -5.5q-2 -11 2 -11q21 0 48 64z" />
    <glyph glyph-name="ograve" unicode="o&#x300;" horiz-adv-x="275" 
d="M160 372q-37 31 -56 104l28 31q22 -71 56 -100zM84 152q-8 -105 42 -105q15 0 28.5 11.5t24.5 31.5q12 23 19.5 50t9.5 60q7 105 -42 105q-31 0 -53 -43q-25 -46 -29 -110zM200 80q-56 -79 -110 -79q-68 0 -60 108q3 42 19 83t43 80q26 37 54.5 58.5t54.5 21.5
q34 0 49 -28.5t12 -79.5q-3 -42 -18 -84t-44 -80z" />
    <glyph glyph-name="oacute" unicode="o&#x301;" horiz-adv-x="275" 
d="M308 518q2 -3 4 -7q4 -8 4 -14q-5 -41 -131 -118l-7 -4l45 85q16 8 32 17q13 8 27 18t24 21zM84 152q-8 -105 42 -105q15 0 28.5 11.5t24.5 31.5q12 23 19.5 50t9.5 60q7 105 -42 105q-31 0 -53 -43q-25 -46 -29 -110zM200 80q-56 -79 -110 -79q-68 0 -60 108q3 42 19 83
t43 80q26 37 54.5 58.5t54.5 21.5q34 0 49 -28.5t12 -79.5q-3 -42 -18 -84t-44 -80z" />
    <glyph glyph-name="otilde" unicode="o&#x303;" horiz-adv-x="289" 
d="M267 464q3 0 5 -2q3 -4 5 -11v-2q-1 -18 -22 -47q-20 -29 -34 -29q-9 0 -19 8l-34 27q-11 7 -16 7q-16 0 -30 -41l-2 -3l-2 2q-8 4 -8 14q2 22 21 47q22 29 37 29q5 0 15 -8l35 -27q10 -7 16 -7q5 0 13 7.5t20 33.5v2zM84 152q-8 -105 42 -105q15 0 28.5 11.5t24.5 31.5
q12 23 19.5 50t9.5 60q7 105 -42 105q-31 0 -53 -43q-25 -46 -29 -110zM200 80q-56 -79 -110 -79q-68 0 -60 108q3 42 19 83t43 80q26 37 54.5 58.5t54.5 21.5q34 0 49 -28.5t12 -79.5q-3 -42 -18 -84t-44 -80z" />
    <glyph glyph-name="ugrave" unicode="u&#x300;" horiz-adv-x="346" 
d="M223 130q-15 -24 -33.5 -47t-34.5 -39q-19 -20 -37.5 -32t-32.5 -12q-32 0 -29 49q1 9 2.5 23.5t4.5 34.5q7 48 13 86q3 16 5 31.5t4 28t3.5 20.5t1.5 9q0 5 -1 10.5t-3 5.5q-20 0 -47 -62q-7 5 -9 9t-2 8q1 12 10 27.5t25 32.5q35 37 55 37q27 0 24 -44q0 -10 -3 -22
q-5 -38 -11.5 -78t-12.5 -78v1q-2 -13 -3 -25.5t-3 -26.5q-2 -20 9 -20q31 0 73 63q21 31 34.5 63.5t19.5 63.5q4 21 8 43t8 42l56 23q-5 -20 -10 -41.5t-8 -38.5l-27 -145q-1 -4 -2 -10.5t-3 -13.5q-2 -8 -3 -18q-3 -17 -3 -25q-2 -11 2 -11q23 0 50 68q13 -10 13 -17
t-7.5 -20t-20.5 -32q-39 -51 -68 -51q-24 0 -21 38v5q1 5 1.5 10.5t2.5 13.5l10 60v3zM209 372q-37 31 -56 104l28 31q22 -71 56 -100z" />
    <glyph glyph-name="uacute" unicode="u&#x301;" horiz-adv-x="346" 
d="M223 130q-15 -24 -33.5 -47t-34.5 -39q-19 -20 -37.5 -32t-32.5 -12q-32 0 -29 49q1 9 2.5 23.5t4.5 34.5q7 48 13 86q3 16 5 31.5t4 28t3.5 20.5t1.5 9q0 5 -1 10.5t-3 5.5q-20 0 -47 -62q-7 5 -9 9t-2 8q1 12 10 27.5t25 32.5q35 37 55 37q27 0 24 -44q0 -10 -3 -22
q-5 -38 -11.5 -78t-12.5 -78v1q-2 -13 -3 -25.5t-3 -26.5q-2 -20 9 -20q31 0 73 63q21 31 34.5 63.5t19.5 63.5q4 21 8 43t8 42l56 23q-5 -20 -10 -41.5t-8 -38.5l-27 -145q-1 -4 -2 -10.5t-3 -13.5q-2 -8 -3 -18q-3 -17 -3 -25q-2 -11 2 -11q23 0 50 68q13 -10 13 -17
t-7.5 -20t-20.5 -32q-39 -51 -68 -51q-24 0 -21 38v5q1 5 1.5 10.5t2.5 13.5l10 60v3zM311 508q2 -3 4 -7q4 -8 4 -14q-5 -41 -131 -118l-7 -4l45 85q16 8 32 17q13 8 27 18t24 21z" />
    <glyph glyph-name="yacute" unicode="y&#x301;" horiz-adv-x="334" 
d="M325 343q-1 -1 -1 -3q0 -1 -1 -2q-6 -15 -11.5 -35.5t-11.5 -48.5l-54 -234q-32 -136 -83 -204q-79 -100 -169 -100q-19 0 -48 13l43 54q12 -8 26 -11t28 -3q55 0 87 44q15 23 30 67t29 104q4 19 8 35.5l8 33t8 33.5t8 37q-12 -22 -26 -43t-27 -36q-35 -43 -56 -43
q-14 0 -20.5 22.5t-7.5 51.5q2 42 3 88t3 88q0 18 -2 35.5t-7 17.5q-18 0 -44 -55q-13 10 -13 20q1 10 9.5 23.5t22.5 27.5q30 32 49 32q10 0 17 -6.5t11 -16.5q6 -21 5 -74q-1 -30 -2 -60.5t-2 -61.5q-1 -35 1.5 -50.5t7.5 -15.5q22 0 56 64q19 30 31 61.5t20 63.5l9 37
q0 2 0.5 3t0.5 3q3 18 19.5 31t27.5 19v-1q7 5 12 5t6 -5q1 -1 1 -2zM290 508q2 -3 4 -7q4 -8 4 -14q-5 -41 -131 -118l-7 -4l45 85q16 8 32 17q13 8 27 18t24 21z" />
    <glyph glyph-name="Itilde" unicode="I&#x303;" horiz-adv-x="263" 
d="M243 474q7 -7 11.5 -17t-3.5 -15l-2 2q-1 1 -5 3q-3 2 -8 3.5t-12 0.5q-4 0 -14 -0.5t-18 -2.5q-14 -96 -29 -189t-29 -189q-1 -7 -4 -12.5t-5 -9.5q10 -2 22 -4t18 -2q3 0 9 1.5t9 3.5q7 5 13 2t-8 -18q-19 -20 -31 -26t-20 -4q-2 0 -9 1.5t-16.5 3.5t-19 3.5t-14.5 2.5
q-2 0 -13 -2.5t-22 -4.5q-6 -2 -11.5 -3t-8.5 -1t-2.5 5t3 11.5t6.5 12.5t7 9q4 3 8.5 4t9.5 3q6 2 11 3.5t7 3.5q8 8 12 22.5t8 41.5l47 324q-8 -2 -19.5 -3t-12.5 -1q-7 0 -15 3.5t-22 23.5q-13 15 -8.5 18t12.5 -1q4 -2 10.5 -2h8.5q3 0 14.5 1.5t26.5 3t30.5 3.5t26.5 4
q3 0 5.5 0.5t4.5 0.5t3 1q13 1 21.5 -5t12.5 -10zM253 623q3 0 5 -2q3 -4 5 -11v-2q-1 -18 -22 -47q-20 -29 -34 -29q-9 0 -20 8l-33 26q-10 8 -16 8q-15 0 -31 -41l-1 -3l-2 2q-8 4 -8 14q2 22 21 47q20 28 36 28q8 0 16 -7l35 -27q8 -7 16 -7q5 0 13 7.5t19 33.5z" />
    <glyph glyph-name="itilde" unicode="i&#x303;" horiz-adv-x="219" 
d="M148 119q9 -8 9 -14q-1 -15 -28 -52q-37 -52 -68 -52q-24 0 -21 38q1 6 5 32q4 23 12 68t22 127q1 3 2 8.5t1.5 11t0 9.5t-3.5 4q-9 0 -22 -16t-27 -48q-6 6 -8 10.5t-2 8.5q1 11 11 27t25 33q36 38 56 38q14 0 19 -10t4 -31q0 -4 -1 -12.5t-3 -16.5q-15 -76 -23 -119.5
t-11.5 -65t-4 -27l-0.5 -5.5q-2 -11 2 -11q21 0 48 64zM187 466q3 0 5 -2q3 -4 5 -11v-2q-1 -18 -22 -47q-20 -29 -34 -29q-9 0 -20 8l-33 26q-10 8 -16 8q-15 0 -31 -41l-1 -3l-2 2q-8 4 -8 14q2 22 21 47q20 28 36 28q8 0 16 -7l35 -27q8 -7 16 -7q5 0 13 7.5t19 33.5z
" />
    <glyph glyph-name="Utilde" unicode="U&#x303;" horiz-adv-x="489" 
d="M136 191q5 21 12 53.5t14 67.5q8 42 15.5 78.5t12.5 53.5h-18q-56 0 -78.5 -24t-26.5 -70q-1 -27 11 -61l-57 -64q-6 34 -4 64q6 92 65 148q29 29 59 42t75 13h49q-8 -14 -16.5 -44.5t-17.5 -68.5q-2 -8 -7.5 -33t-12 -55t-12 -58.5t-7.5 -42.5q-2 -17 -3 -29.5t-1 -24.5
q0 -41 13 -66t38 -25q11 0 23 6.5t23 15.5t19.5 19.5t12.5 19.5q16 29 27.5 69t20.5 94q0 1 1.5 10t4.5 30t8.5 56t14.5 89q3 17 19 29.5t34 19.5q9 3 16 1.5t5 -7.5q-9 -14 -14 -27.5t-8.5 -29.5t-6 -35.5t-6.5 -45.5l-31 -200q-2 -15 -3.5 -26t-2.5 -21q-3 -31 15 -31
q7 0 18 4.5t25 12.5q0 -2 -0.5 -5t-0.5 -6v-7q-1 -9 -18 -20l-110 -64l17 104q-29 -45 -63 -72.5t-67 -27.5q-21 0 -36.5 11t-26 29.5t-15.5 42t-5 49.5q0 16 2 30.5t5 28.5zM414 624q3 0 5 -2q3 -4 5 -11v-2q-1 -18 -22 -47q-20 -29 -34 -29q-9 0 -20 8l-33 26q-10 8 -16 8
q-15 0 -31 -41l-1 -3l-2 2q-8 4 -8 14q2 22 21 47q20 28 36 28q8 0 16 -7l35 -27q8 -7 16 -7q5 0 13 7.5t19 33.5z" />
    <glyph glyph-name="utilde" unicode="u&#x303;" horiz-adv-x="335" 
d="M215 132q-15 -24 -33.5 -47.5t-35.5 -40.5q-19 -20 -37.5 -32t-32.5 -12q-32 0 -29 49q1 9 2.5 23.5t4.5 34.5q7 48 13 86q3 16 5 31.5t4 28t3.5 20.5t1.5 9q1 16 -4 16q-9 0 -24 -18t-23 -44q-7 5 -9 9t-2 8q1 12 10 27.5t25 32.5q35 37 55 37q27 0 24 -44
q-1 -10 -2 -19.5t-3 -20.5q-5 -35 -11 -70t-11 -68q-3 -24 -6 -51q-2 -20 9 -20q31 0 73 63q21 31 34.5 63.5t19.5 63.5q4 21 8 43t8 42l56 23q-5 -20 -10 -41.5t-8 -38.5q-11 -58 -17.5 -94.5t-10.5 -56.5q-4 -25 -7 -36q-3 -14 -4 -24.5t3 -11.5q9 -2 22.5 16t27.5 52
q13 -10 13 -17t-8 -21t-20 -31q-39 -51 -68 -51q-24 0 -21 38q1 8 2 15.5t2 13.5zM274 474q3 0 5 -2q3 -4 5 -11v-2q-1 -18 -22 -47q-20 -29 -34 -29q-9 0 -20 8l-33 26q-10 8 -16 8q-15 0 -31 -41l-1 -3l-2 2q-8 4 -8 14q2 22 21 47q20 28 36 28q8 0 16 -7l35 -27
q8 -7 16 -7q5 0 13 7.5t19 33.5z" />
    <glyph glyph-name="uni1EA0" unicode="A&#x323;" horiz-adv-x="446" 
d="M208 219h94q0 29 1.5 52t3.5 40q1 10 4 31t6.5 43t7 39.5t5.5 20.5q-18 -8 -34 -31t-31 -53.5t-27.5 -64t-22.5 -62.5zM375 54q7 -1 14 1.5t10 4.5q10 5 18 11t13 6q10 -2 1 -17t-22.5 -26.5t-28 -19t-27.5 -11t-22 -0.5q-17 9 -22 40q-5 34 -6.5 71t-1.5 73
q-4 -3 -9 -6.5t-8 -6.5h-92q-13 -34 -30.5 -63t-36.5 -47l-20 -17q18 -5 30 -5q2 0 8 2t10 4q3 2 7 2.5t6 -1.5t0.5 -7t-8.5 -12q-18 -20 -31 -25.5t-20 -3.5q-3 0 -9 2q-8 2 -21 5.5t-22 4.5l-6 -2t-13 -4.5t-12 -4.5l-5 -2q-3 0 -2 5t4 11t7.5 12t7.5 8l17 5q25 10 42 30
t25 35q8 17 23 52t30 76q21 64 37.5 101t30.5 58q13 19 27 33.5t34 27.5q-41 9 -82 9q-121 0 -127 -101q-3 -35 10 -67l-54 -60q-6 22 -8 43t-1 37q6 86 71 143q55 45 178 45q6 0 18.5 -0.5t25.5 -1.5t24 -2t14 -1h25q-14 -23 -24.5 -67.5t-13.5 -108.5q-3 -55 -2.5 -110
t4.5 -102q1 -8 2 -25t3 -25q1 -2 1.5 -3.5t8.5 -2.5zM267 -72q-4 11 -8.5 19t-9.5 14q-5 7 -10 12l-44 -45q6 -4 11 -10q5 -5 9.5 -14t7.5 -23z" />
    <glyph glyph-name="uni1EA1" unicode="a&#x323;" horiz-adv-x="338" 
d="M235 291q-21 14 -48 14q-19 0 -35.5 -15t-30.5 -43q-16 -29 -25 -66t-12 -79t15 -42q22 0 60 47q25 29 42 68t25 79zM204 131l-9 -13.5t-17 -23.5t-21 -26.5t-20 -23.5q-40 -43 -71 -43q-21 0 -29.5 21.5t-6.5 59.5q8 106 69 186q62 79 140 79q32 0 53 -10
q0 -1 -3.5 -12.5t-8.5 -39.5l-29 -154q-9 -44 -10 -55q-1 -8 -1 -11q-2 -11 2 -11q19 0 51 68q12 -11 12 -17q-1 -15 -28 -52q-19 -25 -36 -38.5t-31 -13.5q-11 0 -16.5 11.5t-5.5 25.5q0 4 1 13.5t3 17.5zM179 -72q-4 11 -8.5 19t-9.5 14q-5 7 -10 12l-44 -45q6 -4 11 -10
q5 -5 9.5 -14t7.5 -23z" />
    <glyph glyph-name="uni1EA2" unicode="A&#x309;" horiz-adv-x="446" 
d="M208 219h94q0 29 1.5 52t3.5 40q1 10 4 31t6.5 43t7 39.5t5.5 20.5q-18 -8 -34 -31t-31 -53.5t-27.5 -64t-22.5 -62.5zM375 54q7 -1 14 1.5t10 4.5q10 5 18 11t13 6q10 -2 1 -17t-22.5 -26.5t-28 -19t-27.5 -11t-22 -0.5q-17 9 -22 40q-5 34 -6.5 71t-1.5 73
q-4 -3 -9 -6.5t-8 -6.5h-92q-13 -34 -30.5 -63t-36.5 -47l-20 -17q18 -5 30 -5q2 0 8 2t10 4q3 2 7 2.5t6 -1.5t0.5 -7t-8.5 -12q-18 -20 -31 -25.5t-20 -3.5q-3 0 -9 2q-8 2 -21 5.5t-22 4.5l-6 -2t-13 -4.5t-12 -4.5l-5 -2q-3 0 -2 5t4 11t7.5 12t7.5 8l17 5q25 10 42 30
t25 35q8 17 23 52t30 76q21 64 37.5 101t30.5 58q13 19 27 33.5t34 27.5q-41 9 -82 9q-121 0 -127 -101q-3 -35 10 -67l-54 -60q-6 22 -8 43t-1 37q6 86 71 143q55 45 178 45q6 0 18.5 -0.5t25.5 -1.5t24 -2t14 -1h25q-14 -23 -24.5 -67.5t-13.5 -108.5q-3 -55 -2.5 -110
t4.5 -102q1 -8 2 -25t3 -25q1 -2 1.5 -3.5t8.5 -2.5zM341 581q-11 -14 -16 -20.5t-7 -15.5l-47 -12q2 13 12 26.5t22 26.5q9 10 13.5 22t4 22t-6 17.5t-17.5 8.5q-27 3 -49 -24l-15 11q8 16 26.5 27t42.5 13q15 1 30 -5.5t23 -19.5t5.5 -32.5t-21.5 -44.5z" />
    <glyph glyph-name="uni1EA3" unicode="a&#x309;" horiz-adv-x="338" 
d="M235 291q-21 14 -48 14q-19 0 -35.5 -15t-30.5 -43q-16 -29 -25 -66t-12 -79t15 -42q22 0 60 47q25 29 42 68t25 79zM204 131l-9 -13.5t-17 -23.5t-21 -26.5t-20 -23.5q-40 -43 -71 -43q-21 0 -29.5 21.5t-6.5 59.5q8 106 69 186q62 79 140 79q15 0 29 -2.5t25 -7.5
q0 -1 -4 -12.5t-9 -39.5l-29 -154q-9 -44 -10 -55q-1 -8 -1 -11q-2 -11 2 -11q19 0 51 68q12 -11 12 -17q-1 -15 -28 -52q-19 -25 -36 -38.5t-31 -13.5q-11 0 -16.5 11.5t-5.5 25.5q0 4 1 13.5t3 17.5zM255 424q-11 -14 -16 -20.5t-7 -15.5l-47 -12q2 13 12 26.5t22 26.5
q9 10 13.5 22t4 22t-6 17.5t-17.5 8.5q-27 3 -49 -24l-15 11q8 16 26.5 27t42.5 13q15 1 30 -5.5t23 -19.5t5.5 -32.5t-21.5 -44.5z" />
    <glyph glyph-name="uni1EA4" unicode="&#xc2;&#x301;" horiz-adv-x="466" 
d="M208 219h94q0 29 1.5 52t3.5 40q1 10 4 31t6.5 43t7 39.5t5.5 20.5q-18 -8 -34 -31t-31 -53.5t-27.5 -64t-22.5 -62.5zM375 54q7 -1 14 1.5t10 4.5q10 5 18 11t13 6q10 -2 1 -17t-22.5 -26.5t-28 -19t-27.5 -11t-22 -0.5q-17 9 -22 40q-5 34 -6.5 71t-1.5 73
q-4 -3 -9 -6.5t-8 -6.5h-92q-13 -34 -30.5 -63t-36.5 -47l-20 -17q18 -5 30 -5q2 0 8 2t10 4q3 2 7 2.5t6 -1.5t0.5 -7t-8.5 -12q-18 -20 -31 -25.5t-20 -3.5q-3 0 -9 2q-8 2 -21 5.5t-22 4.5l-6 -2t-13 -4.5t-12 -4.5l-5 -2q-3 0 -2 5t4 11t7.5 12t7.5 8l17 5q25 10 42 30
t25 35q8 17 23 52t30 76q21 64 37.5 101t30.5 58q13 19 27 33.5t34 27.5q-41 9 -82 9q-121 0 -127 -101q-3 -35 10 -67l-54 -60q-6 22 -8 43t-1 37q6 86 71 143q55 45 178 45q6 0 18.5 -0.5t25.5 -1.5t24 -2t14 -1h25q-14 -23 -24.5 -67.5t-13.5 -108.5q-3 -55 -2.5 -110
t4.5 -102q1 -8 2 -25t3 -25q1 -2 1.5 -3.5t8.5 -2.5zM371 527q-7 10 -14 23q-6 11 -12 26.5t-10 33.5q-14 -23 -28.5 -39.5t-25.5 -26.5q-13 -12 -26 -19l22 55q9 5 19 13q8 7 17 17t17 25l31 33q3 -17 8 -35q5 -15 12.5 -33t20.5 -35zM517 747q2 -3 4 -7q4 -8 4 -14
q-5 -41 -131 -118l-7 -4l45 85q16 8 32 17q13 8 27 18t24 21z" />
    <glyph glyph-name="uni1EA5" unicode="&#xe2;&#x301;" horiz-adv-x="362" 
d="M235 290q-21 14 -48 14q-19 0 -35.5 -15t-30.5 -43q-16 -29 -25 -66t-12 -79t15 -42q22 0 60 47q25 29 42 68t25 79zM204 130l-9 -13.5t-17 -23.5t-21 -26.5t-20 -23.5q-40 -43 -71 -43q-21 0 -29.5 21.5t-6.5 59.5q8 106 69 186q62 79 140 79q15 0 29 -2.5t25 -7.5
q0 -1 -4 -12.5t-9 -39.5l-29 -154q-9 -44 -10 -55q-1 -8 -1 -11q-2 -11 2 -11q19 0 51 68q12 -11 12 -17q-1 -15 -28 -52q-19 -25 -36 -38.5t-31 -13.5q-11 0 -16.5 11.5t-5.5 25.5q0 4 1 13.5t3 17.5zM267 372q-7 10 -14 23q-6 11 -12 26.5t-10 33.5q-14 -23 -28.5 -39.5
t-25.5 -26.5q-13 -12 -26 -19l22 55q9 5 19 13q8 7 17 17t17 25l31 33q3 -17 8 -35q5 -15 12.5 -33t20.5 -35zM413 592q2 -3 4 -7q4 -8 4 -14q-5 -41 -131 -118l-7 -4l45 85q16 8 32 17q13 8 27 18t24 21z" />
    <glyph glyph-name="uni1EA6" unicode="&#xc2;&#x300;" horiz-adv-x="446" 
d="M208 219h94q0 29 1.5 52t3.5 40q1 10 4 31t6.5 43t7 39.5t5.5 20.5q-18 -8 -34 -31t-31 -53.5t-27.5 -64t-22.5 -62.5zM375 54q7 -1 14 1.5t10 4.5q10 5 18 11t13 6q10 -2 1 -17t-22.5 -26.5t-28 -19t-27.5 -11t-22 -0.5q-17 9 -22 40q-5 34 -6.5 71t-1.5 73
q-4 -3 -9 -6.5t-8 -6.5h-92q-13 -34 -30.5 -63t-36.5 -47l-20 -17q18 -5 30 -5q2 0 8 2t10 4q3 2 7 2.5t6 -1.5t0.5 -7t-8.5 -12q-18 -20 -31 -25.5t-20 -3.5q-3 0 -9 2q-8 2 -21 5.5t-22 4.5l-6 -2t-13 -4.5t-12 -4.5l-5 -2q-3 0 -2 5t4 11t7.5 12t7.5 8l17 5q25 10 42 30
t25 35q8 17 23 52t30 76q21 64 37.5 101t30.5 58q13 19 27 33.5t34 27.5q-41 9 -82 9q-121 0 -127 -101q-3 -35 10 -67l-54 -60q-6 22 -8 43t-1 37q6 86 71 143q55 45 178 45q6 0 18.5 -0.5t25.5 -1.5t24 -2t14 -1h25q-14 -23 -24.5 -67.5t-13.5 -108.5q-3 -55 -2.5 -110
t4.5 -102q1 -8 2 -25t3 -25q1 -2 1.5 -3.5t8.5 -2.5zM375 565q-13 17 -20.5 35t-12.5 33q-5 18 -8 35l-31 -33q-8 -15 -17 -25t-17 -17q-10 -8 -19 -13l-22 -55q13 7 26 19q11 10 25.5 26.5t28.5 39.5q4 -18 10 -33.5t12 -26.5q7 -13 14 -23zM410 626q-37 31 -56 104l28 31
q22 -71 56 -100z" />
    <glyph glyph-name="uni1EA7" unicode="&#xe2;&#x300;" horiz-adv-x="332" 
d="M229 290q-21 14 -48 14q-19 0 -35.5 -15t-30.5 -43q-16 -29 -25 -66t-12 -79t15 -42q22 0 60 47q25 29 42 68t25 79zM198 130l-9 -13.5t-17 -23.5t-21 -26.5t-20 -23.5q-40 -43 -71 -43q-21 0 -29.5 21.5t-6.5 59.5q8 106 69 186q62 79 140 79q15 0 29 -2.5t25 -7.5
q0 -1 -4 -12.5t-9 -39.5l-29 -154q-9 -44 -10 -55q-1 -8 -1 -11q-2 -11 2 -11q19 0 51 68q12 -11 12 -17q-1 -15 -28 -52q-19 -25 -36 -38.5t-31 -13.5q-11 0 -16.5 11.5t-5.5 25.5q0 4 1 13.5t3 17.5zM295 417q-13 17 -20.5 35t-12.5 33q-5 18 -8 35l-31 -33
q-8 -15 -17 -25t-17 -17q-10 -8 -19 -13l-22 -55q13 7 26 19q11 10 25.5 26.5t28.5 39.5q4 -18 10 -33.5t12 -26.5q7 -13 14 -23zM327 485q-37 31 -56 104l28 31q22 -71 56 -100z" />
    <glyph glyph-name="uni1EA8" unicode="&#xc2;&#x309;" horiz-adv-x="462" 
d="M208 219h94q0 29 1.5 52t3.5 40q1 10 4 31t6.5 43t7 39.5t5.5 20.5q-18 -8 -34 -31t-31 -53.5t-27.5 -64t-22.5 -62.5zM375 54q7 -1 14 1.5t10 4.5q10 5 18 11t13 6q10 -2 1 -17t-22.5 -26.5t-28 -19t-27.5 -11t-22 -0.5q-17 9 -22 40q-5 34 -6.5 71t-1.5 73
q-4 -3 -9 -6.5t-8 -6.5h-92q-13 -34 -30.5 -63t-36.5 -47l-20 -17q18 -5 30 -5q2 0 8 2t10 4q3 2 7 2.5t6 -1.5t0.5 -7t-8.5 -12q-18 -20 -31 -25.5t-20 -3.5q-3 0 -9 2q-8 2 -21 5.5t-22 4.5l-6 -2t-13 -4.5t-12 -4.5l-5 -2q-3 0 -2 5t4 11t7.5 12t7.5 8l17 5q25 10 42 30
t25 35q8 17 23 52t30 76q21 64 37.5 101t30.5 58q13 19 27 33.5t34 27.5q-41 9 -82 9q-121 0 -127 -101q-3 -35 10 -67l-54 -60q-6 22 -8 43t-1 37q6 86 71 143q55 45 178 45q6 0 18.5 -0.5t25.5 -1.5t24 -2t14 -1h25q-14 -23 -24.5 -67.5t-13.5 -108.5q-3 -55 -2.5 -110
t4.5 -102q1 -8 2 -25t3 -25q1 -2 1.5 -3.5t8.5 -2.5zM364 565q-13 17 -20.5 35t-12.5 33q-5 18 -8 35l-31 -33q-8 -15 -17 -25t-17 -17q-10 -8 -19 -13l-22 -55q13 7 26 19q11 10 25.5 26.5t28.5 39.5q4 -18 10 -33.5t12 -26.5q7 -13 14 -23zM439 646q-11 -14 -16 -20.5
t-7 -15.5l-47 -12q2 13 12 26.5t22 26.5q9 10 13.5 22t4 22t-6 17.5t-17.5 8.5q-27 3 -49 -24l-15 11q8 16 26.5 27t42.5 13q15 1 30 -5.5t23 -19.5t5.5 -32.5t-21.5 -44.5z" />
    <glyph glyph-name="uni1EA9" unicode="&#xe2;&#x309;" horiz-adv-x="367" 
d="M235 290q-21 14 -48 14q-19 0 -35.5 -15t-30.5 -43q-16 -29 -25 -66t-12 -79t15 -42q22 0 60 47q25 29 42 68t25 79zM204 130l-9 -13.5t-17 -23.5t-21 -26.5t-20 -23.5q-40 -43 -71 -43q-21 0 -29.5 21.5t-6.5 59.5q8 106 69 186q62 79 140 79q15 0 29 -2.5t25 -7.5
q0 -1 -4 -12.5t-9 -39.5l-29 -154q-9 -44 -10 -55q-1 -8 -1 -11q-2 -11 2 -11q19 0 51 68q12 -11 12 -17q-1 -15 -28 -52q-19 -25 -36 -38.5t-31 -13.5q-11 0 -16.5 11.5t-5.5 25.5q0 4 1 13.5t3 17.5zM299 417q-13 17 -20.5 35t-12.5 33q-5 18 -8 35l-31 -33
q-8 -15 -17 -25t-17 -17q-10 -8 -19 -13l-22 -55q13 7 26 19q11 10 25.5 26.5t28.5 39.5q4 -18 10 -33.5t12 -26.5q7 -13 14 -23zM374 498q-11 -14 -16 -20.5t-7 -15.5l-47 -12q2 13 12 26.5t22 26.5q9 10 13.5 22t4 22t-6 17.5t-17.5 8.5q-27 3 -49 -24l-15 11
q8 16 26.5 27t42.5 13q15 1 30 -5.5t23 -19.5t5.5 -32.5t-21.5 -44.5z" />
    <glyph glyph-name="uni1EAA" unicode="&#xc2;&#x303;" horiz-adv-x="463" 
d="M208 219h94q0 29 1.5 52t3.5 40q1 10 4 31t6.5 43t7 39.5t5.5 20.5q-18 -8 -34 -31t-31 -53.5t-27.5 -64t-22.5 -62.5zM375 54q7 -1 14 1.5t10 4.5q10 5 18 11t13 6q10 -2 1 -17t-22.5 -26.5t-28 -19t-27.5 -11t-22 -0.5q-17 9 -22 40q-5 34 -6.5 71t-1.5 73
q-4 -3 -9 -6.5t-8 -6.5h-92q-13 -34 -30.5 -63t-36.5 -47l-20 -17q18 -5 30 -5q2 0 8 2t10 4q3 2 7 2.5t6 -1.5t0.5 -7t-8.5 -12q-18 -20 -31 -25.5t-20 -3.5q-3 0 -9 2q-8 2 -21 5.5t-22 4.5l-6 -2t-13 -4.5t-12 -4.5l-5 -2q-3 0 -2 5t4 11t7.5 12t7.5 8l17 5q25 10 42 30
t25 35q8 17 23 52t30 76q21 64 37.5 101t30.5 58q13 19 27 33.5t34 27.5q-41 9 -82 9q-121 0 -127 -101q-3 -35 10 -67l-54 -60q-6 22 -8 43t-1 37q6 86 71 143q55 45 178 45q6 0 18.5 -0.5t25.5 -1.5t24 -2t14 -1h25q-14 -23 -24.5 -67.5t-13.5 -108.5q-3 -55 -2.5 -110
t4.5 -102q1 -8 2 -25t3 -25q1 -2 1.5 -3.5t8.5 -2.5zM443 762q3 0 5 -2q3 -4 5 -11v-2q-1 -18 -22 -47q-20 -29 -34 -29q-9 0 -20 8l-33 26q-10 8 -16 8q-15 0 -31 -41l-1 -3l-2 2q-8 4 -8 14q2 22 21 47q20 28 36 28q8 0 16 -7l35 -27q8 -7 16 -7q5 0 13 7.5t19 33.5z
M372 527q-7 10 -14 23q-6 11 -12 26.5t-10 33.5q-14 -23 -28.5 -39.5t-25.5 -26.5q-13 -12 -26 -19l22 55q9 5 19 13q8 7 17 17t17 25l31 33q3 -17 8 -35q5 -15 12.5 -33t20.5 -35z" />
    <glyph glyph-name="uni1EAB" unicode="&#xe2;&#x303;" horiz-adv-x="362" 
d="M296 368q-7 10 -14 23q-6 11 -12 26.5t-10 33.5q-14 -23 -28.5 -39.5t-25.5 -26.5q-13 -12 -26 -19l22 55q9 5 19 13q8 7 17 17t17 25l31 33q3 -17 8 -35q5 -15 12.5 -33t20.5 -35zM372 601q3 0 5 -2q3 -4 5 -11l-1 -2q0 -18 -22 -47q-20 -29 -34 -29q-9 0 -19 8l-34 27
q-9 7 -16 7q-15 0 -30 -41l-1 -3l-3 2q-2 2 -5 5.5t-3 8.5q1 20 22 47q20 29 36 29q7 0 15 -8l18 -14q8 -6 18 -13q9 -7 15 -7q5 0 13.5 7.5t19.5 33.5zM235 290q-21 14 -48 14q-19 0 -35.5 -15t-30.5 -43q-16 -29 -25 -66t-12 -79t15 -42q22 0 60 47q25 29 42 68t25 79z
M204 130l-9 -13.5t-17 -23.5t-21 -26.5t-20 -23.5q-40 -43 -71 -43q-21 0 -29.5 21.5t-6.5 59.5q8 106 69 186q62 79 140 79q15 0 29 -2.5t25 -7.5q0 -1 -4 -12.5t-9 -39.5l-29 -154q-9 -44 -10 -55q-1 -8 -1 -11q-2 -11 2 -11q19 0 51 68q12 -11 12 -17q-1 -15 -28 -52
q-19 -25 -36 -38.5t-31 -13.5q-11 0 -16.5 11.5t-5.5 25.5q0 4 1 13.5t3 17.5z" />
    <glyph glyph-name="uni1EAC" unicode="&#xc2;&#x323;" horiz-adv-x="446" 
d="M208 219h94q0 29 1.5 52t3.5 40q1 10 4 31t6.5 43t7 39.5t5.5 20.5q-18 -8 -34 -31t-31 -53.5t-27.5 -64t-22.5 -62.5zM375 54q7 -1 14 1.5t10 4.5q10 5 18 11t13 6q10 -2 1 -17t-22.5 -26.5t-28 -19t-27.5 -11t-22 -0.5q-17 9 -22 40q-5 34 -6.5 71t-1.5 73
q-4 -3 -9 -6.5t-8 -6.5h-92q-13 -34 -30.5 -63t-36.5 -47l-20 -17q18 -5 30 -5q2 0 8 2t10 4q3 2 7 2.5t6 -1.5t0.5 -7t-8.5 -12q-18 -20 -31 -25.5t-20 -3.5q-3 0 -9 2q-8 2 -21 5.5t-22 4.5l-6 -2t-13 -4.5t-12 -4.5l-5 -2q-3 0 -2 5t4 11t7.5 12t7.5 8l17 5q25 10 42 30
t25 35q8 17 23 52t30 76q21 64 37.5 101t30.5 58q13 19 27 33.5t34 27.5q-41 9 -82 9q-121 0 -127 -101q-3 -35 10 -67l-54 -60q-6 22 -8 43t-1 37q6 86 71 143q55 45 178 45q6 0 18.5 -0.5t25.5 -1.5t24 -2t14 -1h25q-14 -23 -24.5 -67.5t-13.5 -108.5q-3 -55 -2.5 -110
t4.5 -102q1 -8 2 -25t3 -25q1 -2 1.5 -3.5t8.5 -2.5zM223 -119q-3 14 -7.5 23t-9.5 14q-5 6 -11 10l44 45q5 -5 10 -12q5 -6 9.5 -14t8.5 -19zM349 527q-7 10 -14 23q-6 11 -12 26.5t-10 33.5q-14 -23 -28.5 -39.5t-25.5 -26.5q-13 -12 -26 -19l22 55q9 5 19 13q8 7 17 17
t17 25l31 33q3 -17 8 -35q5 -15 12.5 -33t20.5 -35z" />
    <glyph glyph-name="uni1EAD" unicode="&#xe2;&#x323;" horiz-adv-x="332" 
d="M229 290q-21 14 -48 14q-19 0 -35.5 -15t-30.5 -43q-16 -29 -25 -66t-12 -79t15 -42q22 0 60 47q25 29 42 68t25 79zM198 130l-9 -13.5t-17 -23.5t-21 -26.5t-20 -23.5q-40 -43 -71 -43q-21 0 -29.5 21.5t-6.5 59.5q8 106 69 186q62 79 140 79q15 0 29 -2.5t25 -7.5
q0 -1 -4 -12.5t-9 -39.5l-29 -154q-9 -44 -10 -55q-1 -8 -1 -11q-2 -11 2 -11q19 0 51 68q12 -11 12 -17q-1 -15 -28 -52q-19 -25 -36 -38.5t-31 -13.5q-11 0 -16.5 11.5t-5.5 25.5q0 4 1 13.5t3 17.5zM128 -119q-3 14 -7.5 23t-9.5 14q-5 6 -11 10l44 45q5 -5 10 -12
q5 -6 9.5 -14t8.5 -19zM266 375q-7 10 -14 23q-6 11 -12 26.5t-10 33.5q-14 -23 -28.5 -39.5t-25.5 -26.5q-13 -12 -26 -19l22 55q9 5 19 13q8 7 17 17t17 25l31 33q3 -17 8 -35q5 -15 12.5 -33t20.5 -35z" />
    <glyph glyph-name="uni1EAE" unicode="&#x102;&#x301;" horiz-adv-x="487" 
d="M208 219h94q0 29 1.5 52t3.5 40q1 10 4 31t6.5 43t7 39.5t5.5 20.5q-18 -8 -34 -31t-31 -53.5t-27.5 -64t-22.5 -62.5zM375 54q7 -1 14 1.5t10 4.5q10 5 18 11t13 6q10 -2 1 -17t-22.5 -26.5t-28 -19t-27.5 -11t-22 -0.5q-17 9 -22 40q-5 34 -6.5 71t-1.5 73
q-4 -3 -9 -6.5t-8 -6.5h-92q-13 -34 -30.5 -63t-36.5 -47l-20 -17q18 -5 30 -5q2 0 8 2t10 4q3 2 7 2.5t6 -1.5t0.5 -7t-8.5 -12q-18 -20 -31 -25.5t-20 -3.5q-3 0 -9 2q-8 2 -21 5.5t-22 4.5l-6 -2t-13 -4.5t-12 -4.5l-5 -2q-3 0 -2 5t4 11t7.5 12t7.5 8l17 5q25 10 42 30
t25 35q8 17 23 52t30 76q21 64 37.5 101t30.5 58q13 19 27 33.5t34 27.5q-41 9 -82 9q-121 0 -127 -101q-3 -35 10 -67l-54 -60q-6 22 -8 43t-1 37q6 86 71 143q55 45 178 45q6 0 18.5 -0.5t25.5 -1.5t24 -2t14 -1h25q-14 -23 -24.5 -67.5t-13.5 -108.5q-3 -55 -2.5 -110
t4.5 -102q1 -8 2 -25t3 -25q1 -2 1.5 -3.5t8.5 -2.5zM322 679q0 -9 -1.5 -21.5t-2 -25t1 -24t7.5 -18.5q2 -3 10 -5t15 2q15 6 25.5 20.5t18.5 29.5q8 18 14 38q3 0 7 -2q2 -2 4.5 -5t2.5 -10q-2 -16 -10.5 -35t-25.5 -42q-17 -22 -34 -32.5t-31 -10.5q-5 0 -13.5 2
t-16.5 11t-13 27.5t-2 51.5zM468 783q2 -3 4 -7q4 -8 4 -14q-5 -41 -131 -118l-7 -4l45 85q16 8 32 17q13 8 27 18t24 21z" />
    <glyph glyph-name="uni1EAF" unicode="&#x103;&#x301;" horiz-adv-x="347" 
d="M229 290q-21 14 -48 14q-19 0 -35.5 -15t-30.5 -43q-16 -29 -25 -66t-12 -79t15 -42q22 0 60 47q25 29 42 68t25 79zM198 130l-9 -13.5t-17 -23.5t-21 -26.5t-20 -23.5q-40 -43 -71 -43q-21 0 -29.5 21.5t-6.5 59.5q8 106 69 186q62 79 140 79q15 0 29 -2.5t25 -7.5
q0 -1 -4 -12.5t-9 -39.5l-29 -154q-9 -44 -10 -55q-1 -8 -1 -11q-2 -11 2 -11q19 0 51 68q12 -11 12 -17q-1 -15 -28 -52q-19 -25 -36 -38.5t-31 -13.5q-11 0 -16.5 11.5t-5.5 25.5q0 4 1 13.5t3 17.5zM212 527q0 -9 -1.5 -21.5t-2 -25t1 -24t7.5 -18.5q2 -3 10 -5t15 2
q15 6 25.5 20.5t18.5 29.5q8 18 14 38q3 0 7 -2q2 -2 4.5 -5t2.5 -10q-2 -16 -10.5 -35t-25.5 -42q-17 -22 -34 -32.5t-31 -10.5q-5 0 -13.5 2t-16.5 11t-13 27.5t-2 51.5zM358 631q2 -3 4 -7q4 -8 4 -14q-5 -41 -131 -118l-7 -4l45 85q16 8 32 17q13 8 27 18t24 21z" />
    <glyph glyph-name="uni1EB0" unicode="&#x102;&#x300;" horiz-adv-x="446" 
d="M208 219h94q0 29 1.5 52t3.5 40q1 10 4 31t6.5 43t7 39.5t5.5 20.5q-18 -8 -34 -31t-31 -53.5t-27.5 -64t-22.5 -62.5zM375 54q7 -1 14 1.5t10 4.5q10 5 18 11t13 6q10 -2 1 -17t-22.5 -26.5t-28 -19t-27.5 -11t-22 -0.5q-17 9 -22 40q-5 34 -6.5 71t-1.5 73
q-4 -3 -9 -6.5t-8 -6.5h-92q-13 -34 -30.5 -63t-36.5 -47l-20 -17q18 -5 30 -5q2 0 8 2t10 4q3 2 7 2.5t6 -1.5t0.5 -7t-8.5 -12q-18 -20 -31 -25.5t-20 -3.5q-3 0 -9 2q-8 2 -21 5.5t-22 4.5l-6 -2t-13 -4.5t-12 -4.5l-5 -2q-3 0 -2 5t4 11t7.5 12t7.5 8l17 5q25 10 42 30
t25 35q8 17 23 52t30 76q21 64 37.5 101t30.5 58q13 19 27 33.5t34 27.5q-41 9 -82 9q-121 0 -127 -101q-3 -35 10 -67l-54 -60q-6 22 -8 43t-1 37q6 86 71 143q55 45 178 45q6 0 18.5 -0.5t25.5 -1.5t24 -2t14 -1h25q-14 -23 -24.5 -67.5t-13.5 -108.5q-3 -55 -2.5 -110
t4.5 -102q1 -8 2 -25t3 -25q1 -2 1.5 -3.5t8.5 -2.5zM250 636q-3 -33 2 -51.5t13 -27.5t16.5 -11t13.5 -2q14 0 31 10.5t34 32.5q17 23 25.5 42t10.5 35q0 7 -2.5 10t-4.5 5q-4 2 -7 2q-6 -20 -14 -38q-8 -15 -18.5 -29.5t-25.5 -20.5q-7 -4 -15 -2t-10 5q-6 7 -7.5 18.5
t-1 24t2 25t1.5 21.5zM335 652q-37 31 -56 104l28 31q22 -71 56 -100z" />
    <glyph glyph-name="uni1EB1" unicode="&#x103;&#x300;" horiz-adv-x="361" 
d="M235 290q-21 14 -48 14q-19 0 -35.5 -15t-30.5 -43q-16 -29 -25 -66t-12 -79t15 -42q22 0 60 47q25 29 42 68t25 79zM204 130l-9 -13.5t-17 -23.5t-21 -26.5t-20 -23.5q-40 -43 -71 -43q-21 0 -29.5 21.5t-6.5 59.5q8 106 69 186q62 79 140 79q15 0 29 -2.5t25 -7.5
q0 -1 -4 -12.5t-9 -39.5l-29 -154q-9 -44 -10 -55q-1 -8 -1 -11q-2 -11 2 -11q19 0 51 68q12 -11 12 -17q-1 -15 -28 -52q-19 -25 -36 -38.5t-31 -13.5q-11 0 -16.5 11.5t-5.5 25.5q0 4 1 13.5t3 17.5zM182 492q-3 -33 2 -51.5t13 -27.5t16.5 -11t13.5 -2q14 0 31 10.5
t34 32.5q17 23 25.5 42t10.5 35q0 7 -2.5 10t-4.5 5q-4 2 -7 2q-6 -20 -14 -38q-8 -15 -18.5 -29.5t-25.5 -20.5q-7 -4 -15 -2t-10 5q-6 7 -7.5 18.5t-1 24t2 25t1.5 21.5zM267 508q-37 31 -56 104l28 31q22 -71 56 -100z" />
    <glyph glyph-name="uni1EB2" unicode="&#x102;&#x309;" horiz-adv-x="446" 
d="M208 219h94q0 29 1.5 52t3.5 40q1 10 4 31t6.5 43t7 39.5t5.5 20.5q-18 -8 -34 -31t-31 -53.5t-27.5 -64t-22.5 -62.5zM375 54q7 -1 14 1.5t10 4.5q10 5 18 11t13 6q10 -2 1 -17t-22.5 -26.5t-28 -19t-27.5 -11t-22 -0.5q-17 9 -22 40q-5 34 -6.5 71t-1.5 73
q-4 -3 -9 -6.5t-8 -6.5h-92q-13 -34 -30.5 -63t-36.5 -47l-20 -17q18 -5 30 -5q2 0 8 2t10 4q3 2 7 2.5t6 -1.5t0.5 -7t-8.5 -12q-18 -20 -31 -25.5t-20 -3.5q-3 0 -9 2q-8 2 -21 5.5t-22 4.5l-6 -2t-13 -4.5t-12 -4.5l-5 -2q-3 0 -2 5t4 11t7.5 12t7.5 8l17 5q25 10 42 30
t25 35q8 17 23 52t30 76q21 64 37.5 101t30.5 58q13 19 27 33.5t34 27.5q-41 9 -82 9q-121 0 -127 -101q-3 -35 10 -67l-54 -60q-6 22 -8 43t-1 37q6 86 71 143q55 45 178 45q6 0 18.5 -0.5t25.5 -1.5t24 -2t14 -1h25q-14 -23 -24.5 -67.5t-13.5 -108.5q-3 -55 -2.5 -110
t4.5 -102q1 -8 2 -25t3 -25q1 -2 1.5 -3.5t8.5 -2.5zM273 627q-3 -33 2 -51.5t13 -27.5t16.5 -11t13.5 -2q14 0 34 8.5t37 30.5q17 23 25.5 41t10.5 32q0 7 -2.5 10t-4.5 5q-4 2 -7 2q-6 -21 -15 -38q-8 -14 -19.5 -27.5t-27.5 -16.5q-9 -2 -17 0t-10 5q-12 15 -12.5 39
t-0.5 39zM404 692q-11 -14 -16 -20.5t-7 -15.5l-47 -12q2 13 12 26.5t22 26.5q9 10 13.5 22t4 22t-6 17.5t-17.5 8.5q-27 3 -49 -24l-15 11q8 16 26.5 27t42.5 13q15 1 30 -5.5t23 -19.5t5.5 -32.5t-21.5 -44.5z" />
    <glyph glyph-name="uni1EB3" unicode="&#x103;&#x309;" horiz-adv-x="340" 
d="M235 290q-21 14 -48 14q-19 0 -35.5 -15t-30.5 -43q-16 -29 -25 -66t-12 -79t15 -42q22 0 60 47q25 29 42 68t25 79zM204 130l-9 -13.5t-17 -23.5t-21 -26.5t-20 -23.5q-40 -43 -71 -43q-21 0 -29.5 21.5t-6.5 59.5q8 106 69 186q62 79 140 79q15 0 29 -2.5t25 -7.5
q0 -1 -4 -12.5t-9 -39.5l-29 -154q-9 -44 -10 -55q-1 -8 -1 -11q-2 -11 2 -11q19 0 51 68q12 -11 12 -17q-1 -15 -28 -52q-19 -25 -36 -38.5t-31 -13.5q-11 0 -16.5 11.5t-5.5 25.5q0 4 1 13.5t3 17.5zM186 492q-3 -33 2 -51.5t13 -27.5t16.5 -11t13.5 -2q14 0 34 8.5
t37 30.5q17 23 25.5 41t10.5 32q0 7 -2.5 10t-4.5 5q-4 2 -7 2q-6 -21 -15 -38q-8 -14 -19.5 -27.5t-27.5 -16.5q-9 -2 -17 0t-10 5q-12 15 -12.5 39t-0.5 39zM317 557q-11 -14 -16 -20.5t-7 -15.5l-47 -12q2 13 12 26.5t22 26.5q9 10 13.5 22t4 22t-6 17.5t-17.5 8.5
q-27 3 -49 -24l-15 11q8 16 26.5 27t42.5 13q15 1 30 -5.5t23 -19.5t5.5 -32.5t-21.5 -44.5z" />
    <glyph glyph-name="uni1EB4" unicode="&#x102;&#x303;" horiz-adv-x="446" 
d="M208 219h94q0 29 1.5 52t3.5 40q1 10 4 31t6.5 43t7 39.5t5.5 20.5q-18 -8 -34 -31t-31 -53.5t-27.5 -64t-22.5 -62.5zM375 54q7 -1 14 1.5t10 4.5q10 5 18 11t13 6q10 -2 1 -17t-22.5 -26.5t-28 -19t-27.5 -11t-22 -0.5q-17 9 -22 40q-5 34 -6.5 71t-1.5 73
q-4 -3 -9 -6.5t-8 -6.5h-92q-13 -34 -30.5 -63t-36.5 -47l-20 -17q18 -5 30 -5q2 0 8 2t10 4q3 2 7 2.5t6 -1.5t0.5 -7t-8.5 -12q-18 -20 -31 -25.5t-20 -3.5q-3 0 -9 2q-8 2 -21 5.5t-22 4.5l-6 -2t-13 -4.5t-12 -4.5l-5 -2q-3 0 -2 5t4 11t7.5 12t7.5 8l17 5q25 10 42 30
t25 35q8 17 23 52t30 76q21 64 37.5 101t30.5 58q13 19 27 33.5t34 27.5q-41 9 -82 9q-121 0 -127 -101q-3 -35 10 -67l-54 -60q-6 22 -8 43t-1 37q6 86 71 143q55 45 178 45q6 0 18.5 -0.5t25.5 -1.5t24 -2t14 -1h25q-14 -23 -24.5 -67.5t-13.5 -108.5q-3 -55 -2.5 -110
t4.5 -102q1 -8 2 -25t3 -25q1 -2 1.5 -3.5t8.5 -2.5zM285 670q0 -9 -1.5 -21.5t-2 -25t1 -24t7.5 -18.5q2 -3 10 -5t15 2q15 6 25.5 20.5t18.5 29.5q8 18 14 38q3 0 7 -2q2 -2 4.5 -5t2.5 -10q-2 -16 -10.5 -35t-25.5 -42q-17 -22 -34 -32.5t-31 -10.5q-5 0 -13.5 2
t-16.5 11t-13 27.5t-2 51.5zM377 749q3 0 5 -2q3 -4 5 -11v-2q-1 -18 -22 -47q-20 -29 -34 -29q-9 0 -20 8l-33 26q-10 8 -16 8q-15 0 -31 -41l-1 -3l-2 2q-8 4 -8 14q2 22 21 47q20 28 36 28q8 0 16 -7l35 -27q8 -7 16 -7q5 0 13 7.5t19 33.5z" />
    <glyph glyph-name="uni1EB5" unicode="&#x103;&#x303;" horiz-adv-x="340" 
d="M235 290q-21 14 -48 14q-19 0 -35.5 -15t-30.5 -43q-16 -29 -25 -66t-12 -79t15 -42q22 0 60 47q25 29 42 68t25 79zM204 130l-9 -13.5t-17 -23.5t-21 -26.5t-20 -23.5q-40 -43 -71 -43q-21 0 -29.5 21.5t-6.5 59.5q8 106 69 186q62 79 140 79q15 0 29 -2.5t25 -7.5
q0 -1 -4 -12.5t-9 -39.5l-29 -154q-9 -44 -10 -55q-1 -8 -1 -11q-2 -11 2 -11q19 0 51 68q12 -11 12 -17q-1 -15 -28 -52q-19 -25 -36 -38.5t-31 -13.5q-11 0 -16.5 11.5t-5.5 25.5q0 4 1 13.5t3 17.5zM205 527q0 -9 -1.5 -21.5t-2 -25t1 -24t7.5 -18.5q2 -3 10 -5t15 2
q15 6 25.5 20.5t18.5 29.5q8 18 14 38q3 0 7 -2q2 -2 4.5 -5t2.5 -10q-2 -16 -10.5 -35t-25.5 -42q-17 -22 -34 -32.5t-31 -10.5q-5 0 -13.5 2t-16.5 11t-13 27.5t-2 51.5zM297 606q3 0 5 -2q3 -4 5 -11v-2q-1 -18 -22 -47q-20 -29 -34 -29q-9 0 -20 8l-33 26q-10 8 -16 8
q-15 0 -31 -41l-1 -3l-2 2q-8 4 -8 14q2 22 21 47q20 28 36 28q8 0 16 -7l35 -27q8 -7 16 -7q5 0 13 7.5t19 33.5z" />
    <glyph glyph-name="uni1EB6" unicode="&#x102;&#x323;" horiz-adv-x="446" 
d="M208 219h94q0 29 1.5 52t3.5 40q1 10 4 31t6.5 43t7 39.5t5.5 20.5q-18 -8 -34 -31t-31 -53.5t-27.5 -64t-22.5 -62.5zM375 54q7 -1 14 1.5t10 4.5q10 5 18 11t13 6q10 -2 1 -17t-22.5 -26.5t-28 -19t-27.5 -11t-22 -0.5q-17 9 -22 40q-5 34 -6.5 71t-1.5 73
q-4 -3 -9 -6.5t-8 -6.5h-92q-13 -34 -30.5 -63t-36.5 -47l-20 -17q18 -5 30 -5q2 0 8 2t10 4q3 2 7 2.5t6 -1.5t0.5 -7t-8.5 -12q-18 -20 -31 -25.5t-20 -3.5q-3 0 -9 2q-8 2 -21 5.5t-22 4.5l-6 -2t-13 -4.5t-12 -4.5l-5 -2q-3 0 -2 5t4 11t7.5 12t7.5 8l17 5q25 10 42 30
t25 35q8 17 23 52t30 76q21 64 37.5 101t30.5 58q13 19 27 33.5t34 27.5q-41 9 -82 9q-121 0 -127 -101q-3 -35 10 -67l-54 -60q-6 22 -8 43t-1 37q6 86 71 143q55 45 178 45q6 0 18.5 -0.5t25.5 -1.5t24 -2t14 -1h25q-14 -23 -24.5 -67.5t-13.5 -108.5q-3 -55 -2.5 -110
t4.5 -102q1 -8 2 -25t3 -25q1 -2 1.5 -3.5t8.5 -2.5zM223 -119q-3 14 -7.5 23t-9.5 14q-5 6 -11 10l44 45q5 -5 10 -12q5 -6 9.5 -14t8.5 -19zM295 676q0 -9 -1.5 -21.5t-2 -25t1 -24t7.5 -18.5q2 -3 10 -5t15 2q15 6 25.5 20.5t18.5 29.5q8 18 14 38q3 0 7 -2q2 -2 4.5 -5
t2.5 -10q-2 -16 -10.5 -35t-25.5 -42q-17 -22 -34 -32.5t-31 -10.5q-5 0 -13.5 2t-16.5 11t-13 27.5t-2 51.5z" />
    <glyph glyph-name="uni1EB7" unicode="&#x103;&#x323;" horiz-adv-x="340" 
d="M235 290q-21 14 -48 14q-19 0 -35.5 -15t-30.5 -43q-16 -29 -25 -66t-12 -79t15 -42q22 0 60 47q25 29 42 68t25 79zM204 130l-9 -13.5t-17 -23.5t-21 -26.5t-20 -23.5q-40 -43 -71 -43q-21 0 -29.5 21.5t-6.5 59.5q8 106 69 186q62 79 140 79q15 0 29 -2.5t25 -7.5
q0 -1 -4 -12.5t-9 -39.5l-29 -154q-9 -44 -10 -55q-1 -8 -1 -11q-2 -11 2 -11q19 0 51 68q12 -11 12 -17q-1 -15 -28 -52q-19 -25 -36 -38.5t-31 -13.5q-11 0 -16.5 11.5t-5.5 25.5q0 4 1 13.5t3 17.5zM132 -119q-3 14 -7.5 23t-9.5 14q-5 6 -11 10l44 45q5 -5 10 -12
q5 -6 9.5 -14t8.5 -19zM205 541q0 -9 -1.5 -21.5t-2 -25t1 -24t7.5 -18.5q2 -3 10 -5t15 2q15 6 25.5 20.5t18.5 29.5q8 18 14 38q3 0 7 -2q2 -2 4.5 -5t2.5 -10q-2 -16 -10.5 -35t-25.5 -42q-17 -22 -34 -32.5t-31 -10.5q-5 0 -13.5 2t-16.5 11t-13 27.5t-2 51.5z" />
    <glyph glyph-name="uni1EB8" unicode="E&#x323;" horiz-adv-x="423" 
d="M431 500q7 2 6.5 -5t-6.5 -14q-10 -12 -25.5 -25.5t-34.5 -12.5q-32 1 -63 2t-63 2q-7 -42 -12.5 -81t-12.5 -81h50q21 0 44.5 2t48.5 6q-42 -58 -77 -58q-5 0 -10 0.5t-10 1.5q-6 1 -14.5 1t-16.5 1h-5h-7.5t-10.5 1q-8 -40 -14.5 -80.5t-14.5 -80.5q-1 -7 -4 -11.5
t-5 -9.5q-2 -2 -1 -1.5t-1 -1.5q8 -2 27 -5t55 -3q11 0 23.5 0.5t26.5 1.5q4 0 11.5 2t15 4.5t14 4.5t8.5 3h-1q5 3 11 -1t-6 -18q-14 -16 -34.5 -28.5t-30.5 -13.5q-5 0 -15 -0.5t-22 -0.5q-17 0 -33.5 0.5t-23.5 1.5q-5 0 -16 1.5t-22 3.5q-6 1 -13 1.5t-13 1.5t-10 1.5
t-2 0.5q-3 -1 -9.5 -3t-12.5 -4q-10 -4 -14 -4q-3 0 -2.5 4.5t3 10.5t6 11.5t6.5 8.5q9 6 14.5 11.5t10 14t8 21.5t6.5 34l19 107q9 56 17.5 111.5t16.5 110.5h-4q-52 0 -83 -27q-31 -30 -34 -74q-3 -27 8 -59l-57 -63q-3 17 -4 32.5t0 29.5q4 49 24 89.5t54 71.5
q50 44 136 44l155 1q8 0 16 1q16 2 28 7h1zM215 -72q-4 11 -8.5 19t-9.5 14q-5 7 -10 12l-44 -45q6 -4 11 -10q5 -5 9.5 -14t7.5 -23z" />
    <glyph glyph-name="uni1EB9" unicode="e&#x323;" horiz-adv-x="256" 
d="M114 265q-10 -17 -18 -38.5t-12 -47.5q4 -2 10 -2q33 0 61 26q11 11 19 26t10 33q3 37 -26 37q-23 0 -44 -34zM124 54q23 0 42 19.5t38 57.5q13 -12 12 -20q-2 -8 -8 -18.5t-14 -21.5q-53 -70 -102 -70q-14 0 -26.5 8t-21.5 22t-12.5 33t-1.5 41q6 80 60 163
q58 84 104 84q39 0 36 -49q-2 -26 -15 -54t-33 -51t-46.5 -40t-54.5 -27q0 -77 43 -77zM160 -72q-4 11 -8.5 19t-9.5 14q-5 7 -10 12l-44 -45q6 -4 11 -10q5 -5 9.5 -14t7.5 -23z" />
    <glyph glyph-name="uni1EBA" unicode="E&#x309;" horiz-adv-x="423" 
d="M431 500q7 2 6.5 -5t-6.5 -14q-10 -12 -25.5 -25.5t-34.5 -12.5q-32 1 -63 2t-63 2q-7 -42 -12.5 -81t-12.5 -81h50q21 0 44.5 2t48.5 6q-42 -58 -77 -58q-5 0 -10 0.5t-10 1.5q-6 1 -14.5 1t-16.5 1h-5h-7.5t-10.5 1q-8 -40 -14.5 -80.5t-14.5 -80.5q-1 -7 -4 -11.5
t-5 -9.5q-2 -2 -1 -1.5t-1 -1.5q8 -2 27 -5t55 -3q11 0 23.5 0.5t26.5 1.5q4 0 11.5 2t15 4.5t14 4.5t8.5 3h-1q5 3 11 -1t-6 -18q-14 -16 -34.5 -28.5t-30.5 -13.5q-5 0 -15 -0.5t-22 -0.5q-17 0 -33.5 0.5t-23.5 1.5q-5 0 -16 1.5t-22 3.5q-6 1 -13 1.5t-13 1.5t-10 1.5
t-2 0.5q-3 -1 -9.5 -3t-12.5 -4q-10 -4 -14 -4q-3 0 -2.5 4.5t3 10.5t6 11.5t6.5 8.5q9 6 14.5 11.5t10 14t8 21.5t6.5 34l19 107q9 56 17.5 111.5t16.5 110.5h-4q-52 0 -83 -27q-31 -30 -34 -74q-3 -27 8 -59l-57 -63q-3 17 -4 32.5t0 29.5q4 49 24 89.5t54 71.5
q50 44 136 44l155 1q8 0 16 1q16 2 28 7h1zM313 581q-11 -14 -16 -20.5t-7 -15.5l-47 -12q2 13 12 26.5t22 26.5q9 10 13.5 22t4 22t-6 17.5t-17.5 8.5q-27 3 -49 -24l-15 11q8 16 26.5 27t42.5 13q15 1 30 -5.5t23 -19.5t5.5 -32.5t-21.5 -44.5z" />
    <glyph glyph-name="uni1EBB" unicode="e&#x309;" horiz-adv-x="261" 
d="M114 265q-10 -17 -18 -38.5t-12 -47.5q4 -2 10 -2q33 0 61 26q11 11 19 26t10 33q3 37 -26 37q-23 0 -44 -34zM124 54q23 0 42 19.5t38 57.5q13 -12 12 -20q-2 -8 -8 -18.5t-14 -21.5q-53 -70 -102 -70q-14 0 -26.5 8t-21.5 22t-12.5 33t-1.5 41q6 80 60 163
q58 84 104 84q39 0 36 -49q-2 -26 -15 -54t-33 -51t-46.5 -40t-54.5 -27q0 -77 43 -77zM221 426q-11 -14 -16 -20.5t-7 -15.5l-47 -12q2 13 12 26.5t22 26.5q9 10 13.5 22t4 22t-6 17.5t-17.5 8.5q-27 3 -49 -24l-15 11q8 16 26.5 27t42.5 13q15 1 30 -5.5t23 -19.5
t5.5 -32.5t-21.5 -44.5z" />
    <glyph glyph-name="uni1EBC" unicode="E&#x303;" horiz-adv-x="423" 
d="M431 500q7 2 6.5 -5t-6.5 -14q-10 -12 -25.5 -25.5t-34.5 -12.5q-32 1 -63 2t-63 2q-7 -42 -12.5 -81t-12.5 -81h50q21 0 44.5 2t48.5 6q-42 -58 -77 -58q-5 0 -10 0.5t-10 1.5q-6 1 -14.5 1t-16.5 1h-5h-7.5t-10.5 1q-8 -40 -14.5 -80.5t-14.5 -80.5q-1 -7 -4 -11.5
t-5 -9.5q-2 -2 -1 -1.5t-1 -1.5q8 -2 27 -5t55 -3q11 0 23.5 0.5t26.5 1.5q4 0 11.5 2t15 4.5t14 4.5t8.5 3h-1q5 3 11 -1t-6 -18q-14 -16 -34.5 -28.5t-30.5 -13.5q-5 0 -15 -0.5t-22 -0.5q-17 0 -33.5 0.5t-23.5 1.5q-5 0 -16 1.5t-22 3.5q-6 1 -13 1.5t-13 1.5t-10 1.5
t-2 0.5q-3 -1 -9.5 -3t-12.5 -4q-10 -4 -14 -4q-3 0 -2.5 4.5t3 10.5t6 11.5t6.5 8.5q9 6 14.5 11.5t10 14t8 21.5t6.5 34l19 107q9 56 17.5 111.5t16.5 110.5h-4q-52 0 -83 -27q-31 -30 -34 -74q-3 -27 8 -59l-57 -63q-3 17 -4 32.5t0 29.5q4 49 24 89.5t54 71.5
q50 44 136 44l155 1q8 0 16 1q16 2 28 7h1zM339 622q3 0 5 -2q3 -4 5 -11v-2q-1 -18 -22 -47q-20 -29 -34 -29q-9 0 -20 8l-33 26q-10 8 -16 8q-15 0 -31 -41l-1 -3l-2 2q-8 4 -8 14q2 22 21 47q20 28 36 28q8 0 16 -7l35 -27q8 -7 16 -7q5 0 13 7.5t19 33.5z" />
    <glyph glyph-name="uni1EBD" unicode="e&#x303;" horiz-adv-x="265" 
d="M114 265q-10 -17 -18 -38.5t-12 -47.5q4 -2 10 -2q33 0 61 26q11 11 19 26t10 33q3 37 -26 37q-23 0 -44 -34zM124 54q23 0 42 19.5t38 57.5q13 -12 12 -20q-2 -8 -8 -18.5t-14 -21.5q-53 -70 -102 -70q-14 0 -26.5 8t-21.5 22t-12.5 33t-1.5 41q6 80 60 163
q58 84 104 84q39 0 36 -49q-2 -26 -15 -54t-33 -51t-46.5 -40t-54.5 -27q0 -77 43 -77zM230 483q3 0 5 -2q3 -4 5 -11v-2q-1 -18 -22 -47q-20 -29 -34 -29q-9 0 -20 8l-33 26q-10 8 -16 8q-15 0 -31 -41l-1 -3l-2 2q-8 4 -8 14q2 22 21 47q20 28 36 28q8 0 16 -7l35 -27
q8 -7 16 -7q5 0 13 7.5t19 33.5z" />
    <glyph glyph-name="uni1EBE" unicode="&#xca;&#x301;" horiz-adv-x="446" 
d="M431 500q7 2 6.5 -5t-6.5 -14q-10 -12 -25.5 -25.5t-34.5 -12.5q-32 1 -63 2t-63 2q-7 -42 -12.5 -81t-12.5 -81h50q21 0 44.5 2t48.5 6q-42 -58 -77 -58q-5 0 -10 0.5t-10 1.5q-6 1 -14.5 1t-16.5 1h-5h-7.5t-10.5 1q-8 -40 -14.5 -80.5t-14.5 -80.5q-1 -7 -4 -11.5
t-5 -9.5q-2 -2 -1 -1.5t-1 -1.5q8 -2 27 -5t55 -3q11 0 23.5 0.5t26.5 1.5q4 0 11.5 2t15 4.5t14 4.5t8.5 3h-1q5 3 11 -1t-6 -18q-14 -16 -34.5 -28.5t-30.5 -13.5q-5 0 -15 -0.5t-22 -0.5q-17 0 -33.5 0.5t-23.5 1.5q-5 0 -16 1.5t-22 3.5q-6 1 -13 1.5t-13 1.5t-10 1.5
t-2 0.5q-3 -1 -9.5 -3t-12.5 -4q-10 -4 -14 -4q-3 0 -2.5 4.5t3 10.5t6 11.5t6.5 8.5q9 6 14.5 11.5t10 14t8 21.5t6.5 34l19 107q9 56 17.5 111.5t16.5 110.5h-4q-52 0 -83 -27q-31 -30 -34 -74q-3 -27 8 -59l-57 -63q-3 17 -4 32.5t0 29.5q4 49 24 89.5t54 71.5
q50 44 136 44l155 1q8 0 16 1q16 2 28 7h1zM306 527q-7 10 -14 23q-6 11 -12 26.5t-10 33.5q-14 -23 -28.5 -39.5t-25.5 -26.5q-13 -12 -26 -19l22 55q9 5 19 13q8 7 17 17t17 25l31 33q3 -17 8 -35q5 -15 12.5 -33t20.5 -35zM452 747q2 -3 4 -7q4 -8 4 -14
q-5 -41 -131 -118l-7 -4l45 85q16 8 32 17q13 8 27 18t24 21z" />
    <glyph glyph-name="uni1EBF" unicode="&#xea;&#x301;" horiz-adv-x="271" 
d="M114 265q-10 -17 -18 -38.5t-12 -47.5q4 -2 10 -2q33 0 61 26q11 11 19 26t10 33q3 37 -26 37q-23 0 -44 -34zM124 54q23 0 42 19.5t38 57.5q13 -12 12 -20q-2 -8 -8 -18.5t-14 -21.5q-53 -70 -102 -70q-14 0 -26.5 8t-21.5 22t-12.5 33t-1.5 41q6 80 60 163
q58 84 104 84q39 0 36 -49q-2 -26 -15 -54t-33 -51t-46.5 -40t-54.5 -27q0 -77 43 -77zM224 380q-7 10 -14 23q-6 11 -12 26.5t-10 33.5q-14 -23 -28.5 -39.5t-25.5 -26.5q-13 -12 -26 -19l22 55q9 5 19 13q8 7 17 17t17 25l31 33q3 -17 8 -35q5 -15 12.5 -33t20.5 -35z
M370 600q2 -3 4 -7q4 -8 4 -14q-5 -41 -131 -118l-7 -4l45 85q16 8 32 17q13 8 27 18t24 21z" />
    <glyph glyph-name="uni1EC0" unicode="&#xca;&#x300;" horiz-adv-x="423" 
d="M431 500q7 2 6.5 -5t-6.5 -14q-10 -12 -25.5 -25.5t-34.5 -12.5q-32 1 -63 2t-63 2q-7 -42 -12.5 -81t-12.5 -81h50q21 0 44.5 2t48.5 6q-42 -58 -77 -58q-5 0 -10 0.5t-10 1.5q-6 1 -14.5 1t-16.5 1h-5h-7.5t-10.5 1q-8 -40 -14.5 -80.5t-14.5 -80.5q-1 -7 -4 -11.5
t-5 -9.5q-2 -2 -1 -1.5t-1 -1.5q8 -2 27 -5t55 -3q11 0 23.5 0.5t26.5 1.5q4 0 11.5 2t15 4.5t14 4.5t8.5 3h-1q5 3 11 -1t-6 -18q-14 -16 -34.5 -28.5t-30.5 -13.5q-5 0 -15 -0.5t-22 -0.5q-17 0 -33.5 0.5t-23.5 1.5q-5 0 -16 1.5t-22 3.5q-6 1 -13 1.5t-13 1.5t-10 1.5
t-2 0.5q-3 -1 -9.5 -3t-12.5 -4q-10 -4 -14 -4q-3 0 -2.5 4.5t3 10.5t6 11.5t6.5 8.5q9 6 14.5 11.5t10 14t8 21.5t6.5 34l19 107q9 56 17.5 111.5t16.5 110.5h-4q-52 0 -83 -27q-31 -30 -34 -74q-3 -27 8 -59l-57 -63q-3 17 -4 32.5t0 29.5q4 49 24 89.5t54 71.5
q50 44 136 44l155 1q8 0 16 1q16 2 28 7h1zM341 564q-13 17 -20.5 35t-12.5 33q-5 18 -8 35l-31 -33q-8 -15 -17 -25t-17 -17q-10 -8 -19 -13l-22 -55q13 7 26 19q11 10 25.5 26.5t28.5 39.5q4 -18 10 -33.5t12 -26.5q7 -13 14 -23zM370 637q-37 31 -56 104l28 31
q22 -71 56 -100z" />
    <glyph glyph-name="uni1EC1" unicode="&#xea;&#x300;" horiz-adv-x="287" 
d="M114 265q-10 -17 -18 -38.5t-12 -47.5q4 -2 10 -2q33 0 61 26q11 11 19 26t10 33q3 37 -26 37q-23 0 -44 -34zM124 54q23 0 42 19.5t38 57.5q13 -12 12 -20q-2 -8 -8 -18.5t-14 -21.5q-53 -70 -102 -70q-14 0 -26.5 8t-21.5 22t-12.5 33t-1.5 41q6 80 60 163
q58 84 104 84q39 0 36 -49q-2 -26 -15 -54t-33 -51t-46.5 -40t-54.5 -27q0 -77 43 -77zM262 415q-13 17 -20.5 35t-12.5 33q-5 18 -8 35l-31 -33q-8 -15 -17 -25t-17 -17q-10 -8 -19 -13l-22 -55q13 7 26 19q11 10 25.5 26.5t28.5 39.5q4 -18 10 -33.5t12 -26.5
q7 -13 14 -23zM293 477q-37 31 -56 104l28 31q22 -71 56 -100z" />
    <glyph glyph-name="uni1EC2" unicode="&#xca;&#x309;" horiz-adv-x="423" 
d="M431 500q7 2 6.5 -5t-6.5 -14q-10 -12 -25.5 -25.5t-34.5 -12.5q-32 1 -63 2t-63 2q-7 -42 -12.5 -81t-12.5 -81h50q21 0 44.5 2t48.5 6q-42 -58 -77 -58q-5 0 -10 0.5t-10 1.5q-6 1 -14.5 1t-16.5 1h-5h-7.5t-10.5 1q-8 -40 -14.5 -80.5t-14.5 -80.5q-1 -7 -4 -11.5
t-5 -9.5q-2 -2 -1 -1.5t-1 -1.5q8 -2 27 -5t55 -3q11 0 23.5 0.5t26.5 1.5q4 0 11.5 2t15 4.5t14 4.5t8.5 3h-1q5 3 11 -1t-6 -18q-14 -16 -34.5 -28.5t-30.5 -13.5q-5 0 -15 -0.5t-22 -0.5q-17 0 -33.5 0.5t-23.5 1.5q-5 0 -16 1.5t-22 3.5q-6 1 -13 1.5t-13 1.5t-10 1.5
t-2 0.5q-3 -1 -9.5 -3t-12.5 -4q-10 -4 -14 -4q-3 0 -2.5 4.5t3 10.5t6 11.5t6.5 8.5q9 6 14.5 11.5t10 14t8 21.5t6.5 34l19 107q9 56 17.5 111.5t16.5 110.5h-4q-52 0 -83 -27q-31 -30 -34 -74q-3 -27 8 -59l-57 -63q-3 17 -4 32.5t0 29.5q4 49 24 89.5t54 71.5
q50 44 136 44l155 1q8 0 16 1q16 2 28 7h1zM316 569q-13 17 -20.5 35t-12.5 33q-5 18 -8 35l-31 -33q-8 -15 -17 -25t-17 -17q-10 -8 -19 -13l-22 -55q13 7 26 19q11 10 25.5 26.5t28.5 39.5q4 -18 10 -33.5t12 -26.5q7 -13 14 -23zM391 650q-11 -14 -16 -20.5t-7 -15.5
l-47 -12q2 13 12 26.5t22 26.5q9 10 13.5 22t4 22t-6 17.5t-17.5 8.5q-27 3 -49 -24l-15 11q8 16 26.5 27t42.5 13q15 1 30 -5.5t23 -19.5t5.5 -32.5t-21.5 -44.5z" />
    <glyph glyph-name="uni1EC3" unicode="&#xea;&#x309;" horiz-adv-x="270" 
d="M114 265q-10 -17 -18 -38.5t-12 -47.5q4 -2 10 -2q33 0 61 26q11 11 19 26t10 33q3 37 -26 37q-23 0 -44 -34zM124 54q23 0 42 19.5t38 57.5q13 -12 12 -20q-2 -8 -8 -18.5t-14 -21.5q-53 -70 -102 -70q-14 0 -26.5 8t-21.5 22t-12.5 33t-1.5 41q6 80 60 163
q58 84 104 84q39 0 36 -49q-2 -26 -15 -54t-33 -51t-46.5 -40t-54.5 -27q0 -77 43 -77zM249 423q-13 17 -20.5 35t-12.5 33q-5 18 -8 35l-31 -33q-8 -15 -17 -25t-17 -17q-10 -8 -19 -13l-22 -55q13 7 26 19q11 10 25.5 26.5t28.5 39.5q4 -18 10 -33.5t12 -26.5
q7 -13 14 -23zM324 504q-11 -14 -16 -20.5t-7 -15.5l-47 -12q2 13 12 26.5t22 26.5q9 10 13.5 22t4 22t-6 17.5t-17.5 8.5q-27 3 -49 -24l-15 11q8 16 26.5 27t42.5 13q15 1 30 -5.5t23 -19.5t5.5 -32.5t-21.5 -44.5z" />
    <glyph glyph-name="uni1EC4" unicode="&#xca;&#x303;" horiz-adv-x="423" 
d="M431 500q7 2 6.5 -5t-6.5 -14q-10 -12 -25.5 -25.5t-34.5 -12.5q-32 1 -63 2t-63 2q-7 -42 -12.5 -81t-12.5 -81h50q21 0 44.5 2t48.5 6q-42 -58 -77 -58q-5 0 -10 0.5t-10 1.5q-6 1 -14.5 1t-16.5 1h-5h-7.5t-10.5 1q-8 -40 -14.5 -80.5t-14.5 -80.5q-1 -7 -4 -11.5
t-5 -9.5q-2 -2 -1 -1.5t-1 -1.5q8 -2 27 -5t55 -3q11 0 23.5 0.5t26.5 1.5q4 0 11.5 2t15 4.5t14 4.5t8.5 3h-1q5 3 11 -1t-6 -18q-14 -16 -34.5 -28.5t-30.5 -13.5q-5 0 -15 -0.5t-22 -0.5q-17 0 -33.5 0.5t-23.5 1.5q-5 0 -16 1.5t-22 3.5q-6 1 -13 1.5t-13 1.5t-10 1.5
t-2 0.5q-3 -1 -9.5 -3t-12.5 -4q-10 -4 -14 -4q-3 0 -2.5 4.5t3 10.5t6 11.5t6.5 8.5q9 6 14.5 11.5t10 14t8 21.5t6.5 34l19 107q9 56 17.5 111.5t16.5 110.5h-4q-52 0 -83 -27q-31 -30 -34 -74q-3 -27 8 -59l-57 -63q-3 17 -4 32.5t0 29.5q4 49 24 89.5t54 71.5
q50 44 136 44l155 1q8 0 16 1q16 2 28 7h1zM375 775q3 0 5 -2q3 -4 5 -11v-2q-1 -18 -22 -47q-20 -29 -34 -29q-9 0 -20 8l-33 26q-10 8 -16 8q-15 0 -31 -41l-1 -3l-2 2q-8 4 -8 14q2 22 21 47q20 28 36 28q8 0 16 -7l35 -27q8 -7 16 -7q5 0 13 7.5t19 33.5zM304 540
q-7 10 -14 23q-6 11 -12 26.5t-10 33.5q-14 -23 -28.5 -39.5t-25.5 -26.5q-13 -12 -26 -19l22 55q9 5 19 13q8 7 17 17t17 25l31 33q3 -17 8 -35q5 -15 12.5 -33t20.5 -35z" />
    <glyph glyph-name="uni1EC5" unicode="&#xea;&#x303;" horiz-adv-x="264" 
d="M114 265q-10 -17 -18 -38.5t-12 -47.5q4 -2 10 -2q33 0 61 26q11 11 19 26t10 33q3 37 -26 37q-23 0 -44 -34zM124 54q23 0 42 19.5t38 57.5q13 -12 12 -20q-2 -8 -8 -18.5t-14 -21.5q-53 -70 -102 -70q-14 0 -26.5 8t-21.5 22t-12.5 33t-1.5 41q6 80 60 163
q58 84 104 84q39 0 36 -49q-2 -26 -15 -54t-33 -51t-46.5 -40t-54.5 -27q0 -77 43 -77zM231 368q-7 10 -14 23q-6 11 -12 26.5t-10 33.5q-14 -23 -28.5 -39.5t-25.5 -26.5q-13 -12 -26 -19l22 55q9 5 19 13q8 7 17 17t17 25l31 33q3 -17 8 -35q5 -15 12.5 -33t20.5 -35z
M307 601q3 0 5 -2q3 -4 5 -11l-1 -2q0 -18 -22 -47q-20 -29 -34 -29q-9 0 -19 8l-34 27q-9 7 -16 7q-15 0 -30 -41l-1 -3l-3 2q-2 2 -5 5.5t-3 8.5q1 20 22 47q20 29 36 29q7 0 15 -8l18 -14q8 -6 18 -13q9 -7 15 -7q5 0 13.5 7.5t19.5 33.5z" />
    <glyph glyph-name="uni1EC6" unicode="&#xca;&#x323;" horiz-adv-x="423" 
d="M431 500q7 2 6.5 -5t-6.5 -14q-10 -12 -25.5 -25.5t-34.5 -12.5q-32 1 -63 2t-63 2q-7 -42 -12.5 -81t-12.5 -81h50q21 0 44.5 2t48.5 6q-42 -58 -77 -58q-5 0 -10 0.5t-10 1.5q-6 1 -14.5 1t-16.5 1h-5h-7.5t-10.5 1q-8 -40 -14.5 -80.5t-14.5 -80.5q-1 -7 -4 -11.5
t-5 -9.5q-2 -2 -1 -1.5t-1 -1.5q8 -2 27 -5t55 -3q11 0 23.5 0.5t26.5 1.5q4 0 11.5 2t15 4.5t14 4.5t8.5 3h-1q5 3 11 -1t-6 -18q-14 -16 -34.5 -28.5t-30.5 -13.5q-5 0 -15 -0.5t-22 -0.5q-17 0 -33.5 0.5t-23.5 1.5q-5 0 -16 1.5t-22 3.5q-6 1 -13 1.5t-13 1.5t-10 1.5
t-2 0.5q-3 -1 -9.5 -3t-12.5 -4q-10 -4 -14 -4q-3 0 -2.5 4.5t3 10.5t6 11.5t6.5 8.5q9 6 14.5 11.5t10 14t8 21.5t6.5 34l19 107q9 56 17.5 111.5t16.5 110.5h-4q-52 0 -83 -27q-31 -30 -34 -74q-3 -27 8 -59l-57 -63q-3 17 -4 32.5t0 29.5q4 49 24 89.5t54 71.5
q50 44 136 44l155 1q8 0 16 1q16 2 28 7h1zM204 -119q-3 14 -7.5 23t-9.5 14q-5 6 -11 10l44 45q5 -5 10 -12q5 -6 9.5 -14t8.5 -19zM315 527q-7 10 -14 23q-6 11 -12 26.5t-10 33.5q-14 -23 -28.5 -39.5t-25.5 -26.5q-13 -12 -26 -19l22 55q9 5 19 13q8 7 17 17t17 25
l31 33q3 -17 8 -35q5 -15 12.5 -33t20.5 -35z" />
    <glyph glyph-name="uni1EC7" unicode="&#xea;&#x323;" horiz-adv-x="288" 
d="M114 265q-10 -17 -18 -38.5t-12 -47.5q4 -2 10 -2q33 0 61 26q11 11 19 26t10 33q3 37 -26 37q-23 0 -44 -34zM124 54q23 0 42 19.5t38 57.5q13 -12 12 -20q-2 -8 -8 -18.5t-14 -21.5q-53 -70 -102 -70q-14 0 -26.5 8t-21.5 22t-12.5 33t-1.5 41q6 80 60 163
q58 84 104 84q39 0 36 -49q-2 -26 -15 -54t-33 -51t-46.5 -40t-54.5 -27q0 -77 43 -77zM232 380q-7 10 -14 23q-6 11 -12 26.5t-10 33.5q-14 -23 -28.5 -39.5t-25.5 -26.5q-13 -12 -26 -19l22 55q9 5 19 13q8 7 17 17t17 25l31 33q3 -17 8 -35q5 -15 12.5 -33t20.5 -35z
M116 -119q-3 14 -7.5 23t-9.5 14q-5 6 -11 10l44 45q5 -5 10 -12q5 -6 9.5 -14t8.5 -19z" />
    <glyph glyph-name="uni1EC8" unicode="I&#x309;" horiz-adv-x="256" 
d="M242 475q7 -7 12 -17.5t-3 -15.5l-7 5h1q-4 2 -9 3.5t-12 0.5q-4 0 -14 -0.5t-18 -2.5q-14 -96 -29 -189t-29 -189q-1 -7 -4 -12.5t-5 -9.5q10 -2 22 -4t18 -2q3 0 9.5 2t8.5 4q3 2 7 2.5t6 -1.5t0.5 -6.5t-8.5 -11.5q-18 -20 -30.5 -26t-20.5 -4q-2 0 -9 1.5t-16.5 3.5
t-19 3.5t-14.5 2.5q-2 0 -13 -2.5t-22 -4.5q-6 -2 -11.5 -3t-8.5 -1t-2.5 5t3 11.5t6.5 12.5t7 9q4 3 8.5 4t9.5 3q6 2 11 3.5t7 3.5q8 8 12 22.5t8 41.5l47 324q-8 -2 -19.5 -3t-12.5 -1q-7 0 -15 4t-22 24v-1q-13 15 -8.5 18t12.5 -1q4 -2 10.5 -2h8.5q3 0 14.5 1.5
t26.5 3t30.5 3.5t26.5 4q3 0 5.5 0.5t4.5 0.5t3 1q13 1 21.5 -5t12.5 -10zM213 570q-11 -14 -16 -20.5t-7 -15.5l-47 -12q2 13 12 26.5t22 26.5q9 10 13.5 22t4 22t-6 17.5t-17.5 8.5q-27 3 -49 -24l-15 11q8 16 26.5 27t42.5 13q15 1 30 -5.5t23 -19.5t5.5 -32.5
t-21.5 -44.5z" />
    <glyph glyph-name="uni1EC9" unicode="i&#x309;" horiz-adv-x="200" 
d="M142 118q-27 -64 -48 -64q-4 0 -2 11l0.5 5.5t4 27t11.5 65t23 119.5q2 8 3 16.5t1 12.5q1 21 -4 31t-19 10q-20 0 -56 -38q-15 -17 -25 -33t-11 -27q0 -4 2 -8.5t8 -10.5q14 32 27 48t22 16q3 0 3.5 -4t0 -9.5t-1.5 -11t-2 -8.5q-14 -82 -22 -127t-12 -68q-4 -26 -5 -32
q-3 -38 21 -38q31 0 68 52q27 37 28 52q0 6 -9 14zM155 434q-11 -14 -16 -20.5t-7 -15.5l-47 -12q2 13 12 26.5t22 26.5q9 10 13.5 22t4 22t-6 17.5t-17.5 8.5q-27 3 -49 -24l-15 11q8 16 26.5 27t42.5 13q15 1 30 -5.5t23 -19.5t5.5 -32.5t-21.5 -44.5z" />
    <glyph glyph-name="uni1ECA" unicode="I&#x323;" horiz-adv-x="256" 
d="M242 475q7 -7 12 -17.5t-3 -15.5l-7 5h1q-4 2 -9 3.5t-12 0.5q-4 0 -14 -0.5t-18 -2.5q-14 -96 -29 -189t-29 -189q-1 -7 -4 -12.5t-5 -9.5q10 -2 22 -4t18 -2q3 0 9.5 2t8.5 4q3 2 7 2.5t6 -1.5t0.5 -6.5t-8.5 -11.5q-18 -20 -30.5 -26t-20.5 -4q-2 0 -9 1.5t-16.5 3.5
t-19 3.5t-14.5 2.5q-2 0 -13 -2.5t-22 -4.5q-6 -2 -11.5 -3t-8.5 -1t-2.5 5t3 11.5t6.5 12.5t7 9q4 3 8.5 4t9.5 3q6 2 11 3.5t7 3.5q8 8 12 22.5t8 41.5l47 324q-8 -2 -19.5 -3t-12.5 -1q-7 0 -15 4t-22 24v-1q-13 15 -8.5 18t12.5 -1q4 -2 10.5 -2h8.5q3 0 14.5 1.5
t26.5 3t30.5 3.5t26.5 4q3 0 5.5 0.5t4.5 0.5t3 1q13 1 21.5 -5t12.5 -10zM132 -72q-4 11 -8.5 19t-9.5 14q-5 7 -10 12l-44 -45q6 -4 11 -10q5 -5 9.5 -14t7.5 -23z" />
    <glyph glyph-name="uni1ECB" unicode="i&#x323;" horiz-adv-x="186" 
d="M148 119q9 -8 9 -14q-1 -8 -8 -20t-20 -32q-40 -52 -68 -52q-24 0 -21 38q1 6 5 32q4 23 12 68t22 127q3 12 3 19q2 14 -3 14q-9 0 -22 -16t-27 -48q-6 6 -8 10.5t-2 8.5q1 11 11 27t25 33q36 38 56 38q14 0 19 -10t4 -31q0 -10 -4 -29q-14 -77 -21.5 -120t-11.5 -65
q-4 -26 -6 -33v1q-2 -11 2 -11q21 0 48 64zM156 435q-2 -14 -11.5 -24.5t-43.5 -18.5l8 55q4 23 16.5 31t22.5 12q8 3 8 4l8 -2q-3 -19 -4.5 -30t-2.5 -17q-1 -7 -1 -10zM75 -119q-3 14 -7.5 23t-9.5 14q-5 6 -11 10l44 45q5 -5 10 -12q5 -6 9.5 -14t8.5 -19z" />
    <glyph glyph-name="uni1ECC" unicode="O&#x323;" horiz-adv-x="426" 
d="M113 90q13 -28 30 -40t39 -12q28 0 53 22t47 56q21 34 32 70.5t15 87.5q1 8 1 16v16q0 64 -21 109q-13 27 -28 39t-36 12q-28 0 -55 -20.5t-48 -52.5q-20 -34 -32 -72.5t-16 -89.5q-1 -9 -1 -18v-17q0 -63 20 -106zM309 92q-38 -46 -78 -69t-87 -23q-29 0 -49.5 14.5
t-37.5 41.5q-32 56 -26 141q9 125 83 217t163 92q29 0 50 -14t38 -41q33 -55 27 -142q-9 -125 -83 -217zM213 -72q-4 11 -8.5 19t-9.5 14q-5 7 -10 12l-44 -45q6 -4 11 -10q5 -5 9.5 -14t7.5 -23z" />
    <glyph glyph-name="uni1ECD" unicode="o&#x323;" horiz-adv-x="283" 
d="M84 152q-8 -105 42 -105q31 0 53 43q12 23 19.5 50t9.5 60q7 105 -42 105q-31 0 -53 -43q-25 -46 -29 -110zM200 80q-56 -79 -110 -79q-68 0 -60 108q3 42 19 83t43 80q26 37 54.5 58.5t54.5 21.5q34 0 49 -28.5t12 -79.5q-3 -42 -18 -84t-44 -80zM151 -72q-4 11 -8.5 19
t-9.5 14q-5 7 -10 12l-44 -45q6 -4 11 -10q5 -5 9.5 -14t7.5 -23z" />
    <glyph glyph-name="uni1ECE" unicode="O&#x309;" horiz-adv-x="426" 
d="M116 90q13 -28 30 -40t39 -12q28 0 53 22t47 56q21 34 32 70.5t15 87.5q1 8 1 16v16q0 64 -21 109q-13 27 -28 39t-36 12q-28 0 -55 -20.5t-48 -52.5q-20 -34 -32 -72.5t-16 -89.5q-1 -9 -1 -18v-17q0 -63 20 -106zM312 92q-38 -46 -78 -69t-87 -23q-29 0 -49.5 14.5
t-37.5 41.5q-32 56 -26 141q9 125 83 217t163 92q29 0 50 -14t38 -41q33 -55 27 -142q-9 -125 -83 -217zM302 581q-11 -14 -16 -20.5t-7 -15.5l-47 -12q2 13 12 26.5t22 26.5q9 10 13.5 22t4 22t-6 17.5t-17.5 8.5q-27 3 -49 -24l-15 11q8 16 26.5 27t42.5 13q15 1 30 -5.5
t23 -19.5t5.5 -32.5t-21.5 -44.5z" />
    <glyph glyph-name="uni1ECF" unicode="o&#x309;" horiz-adv-x="283" 
d="M84 152q-8 -105 42 -105q30 0 54 43q11 23 18.5 50t9.5 60q7 105 -42 105q-31 0 -53 -43q-25 -46 -29 -110zM200 80q-56 -79 -110 -79q-68 0 -60 108q3 42 19 83t43 80q26 37 54.5 58.5t54.5 21.5q34 0 49 -28.5t12 -79.5q-3 -42 -18 -84t-44 -80zM220 424
q-11 -14 -16 -20.5t-7 -15.5l-47 -12q2 13 12 26.5t22 26.5q9 10 13.5 22t4 22t-6 17.5t-17.5 8.5q-27 3 -49 -24l-15 11q8 16 26.5 27t42.5 13q15 1 30 -5.5t23 -19.5t5.5 -32.5t-21.5 -44.5z" />
    <glyph glyph-name="uni1ED0" unicode="&#xd4;&#x301;" horiz-adv-x="416" 
d="M116 90q13 -28 30 -40t39 -12q28 0 53 22t47 56q21 34 32 70.5t15 87.5q1 8 1 16v16q0 64 -21 109q-13 27 -28 39t-36 12q-28 0 -55 -20.5t-48 -52.5q-20 -34 -32 -72.5t-16 -89.5q-1 -9 -1 -18v-17q0 -63 20 -106zM312 92q-38 -46 -78 -69t-87 -23q-29 0 -49.5 14.5
t-37.5 41.5q-32 56 -26 141q9 125 83 217t163 92q29 0 50 -14t38 -41q33 -55 27 -142q-9 -125 -83 -217zM301 532q-7 10 -14 23q-6 11 -12 26.5t-10 33.5q-14 -23 -28.5 -39.5t-25.5 -26.5q-13 -12 -26 -19l22 55q9 5 19 13q8 7 17 17t17 25l31 33q3 -17 8 -35
q5 -15 12.5 -33t20.5 -35zM447 752q2 -3 4 -7q4 -8 4 -14q-5 -41 -131 -118l-7 -4l45 85q16 8 32 17q13 8 27 18t24 21z" />
    <glyph glyph-name="uni1ED1" unicode="&#xf4;&#x301;" horiz-adv-x="323" 
d="M84 152q-8 -105 42 -105q31 0 53 43q12 23 19.5 50t9.5 60q7 105 -42 105q-31 0 -53 -43q-25 -46 -29 -110zM200 80q-56 -79 -110 -79q-68 0 -60 108q3 42 19 83t43 80q26 37 54.5 58.5t54.5 21.5q34 0 49 -28.5t12 -79.5q-3 -42 -18 -84t-44 -80zM250 372q-7 10 -14 23
q-6 11 -12 26.5t-10 33.5q-14 -23 -28.5 -39.5t-25.5 -26.5q-13 -12 -26 -19l22 55q9 5 19 13q8 7 17 17t17 25l31 33q3 -17 8 -35q5 -15 12.5 -33t20.5 -35zM396 592q2 -3 4 -7q4 -8 4 -14q-5 -41 -131 -118l-7 -4l45 85q16 8 32 17q13 8 27 18t24 21z" />
    <glyph glyph-name="uni1ED2" unicode="&#xd4;&#x300;" horiz-adv-x="426" 
d="M116 90q13 -28 30 -40t39 -12q28 0 53 22t47 56q21 34 32 70.5t15 87.5q1 8 1 16v16q0 64 -21 109q-13 27 -28 39t-36 12q-28 0 -55 -20.5t-48 -52.5q-20 -34 -32 -72.5t-16 -89.5q-1 -9 -1 -18v-17q0 -63 20 -106zM312 92q-38 -46 -78 -69t-87 -23q-29 0 -49.5 14.5
t-37.5 41.5q-32 56 -26 141q9 125 83 217t163 92q29 0 50 -14t38 -41q33 -55 27 -142q-9 -125 -83 -217zM358 565q-13 17 -20.5 35t-12.5 33q-5 18 -8 35l-31 -33q-8 -15 -17 -25t-17 -17q-10 -8 -19 -13l-22 -55q13 7 26 19q11 10 25.5 26.5t28.5 39.5q4 -18 10 -33.5
t12 -26.5q7 -13 14 -23zM387 636q-37 31 -56 104l28 31q22 -71 56 -100z" />
    <glyph glyph-name="uni1ED3" unicode="&#xf4;&#x300;" horiz-adv-x="300" 
d="M91 152q-8 -105 42 -105q30 0 54 43q11 23 18.5 50t9.5 60q7 105 -42 105q-31 0 -53 -43q-25 -46 -29 -110zM207 80q-56 -79 -110 -79q-68 0 -60 108q3 42 19 83t43 80q26 37 54.5 58.5t54.5 21.5q34 0 49 -28.5t12 -79.5q-3 -42 -18 -84t-44 -80zM273 416
q-13 17 -20.5 35t-12.5 33q-5 18 -8 35l-31 -33q-8 -15 -17 -25t-17 -17q-10 -8 -19 -13l-22 -55q13 7 26 19q11 10 25.5 26.5t28.5 39.5q4 -18 10 -33.5t12 -26.5q7 -13 14 -23zM310 470q-37 31 -56 104l28 31q22 -71 56 -100z" />
    <glyph glyph-name="uni1ED4" unicode="&#xd4;&#x309;" horiz-adv-x="422" 
d="M116 90q13 -28 30 -40t39 -12q28 0 53 22t47 56q21 34 32 70.5t15 87.5q1 8 1 16v16q0 64 -21 109q-13 27 -28 39t-36 12q-28 0 -55 -20.5t-48 -52.5q-20 -34 -32 -72.5t-16 -89.5q-1 -9 -1 -18v-17q0 -63 20 -106zM312 92q-38 -46 -78 -69t-87 -23q-29 0 -49.5 14.5
t-37.5 41.5q-32 56 -26 141q9 125 83 217t163 92q29 0 50 -14t38 -41q33 -55 27 -142q-9 -125 -83 -217zM344 569q-13 17 -20.5 35t-12.5 33q-5 18 -8 35l-31 -33q-8 -15 -17 -25t-17 -17q-10 -8 -19 -13l-22 -55q13 7 26 19q11 10 25.5 26.5t28.5 39.5q4 -18 10 -33.5
t12 -26.5q7 -13 14 -23zM419 650q-11 -14 -16 -20.5t-7 -15.5l-47 -12q2 13 12 26.5t22 26.5q9 10 13.5 22t4 22t-6 17.5t-17.5 8.5q-27 3 -49 -24l-15 11q8 16 26.5 27t42.5 13q15 1 30 -5.5t23 -19.5t5.5 -32.5t-21.5 -44.5z" />
    <glyph glyph-name="uni1ED5" unicode="&#xf4;&#x309;" horiz-adv-x="317" 
d="M84 152q-8 -105 42 -105q31 0 53 43q12 23 19.5 50t9.5 60q7 105 -42 105q-31 0 -53 -43q-25 -46 -29 -110zM200 80q-56 -79 -110 -79q-68 0 -60 108q3 42 19 83t43 80q26 37 54.5 58.5t54.5 21.5q34 0 49 -28.5t12 -79.5q-3 -42 -18 -84t-44 -80zM253 421
q-13 17 -20.5 35t-12.5 33q-5 18 -8 35l-31 -33q-8 -15 -17 -25t-17 -17q-10 -8 -19 -13l-22 -55q13 7 26 19q11 10 25.5 26.5t28.5 39.5q4 -18 10 -33.5t12 -26.5q7 -13 14 -23zM328 502q-11 -14 -16 -20.5t-7 -15.5l-47 -12q2 13 12 26.5t22 26.5q9 10 13.5 22t4 22
t-6 17.5t-17.5 8.5q-27 3 -49 -24l-15 11q8 16 26.5 27t42.5 13q15 1 30 -5.5t23 -19.5t5.5 -32.5t-21.5 -44.5z" />
    <glyph glyph-name="uni1ED6" unicode="&#xd4;&#x303;" horiz-adv-x="435" 
d="M116 90q13 -28 30 -40t39 -12q28 0 53 22t47 56q21 34 32 70.5t15 87.5q1 8 1 16v16q0 64 -21 109q-13 27 -28 39t-36 12q-28 0 -55 -20.5t-48 -52.5q-20 -34 -32 -72.5t-16 -89.5q-1 -9 -1 -18v-17q0 -63 20 -106zM312 92q-38 -46 -78 -69t-87 -23q-29 0 -49.5 14.5
t-37.5 41.5q-32 56 -26 141q9 125 83 217t163 92q29 0 50 -14t38 -41q33 -55 27 -142q-9 -125 -83 -217zM395 775q3 0 5 -2q3 -4 5 -11v-2q-1 -18 -22 -47q-20 -29 -34 -29q-9 0 -20 8l-33 26q-10 8 -16 8q-15 0 -31 -41l-1 -3l-2 2q-8 4 -8 14q2 22 21 47q20 28 36 28
q8 0 16 -7l35 -27q8 -7 16 -7q5 0 13 7.5t19 33.5zM324 540q-7 10 -14 23q-6 11 -12 26.5t-10 33.5q-14 -23 -28.5 -39.5t-25.5 -26.5q-13 -12 -26 -19l22 55q9 5 19 13q8 7 17 17t17 25l31 33q3 -17 8 -35q5 -15 12.5 -33t20.5 -35z" />
    <glyph glyph-name="uni1ED7" unicode="&#xf4;&#x303;" horiz-adv-x="338" 
d="M84 152q-8 -105 42 -105q31 0 53 43q12 23 19.5 50t9.5 60q7 105 -42 105q-31 0 -53 -43q-25 -46 -29 -110zM200 80q-56 -79 -110 -79q-68 0 -60 108q3 42 19 83t43 80q26 37 54.5 58.5t54.5 21.5q34 0 49 -28.5t12 -79.5q-3 -42 -18 -84t-44 -80zM240 368q-7 10 -14 23
q-6 11 -12 26.5t-10 33.5q-14 -23 -28.5 -39.5t-25.5 -26.5q-13 -12 -26 -19l22 55q9 5 19 13q8 7 17 17t17 25l31 33q3 -17 8 -35q5 -15 12.5 -33t20.5 -35zM316 601q3 0 5 -2q3 -4 5 -11l-1 -2q0 -18 -22 -47q-20 -29 -34 -29q-9 0 -19 8l-34 27q-9 7 -16 7q-15 0 -30 -41
l-1 -3l-3 2q-2 2 -5 5.5t-3 8.5q1 20 22 47q20 29 36 29q7 0 15 -8l18 -14q8 -6 18 -13q9 -7 15 -7q5 0 13.5 7.5t19.5 33.5z" />
    <glyph glyph-name="uni1ED8" unicode="&#xd4;&#x323;" horiz-adv-x="426" 
d="M116 90q13 -28 30 -40t39 -12q28 0 53 22t47 56q21 34 32 70.5t15 87.5q1 8 1 16v16q0 64 -21 109q-13 27 -28 39t-36 12q-28 0 -55 -20.5t-48 -52.5q-20 -34 -32 -72.5t-16 -89.5q-1 -9 -1 -18v-17q0 -63 20 -106zM312 92q-38 -46 -78 -69t-87 -23q-29 0 -49.5 14.5
t-37.5 41.5q-32 56 -26 141q9 125 83 217t163 92q29 0 50 -14t38 -41q33 -55 27 -142q-9 -125 -83 -217zM169 -119q-3 14 -7.5 23t-9.5 14q-5 6 -11 10l44 45q5 -5 10 -12q5 -6 9.5 -14t8.5 -19zM312 537q-7 10 -14 23q-6 11 -12 26.5t-10 33.5q-14 -23 -28.5 -39.5
t-25.5 -26.5q-13 -12 -26 -19l22 55q9 5 19 13q8 7 17 17t17 25l31 33q3 -17 8 -35q5 -15 12.5 -33t20.5 -35z" />
    <glyph glyph-name="uni1ED9" unicode="&#xf4;&#x323;" horiz-adv-x="293" 
d="M84 152q-8 -105 42 -105q30 0 54 43q11 23 18.5 50t9.5 60q7 105 -42 105q-31 0 -53 -43q-25 -46 -29 -110zM200 80q-56 -79 -110 -79q-68 0 -60 108q3 42 19 83t43 80q26 37 54.5 58.5t54.5 21.5q34 0 49 -28.5t12 -79.5q-3 -42 -18 -84t-44 -80zM250 380q-7 10 -14 23
q-6 11 -12 26.5t-10 33.5q-14 -23 -28.5 -39.5t-25.5 -26.5q-13 -12 -26 -19l22 55q9 5 19 13q8 7 17 17t17 25l31 33q3 -17 8 -35q5 -15 12.5 -33t20.5 -35zM118 -119q-3 14 -7.5 23t-9.5 14q-5 6 -11 10l44 45q5 -5 10 -12q5 -6 9.5 -14t8.5 -19z" />
    <glyph glyph-name="uni1EDA" unicode="&#x1a0;&#x301;" horiz-adv-x="454" 
d="M387 419h-4q17 -47 12 -110q-9 -125 -83 -217q-38 -46 -78 -69t-87 -23q-29 0 -49.5 14.5t-37.5 41.5q-32 56 -26 141q9 125 83 217t163 92q29 0 50 -14t38 -41q0 -2 2 -4l65 82h69zM116 90q13 -28 30 -40t39 -12q28 0 53 22t47 56q21 34 32 70.5t15 87.5q1 8 1 16v16
q0 64 -21 109q-13 27 -28 39t-36 12q-28 0 -55 -20.5t-48 -52.5q-20 -34 -32 -72.5t-16 -89.5q-1 -9 -1 -18v-17q0 -63 20 -106zM392 682q2 -3 4 -7q4 -8 4 -14q-5 -41 -131 -118l-7 -4l45 85q16 8 32 17q13 8 27 18t24 21z" />
    <glyph glyph-name="uni1EDB" unicode="&#x1a1;&#x301;" horiz-adv-x="309" 
d="M260 300h-2q6 -22 4 -56q-3 -42 -18 -84t-44 -80q-56 -79 -110 -79q-68 0 -60 108q3 42 19 83t43 80q26 37 54.5 58.5t54.5 21.5q28 0 44 -21l63 79h69zM84 152q-8 -105 42 -105q30 0 54 43q11 23 18.5 50t9.5 60q7 105 -42 105q-31 0 -53 -43q-25 -46 -29 -110zM317 534
q2 -3 4 -7q4 -8 4 -14q-5 -41 -131 -118l-7 -4l45 85q16 8 32 17q13 8 27 18t24 21z" />
    <glyph glyph-name="uni1EDC" unicode="&#x1a0;&#x300;" horiz-adv-x="454" 
d="M387 419h-4q17 -47 12 -110q-9 -125 -83 -217q-38 -46 -78 -69t-87 -23q-29 0 -49.5 14.5t-37.5 41.5q-32 56 -26 141q9 125 83 217t163 92q29 0 50 -14t38 -41q0 -2 2 -4l65 82h69zM116 90q13 -28 30 -40t39 -12q28 0 53 22t47 56q21 34 32 70.5t15 87.5q1 8 1 16v16
q0 64 -21 109q-13 27 -28 39t-36 12q-28 0 -55 -20.5t-48 -52.5q-20 -34 -32 -72.5t-16 -89.5q-1 -9 -1 -18v-17q0 -63 20 -106zM237 535q-37 31 -56 104l28 31q22 -71 56 -100z" />
    <glyph glyph-name="uni1EDD" unicode="&#x1a1;&#x300;" horiz-adv-x="311" 
d="M260 300h-2q6 -22 4 -56q-3 -42 -18 -84t-44 -80q-56 -79 -110 -79q-68 0 -60 108q3 42 19 83t43 80q26 37 54.5 58.5t54.5 21.5q28 0 44 -21l63 79h69zM84 152q-8 -105 42 -105q31 0 53 43q12 23 19.5 50t9.5 60q7 105 -42 105q-31 0 -53 -43q-25 -46 -29 -110zM205 386
q-37 31 -56 104l28 31q22 -71 56 -100z" />
    <glyph glyph-name="uni1EDE" unicode="&#x1a0;&#x309;" horiz-adv-x="454" 
d="M387 419h-4q17 -47 12 -110q-9 -125 -83 -217q-38 -46 -78 -69t-87 -23q-29 0 -49.5 14.5t-37.5 41.5q-32 56 -26 141q9 125 83 217t163 92q29 0 50 -14t38 -41q0 -2 2 -4l65 82h69zM116 90q13 -28 30 -40t39 -12q28 0 53 22t47 56q21 34 32 70.5t15 87.5q1 8 1 16v16
q0 64 -21 109q-13 27 -28 39t-36 12q-28 0 -55 -20.5t-48 -52.5q-20 -34 -32 -72.5t-16 -89.5q-1 -9 -1 -18v-17q0 -63 20 -106zM324 581q-11 -14 -16 -20.5t-7 -15.5l-47 -12q2 13 12 26.5t22 26.5q9 10 13.5 22t4 22t-6 17.5t-17.5 8.5q-27 3 -49 -24l-15 11q8 16 26.5 27
t42.5 13q15 1 30 -5.5t23 -19.5t5.5 -32.5t-21.5 -44.5z" />
    <glyph glyph-name="uni1EDF" unicode="&#x1a1;&#x309;" horiz-adv-x="313" 
d="M260 300h-2q6 -22 4 -56q-3 -42 -18 -84t-44 -80q-56 -79 -110 -79q-68 0 -60 108q3 42 19 83t43 80q26 37 54.5 58.5t54.5 21.5q28 0 44 -21l63 79h69zM84 152q-8 -105 42 -105q31 0 53 43q12 23 19.5 50t9.5 60q7 105 -42 105q-31 0 -53 -43q-25 -46 -29 -110zM223 431
q-11 -14 -16 -20.5t-7 -15.5l-47 -12q2 13 12 26.5t22 26.5q9 10 13.5 22t4 22t-6 17.5t-17.5 8.5q-27 3 -49 -24l-15 11q8 16 26.5 27t42.5 13q15 1 30 -5.5t23 -19.5t5.5 -32.5t-21.5 -44.5z" />
    <glyph glyph-name="uni1EE0" unicode="&#x1a0;&#x303;" horiz-adv-x="454" 
d="M387 419h-4q17 -47 12 -110q-9 -125 -83 -217q-38 -46 -78 -69t-87 -23q-29 0 -49.5 14.5t-37.5 41.5q-32 56 -26 141q9 125 83 217t163 92q29 0 50 -14t38 -41q0 -2 2 -4l65 82h69zM116 90q13 -28 30 -40t39 -12q28 0 53 22t47 56q21 34 32 70.5t15 87.5q1 8 1 16v16
q0 64 -21 109q-13 27 -28 39t-36 12q-28 0 -55 -20.5t-48 -52.5q-20 -34 -32 -72.5t-16 -89.5q-1 -9 -1 -18v-17q0 -63 20 -106zM366 625q3 0 5 -2q3 -4 5 -11v-2q-1 -18 -22 -47q-20 -29 -34 -29q-9 0 -20 8l-33 26q-10 8 -16 8q-15 0 -31 -41l-1 -3l-2 2q-8 4 -8 14
q2 22 21 47q20 28 36 28q8 0 16 -7l35 -27q8 -7 16 -7q5 0 13 7.5t19 33.5z" />
    <glyph glyph-name="uni1EE1" unicode="&#x1a1;&#x303;" horiz-adv-x="309" 
d="M260 300h-2q6 -22 4 -56q-3 -42 -18 -84t-44 -80q-56 -79 -110 -79q-68 0 -60 108q3 42 19 83t43 80q26 37 54.5 58.5t54.5 21.5q28 0 44 -21l63 79h69zM84 152q-8 -105 42 -105q31 0 53 43q12 23 19.5 50t9.5 60q7 105 -42 105q-31 0 -53 -43q-25 -46 -29 -110zM264 483
q3 0 5 -2q3 -4 5 -11v-2q-1 -18 -22 -47q-20 -29 -34 -29q-9 0 -20 8l-33 26q-10 8 -16 8q-15 0 -31 -41l-1 -3l-2 2q-8 4 -8 14q2 22 21 47q20 28 36 28q8 0 16 -7l35 -27q8 -7 16 -7q5 0 13 7.5t19 33.5z" />
    <glyph glyph-name="uni1EE2" unicode="&#x1a0;&#x323;" horiz-adv-x="454" 
d="M387 419h-4q17 -47 12 -110q-9 -125 -83 -217q-38 -46 -78 -69t-87 -23q-29 0 -49.5 14.5t-37.5 41.5q-32 56 -26 141q9 125 83 217t163 92q29 0 50 -14t38 -41q0 -2 2 -4l65 82h69zM116 90q13 -28 30 -40t39 -12q28 0 53 22t47 56q21 34 32 70.5t15 87.5q1 8 1 16v16
q0 64 -21 109q-13 27 -28 39t-36 12q-28 0 -55 -20.5t-48 -52.5q-20 -34 -32 -72.5t-16 -89.5q-1 -9 -1 -18v-17q0 -63 20 -106zM202 -72q-4 11 -8.5 19t-9.5 14q-5 7 -10 12l-44 -45q6 -4 11 -10q5 -5 9.5 -14t7.5 -23z" />
    <glyph glyph-name="uni1EE3" unicode="&#x1a1;&#x323;" horiz-adv-x="309" 
d="M260 300h-2q6 -22 4 -56q-3 -42 -18 -84t-44 -80q-56 -79 -110 -79q-68 0 -60 108q3 42 19 83t43 80q26 37 54.5 58.5t54.5 21.5q28 0 44 -21l63 79h69zM84 152q-8 -105 42 -105q31 0 53 43q12 23 19.5 50t9.5 60q7 105 -42 105q-31 0 -53 -43q-25 -46 -29 -110zM149 -72
q-4 11 -8.5 19t-9.5 14q-5 7 -10 12l-44 -45q6 -4 11 -10q5 -5 9.5 -14t7.5 -23z" />
    <glyph glyph-name="uni1EE4" unicode="U&#x323;" horiz-adv-x="489" 
d="M136 191q5 21 12 53.5t14 67.5q8 42 15.5 78.5t12.5 53.5h-18q-56 0 -78.5 -24t-26.5 -70q-1 -27 11 -61l-57 -64q-6 34 -4 64q6 92 65 148q29 29 59 42t75 13h49q-9 -17 -19.5 -57t-21 -86.5t-19 -90.5t-12.5 -68q-3 -15 -4 -28.5t-1 -25.5q0 -41 13 -66t38 -25
q11 0 23 6.5t23 15.5t19.5 19.5t12.5 19.5q16 29 27.5 69t20.5 94q0 1 1.5 10t4.5 30t8.5 56t14.5 89q3 17 19 29.5t34 19.5q9 3 16 1.5t5 -7.5l-14 -29q-6 -23 -11 -48.5t-10 -60.5l-31 -200q-2 -15 -3.5 -26t-2.5 -21q-3 -31 15 -31q7 0 18 4.5t25 12.5q0 -2 -0.5 -5
t-0.5 -6v-7l1 3q0 -7 -5 -12t-14 -11l-17 -10l-93 -54l17 104q-29 -45 -63 -72.5t-67 -27.5q-21 0 -36.5 11t-26 29.5t-15.5 42t-5 49.5q0 16 2 30.5t5 28.5zM277 -72q-4 11 -8.5 19t-9.5 14q-5 7 -10 12l-44 -45q6 -4 11 -10q5 -5 9.5 -14t7.5 -23z" />
    <glyph glyph-name="uni1EE5" unicode="u&#x323;" horiz-adv-x="346" 
d="M224 132q-15 -24 -33.5 -47.5t-35.5 -40.5q-19 -20 -37.5 -32t-32.5 -12q-32 0 -29 49q1 9 2.5 23.5t4.5 34.5q7 48 13 86q3 16 5 31.5t4 28t3.5 20.5t1.5 9q1 16 -4 16q-9 0 -24 -18t-23 -44q-7 5 -9 9t-2 8q1 12 10 27.5t25 32.5q35 37 55 37q27 0 24 -44
q-1 -10 -2 -19.5t-3 -20.5q-5 -35 -11 -70t-11 -68q-3 -24 -6 -51q-2 -20 9 -20q31 0 73 63q21 31 34.5 63.5t19.5 63.5q4 21 8 43t8 42l56 23q-5 -20 -10 -41.5t-8 -38.5q-11 -58 -17.5 -94.5t-10.5 -56.5q-4 -25 -7 -36q-3 -14 -4 -24.5t3 -11.5q9 -2 22.5 16t27.5 52
q13 -10 13 -17t-8 -21t-20 -31q-39 -51 -68 -51q-24 0 -21 38q1 8 2 15.5t2 13.5zM184 -72q-4 11 -8.5 19t-9.5 14q-5 7 -10 12l-44 -45q6 -4 11 -10q5 -5 9.5 -14t7.5 -23z" />
    <glyph glyph-name="uni1EE6" unicode="U&#x309;" horiz-adv-x="489" 
d="M136 191q5 21 12 53.5t14 67.5q8 42 15.5 78.5t12.5 53.5h-18q-56 0 -78.5 -24t-26.5 -70q-1 -27 11 -61l-57 -64q-6 34 -4 64q6 92 65 148q29 29 59 42t75 13h49q-9 -17 -19.5 -57t-21 -86.5t-19 -90.5t-12.5 -68q-3 -15 -4 -28.5t-1 -25.5q0 -41 13 -66t38 -25
q11 0 23 6.5t23 15.5t19.5 19.5t12.5 19.5q16 29 27.5 69t20.5 94q0 1 1.5 10t4.5 30t8.5 56t14.5 89q3 17 19 29.5t34 19.5q9 3 16 1.5t5 -7.5l-14 -29q-6 -23 -11 -48.5t-10 -60.5l-31 -200q-2 -15 -3.5 -26t-2.5 -21q-3 -31 15 -31q7 0 18 4.5t25 12.5q0 -2 -0.5 -5
t-0.5 -6v-7l1 3q0 -7 -5 -12t-14 -11l-17 -10l-93 -54l17 104q-29 -45 -63 -72.5t-67 -27.5q-21 0 -36.5 11t-26 29.5t-15.5 42t-5 49.5q0 16 2 30.5t5 28.5zM393 581q-11 -14 -16 -20.5t-7 -15.5l-47 -12q2 13 12 26.5t22 26.5q9 10 13.5 22t4 22t-6 17.5t-17.5 8.5
q-27 3 -49 -24l-15 11q8 16 26.5 27t42.5 13q15 1 30 -5.5t23 -19.5t5.5 -32.5t-21.5 -44.5z" />
    <glyph glyph-name="uni1EE7" unicode="u&#x309;" horiz-adv-x="346" 
d="M224 132q-15 -24 -33.5 -47.5t-35.5 -40.5q-19 -20 -37.5 -32t-32.5 -12q-32 0 -29 49q1 9 2.5 23.5t4.5 34.5q7 48 13 86q3 16 5 31.5t4 28t3.5 20.5t1.5 9q1 16 -4 16q-9 0 -24 -18t-23 -44q-7 5 -9 9t-2 8q1 12 10 27.5t25 32.5q35 37 55 37q27 0 24 -44
q-1 -10 -2 -19.5t-3 -20.5q-5 -35 -11 -70t-11 -68q-3 -24 -6 -51q-2 -20 9 -20q31 0 73 63q21 31 34.5 63.5t19.5 63.5q4 21 8 43t8 42l56 23q-5 -20 -10 -41.5t-8 -38.5q-11 -58 -17.5 -94.5t-10.5 -56.5q-4 -25 -7 -36q-3 -14 -4 -24.5t3 -11.5q9 -2 22.5 16t27.5 52
q13 -10 13 -17t-8 -21t-20 -31q-39 -51 -68 -51q-24 0 -21 38q1 8 2 15.5t2 13.5zM249 429q-11 -14 -16 -20.5t-7 -15.5l-47 -12q2 13 12 26.5t22 26.5q9 10 13.5 22t4 22t-6 17.5t-17.5 8.5q-27 3 -49 -24l-15 11q8 16 26.5 27t42.5 13q15 1 30 -5.5t23 -19.5t5.5 -32.5
t-21.5 -44.5z" />
    <glyph glyph-name="uni1EE8" unicode="&#x1af;&#x301;" horiz-adv-x="519" 
d="M598 561q2 -2 -0.5 -4t-3.5 -4q-5 -5 -6 -11t-2 -14q-1 -7 -2 -17.5t-4.5 -22t-10 -24t-16.5 -23.5q-20 -22 -48.5 -38.5t-68.5 -20.5q-1 -6 -1.5 -11.5t-1.5 -11.5l-31 -200q-2 -15 -3.5 -26t-2.5 -21q-3 -31 15 -31q7 0 18 4.5t25 12.5q0 -2 -0.5 -5t-0.5 -6v-7l1 3
q0 -7 -5 -12t-14 -11l-17 -10l-93 -54l17 104q-29 -45 -63 -72.5t-67 -27.5q-21 0 -36.5 11t-26 29.5t-15.5 42t-5 49.5q0 16 2 30.5t5 28.5q5 21 12 53.5t14 67.5q8 42 15.5 78.5t12.5 53.5h-18q-56 0 -78.5 -24t-26.5 -70q-1 -27 11 -61l-57 -64q-6 34 -4 64q6 92 65 148
q29 29 59 42t75 13h49q-9 -17 -19.5 -57t-21 -86.5t-19 -90.5t-12.5 -68q-3 -15 -4 -28.5t-1 -25.5q0 -41 13 -66t38 -25q11 0 23 6.5t23 15.5t19.5 19.5t12.5 19.5q16 29 27.5 69t20.5 94l29 185q3 17 19 29.5t34 19.5q9 3 16 1.5t5 -7.5l-14 -29q-4 -14 -7 -27.5t-5 -29.5
q17 5 32 14.5t25 21.5q19 25 22.5 47t4.5 34q0 6 4.5 14.5t15.5 13.5q5 2 13.5 3.5t16.5 2.5t14.5 0.5t7.5 -1.5zM443 668q2 -3 4 -7q4 -8 4 -14q-5 -41 -131 -118l-7 -4l45 85q16 8 32 17q13 8 27 18t24 21z" />
    <glyph glyph-name="uni1EE9" unicode="&#x1b0;&#x301;" horiz-adv-x="442" 
d="M445 397q-1 -7 -2 -20.5t-4.5 -29.5t-10 -31.5t-16.5 -26.5q-21 -23 -50 -40.5t-72 -19.5l-18 -99q-1 -4 -2 -10.5t-3 -13.5q-2 -8 -3 -18q-3 -17 -3 -25q-2 -11 2 -11q23 0 50 68q13 -10 13 -17t-7.5 -20t-20.5 -32q-39 -51 -68 -51q-24 0 -21 38v5l4 24l10 60v3
q-15 -24 -33.5 -47t-34.5 -39q-19 -20 -37.5 -32t-32.5 -12q-32 0 -29 49q1 9 2.5 23.5t4.5 34.5q7 48 13 86q3 16 5 31.5t4 28t3.5 20.5t1.5 9q0 5 -1 10.5t-3 5.5q-20 0 -47 -62q-7 5 -9 9t-2 8q1 12 10 27.5t25 32.5q35 37 55 37q27 0 24 -44q0 -10 -3 -22
q-5 -38 -11.5 -78t-12.5 -78v1l-6 -52q-2 -20 9 -20q31 0 73 63q21 31 34.5 63.5t19.5 63.5l16 85l56 23q-5 -20 -10 -41.5t-8 -38.5l-3 -18q20 4 37.5 14t27.5 24q20 25 21.5 47t2.5 34zM323 522q2 -3 4 -7q4 -8 4 -14q-5 -41 -131 -118l-7 -4l45 85q16 8 32 17q13 8 27 18
t24 21z" />
    <glyph glyph-name="uni1EEA" unicode="&#x1af;&#x300;" horiz-adv-x="519" 
d="M598 561q-1 1 -7.5 1.5t-14.5 -0.5t-16.5 -2.5t-13.5 -3.5q-11 -5 -15.5 -13.5t-4.5 -14.5q-1 -12 -4.5 -34t-22.5 -47q-10 -12 -25 -21.5t-32 -14.5q2 16 5 29.5t7 27.5l14 29q2 6 -5 7.5t-16 -1.5q-18 -7 -34 -19.5t-19 -29.5l-29 -185q-9 -54 -20.5 -94t-27.5 -69
q-4 -9 -12.5 -19.5t-19.5 -19.5t-23 -15.5t-23 -6.5q-25 0 -38 25t-13 66q0 12 1 25.5t4 28.5q4 24 12.5 68t19 90.5t21 86.5t19.5 57h-49q-45 0 -75 -13t-59 -42q-59 -56 -65 -148q-2 -30 4 -64l57 64q-12 34 -11 61q4 46 26.5 70t78.5 24h18q-5 -17 -12.5 -53.5
t-15.5 -78.5q-7 -35 -14 -67.5t-12 -53.5q-3 -14 -5 -28.5t-2 -30.5q0 -26 5 -49.5t15.5 -42t26 -29.5t36.5 -11q33 0 67 27.5t63 72.5l-17 -104l93 54l17 10q9 6 14 11t5 12l-1 -3v7q0 3 0.5 6t0.5 5q-14 -8 -25 -12.5t-18 -4.5q-18 0 -15 31q1 10 2.5 21t3.5 26l31 200
q1 6 1.5 11.5t1.5 11.5q40 4 68.5 20.5t48.5 38.5q10 11 16.5 23.5t10 24t4.5 22t2 17.5q1 8 2 14t6 11q1 2 3.5 4t0.5 4zM345 502q-37 31 -56 104l28 31q22 -71 56 -100z" />
    <glyph glyph-name="uni1EEB" unicode="&#x1b0;&#x300;" horiz-adv-x="442" 
d="M385 376q-1 -12 -2.5 -34t-21.5 -47q-10 -14 -27.5 -24t-37.5 -14l3 18q3 17 8 38.5t10 41.5l-56 -23l-16 -85q-6 -31 -19.5 -63.5t-34.5 -63.5q-42 -63 -73 -63q-11 0 -9 20l6 52v-1q6 38 12.5 78t11.5 78q3 12 3 22q3 44 -24 44q-20 0 -55 -37q-16 -17 -25 -32.5
t-10 -27.5q0 -4 2 -8t9 -9q27 62 47 62q2 0 3 -5.5t1 -10.5q0 -1 -1.5 -9t-3.5 -20.5t-4 -28t-5 -31.5q-6 -38 -13 -86q-3 -20 -4.5 -34.5t-2.5 -23.5q-3 -49 29 -49q14 0 32.5 12t37.5 32q16 16 34.5 39t33.5 47v-3l-10 -60l-4 -24v-5q-3 -38 21 -38q29 0 68 51
q13 19 20.5 32t7.5 20t-13 17q-27 -68 -50 -68q-4 0 -2 11q0 8 3 25q1 10 3 18q2 7 3 13.5t2 10.5l18 99q43 2 72 19.5t50 40.5q10 11 16.5 26.5t10 31.5t4.5 29.5t2 20.5zM209 371q-37 31 -56 104l28 31q22 -71 56 -100z" />
    <glyph glyph-name="uni1EEC" unicode="&#x1af;&#x309;" horiz-adv-x="519" 
d="M598 561q-1 1 -7.5 1.5t-14.5 -0.5t-16.5 -2.5t-13.5 -3.5q-11 -5 -15.5 -13.5t-4.5 -14.5q-1 -12 -4.5 -34t-22.5 -47q-10 -12 -25 -21.5t-32 -14.5q2 16 5 29.5t7 27.5l14 29q2 6 -5 7.5t-16 -1.5q-18 -7 -34 -19.5t-19 -29.5l-29 -185q-9 -54 -20.5 -94t-27.5 -69
q-4 -9 -12.5 -19.5t-19.5 -19.5t-23 -15.5t-23 -6.5q-25 0 -38 25t-13 66q0 12 1 25.5t4 28.5q4 24 12.5 68t19 90.5t21 86.5t19.5 57h-49q-45 0 -75 -13t-59 -42q-59 -56 -65 -148q-2 -30 4 -64l57 64q-12 34 -11 61q4 46 26.5 70t78.5 24h18q-5 -17 -12.5 -53.5
t-15.5 -78.5q-7 -35 -14 -67.5t-12 -53.5q-3 -14 -5 -28.5t-2 -30.5q0 -26 5 -49.5t15.5 -42t26 -29.5t36.5 -11q33 0 67 27.5t63 72.5l-17 -104l93 54l17 10q9 6 14 11t5 12l-1 -3v7q0 3 0.5 6t0.5 5q-14 -8 -25 -12.5t-18 -4.5q-18 0 -15 31q1 10 2.5 21t3.5 26l31 200
q1 6 1.5 11.5t1.5 11.5q40 4 68.5 20.5t48.5 38.5q10 11 16.5 23.5t10 24t4.5 22t2 17.5q1 8 2 14t6 11q1 2 3.5 4t0.5 4zM385 581q-11 -14 -16 -20.5t-7 -15.5l-47 -12q2 13 12 26.5t22 26.5q9 10 13.5 22t4 22t-6 17.5t-17.5 8.5q-27 3 -49 -24l-15 11q8 16 26.5 27
t42.5 13q15 1 30 -5.5t23 -19.5t5.5 -32.5t-21.5 -44.5z" />
    <glyph glyph-name="uni1EED" unicode="&#x1b0;&#x309;" horiz-adv-x="442" 
d="M385 376q-1 -12 -2.5 -34t-21.5 -47q-10 -14 -27.5 -24t-37.5 -14l3 18q3 17 8 38.5t10 41.5l-56 -23l-16 -85q-6 -31 -19.5 -63.5t-34.5 -63.5q-42 -63 -73 -63q-11 0 -9 20l6 52v-1q6 38 12.5 78t11.5 78q3 12 3 22q3 44 -24 44q-20 0 -55 -37q-16 -17 -25 -32.5
t-10 -27.5q0 -4 2 -8t9 -9q27 62 47 62q2 0 3 -5.5t1 -10.5q0 -1 -1.5 -9t-3.5 -20.5t-4 -28t-5 -31.5q-6 -38 -13 -86q-3 -20 -4.5 -34.5t-2.5 -23.5q-3 -49 29 -49q14 0 32.5 12t37.5 32q16 16 34.5 39t33.5 47v-3l-10 -60l-4 -24v-5q-3 -38 21 -38q29 0 68 51
q13 19 20.5 32t7.5 20t-13 17q-27 -68 -50 -68q-4 0 -2 11q0 8 3 25q1 10 3 18q2 7 3 13.5t2 10.5l18 99q43 2 72 19.5t50 40.5q10 11 16.5 26.5t10 31.5t4.5 29.5t2 20.5zM242 424q-11 -14 -16 -20.5t-7 -15.5l-47 -12q2 13 12 26.5t22 26.5q9 10 13.5 22t4 22t-6 17.5
t-17.5 8.5q-27 3 -49 -24l-15 11q8 16 26.5 27t42.5 13q15 1 30 -5.5t23 -19.5t5.5 -32.5t-21.5 -44.5z" />
    <glyph glyph-name="uni1EEE" unicode="&#x1af;&#x303;" horiz-adv-x="519" 
d="M598 561q2 -2 -0.5 -4t-3.5 -4q-5 -5 -6 -11t-2 -14q-1 -7 -2 -17.5t-4.5 -22t-10 -24t-16.5 -23.5q-20 -22 -48.5 -38.5t-68.5 -20.5q-1 -6 -1.5 -11.5t-1.5 -11.5l-31 -200q-2 -15 -3.5 -26t-2.5 -21q-3 -31 15 -31q7 0 18 4.5t25 12.5q0 -2 -0.5 -5t-0.5 -6v-7l1 3
q0 -7 -5 -12t-14 -11l-17 -10l-93 -54l17 104q-29 -45 -63 -72.5t-67 -27.5q-21 0 -36.5 11t-26 29.5t-15.5 42t-5 49.5q0 16 2 30.5t5 28.5q5 21 12 53.5t14 67.5q8 42 15.5 78.5t12.5 53.5h-18q-56 0 -78.5 -24t-26.5 -70q-1 -27 11 -61l-57 -64q-6 34 -4 64q6 92 65 148
q29 29 59 42t75 13h49q-9 -17 -19.5 -57t-21 -86.5t-19 -90.5t-12.5 -68q-3 -15 -4 -28.5t-1 -25.5q0 -41 13 -66t38 -25q11 0 23 6.5t23 15.5t19.5 19.5t12.5 19.5q16 29 27.5 69t20.5 94l29 185q3 17 19 29.5t34 19.5q9 3 16 1.5t5 -7.5l-14 -29q-4 -14 -7 -27.5t-5 -29.5
q17 5 32 14.5t25 21.5q19 25 22.5 47t4.5 34q0 6 4.5 14.5t15.5 13.5q5 2 13.5 3.5t16.5 2.5t14.5 0.5t7.5 -1.5zM407 622q3 0 5 -2q3 -4 5 -11v-2q-1 -18 -22 -47q-20 -29 -34 -29q-9 0 -20 8l-33 26q-10 8 -16 8q-15 0 -31 -41l-1 -3l-2 2q-8 4 -8 14q2 22 21 47
q20 28 36 28q8 0 16 -7l35 -27q8 -7 16 -7q5 0 13 7.5t19 33.5z" />
    <glyph glyph-name="uni1EEF" unicode="&#x1b0;&#x303;" horiz-adv-x="442" 
d="M445 397q-1 -7 -2 -20.5t-4.5 -29.5t-10 -31.5t-16.5 -26.5q-21 -23 -50 -40.5t-72 -19.5l-18 -99q-1 -4 -2 -10.5t-3 -13.5q-2 -8 -3 -18q-3 -17 -3 -25q-2 -11 2 -11q23 0 50 68q13 -10 13 -17t-7.5 -20t-20.5 -32q-39 -51 -68 -51q-24 0 -21 38v5l4 24l10 60v3
q-15 -24 -33.5 -47t-34.5 -39q-19 -20 -37.5 -32t-32.5 -12q-32 0 -29 49q1 9 2.5 23.5t4.5 34.5q7 48 13 86q3 16 5 31.5t4 28t3.5 20.5t1.5 9q0 5 -1 10.5t-3 5.5q-20 0 -47 -62q-7 5 -9 9t-2 8q1 12 10 27.5t25 32.5q35 37 55 37q27 0 24 -44q0 -10 -3 -22
q-5 -38 -11.5 -78t-12.5 -78v1l-6 -52q-2 -20 9 -20q31 0 73 63q21 31 34.5 63.5t19.5 63.5l16 85l56 23q-5 -20 -10 -41.5t-8 -38.5l-3 -18q20 4 37.5 14t27.5 24q20 25 21.5 47t2.5 34zM296 491q3 0 5 -2q3 -4 5 -11v-2q-1 -18 -22 -47q-20 -29 -34 -29q-9 0 -20 8l-33 26
q-10 8 -16 8q-15 0 -31 -41l-1 -3l-2 2q-8 4 -8 14q2 22 21 47q20 28 36 28q8 0 16 -7l35 -27q8 -7 16 -7q5 0 13 7.5t19 33.5z" />
    <glyph glyph-name="uni1EF0" unicode="&#x1af;&#x323;" horiz-adv-x="519" 
d="M598 561q2 -2 -0.5 -4t-3.5 -4q-5 -5 -6 -11t-2 -14q-1 -7 -2 -17.5t-4.5 -22t-10 -24t-16.5 -23.5q-20 -22 -48.5 -38.5t-68.5 -20.5q-1 -6 -1.5 -11.5t-1.5 -11.5l-31 -200q-2 -15 -3.5 -26t-2.5 -21q-3 -31 15 -31q7 0 18 4.5t25 12.5q0 -2 -0.5 -5t-0.5 -6v-7l1 3
q0 -7 -5 -12t-14 -11l-17 -10l-93 -54l17 104q-29 -45 -63 -72.5t-67 -27.5q-21 0 -36.5 11t-26 29.5t-15.5 42t-5 49.5q0 16 2 30.5t5 28.5q5 21 12 53.5t14 67.5q8 42 15.5 78.5t12.5 53.5h-18q-56 0 -78.5 -24t-26.5 -70q-1 -27 11 -61l-57 -64q-6 34 -4 64q6 92 65 148
q29 29 59 42t75 13h49q-9 -17 -19.5 -57t-21 -86.5t-19 -90.5t-12.5 -68q-3 -15 -4 -28.5t-1 -25.5q0 -41 13 -66t38 -25q11 0 23 6.5t23 15.5t19.5 19.5t12.5 19.5q16 29 27.5 69t20.5 94l29 185q3 17 19 29.5t34 19.5q9 3 16 1.5t5 -7.5l-14 -29q-4 -14 -7 -27.5t-5 -29.5
q17 5 32 14.5t25 21.5q19 25 22.5 47t4.5 34q0 6 4.5 14.5t15.5 13.5q5 2 13.5 3.5t16.5 2.5t14.5 0.5t7.5 -1.5zM253 -119q-3 14 -7.5 23t-9.5 14q-5 6 -11 10l44 45q5 -5 10 -12q5 -6 9.5 -14t8.5 -19z" />
    <glyph glyph-name="uni1EF1" unicode="&#x1b0;&#x323;" horiz-adv-x="442" 
d="M445 397q-1 -7 -2 -20.5t-4.5 -29.5t-10 -31.5t-16.5 -26.5q-21 -23 -50 -40.5t-72 -19.5l-18 -99q-1 -4 -2 -10.5t-3 -13.5q-2 -8 -3 -18q-3 -17 -3 -25q-2 -11 2 -11q23 0 50 68q13 -10 13 -17t-7.5 -20t-20.5 -32q-39 -51 -68 -51q-24 0 -21 38v5l4 24l10 60v3
q-15 -24 -33.5 -47t-34.5 -39q-19 -20 -37.5 -32t-32.5 -12q-32 0 -29 49q1 9 2.5 23.5t4.5 34.5q7 48 13 86q3 16 5 31.5t4 28t3.5 20.5t1.5 9q0 5 -1 10.5t-3 5.5q-20 0 -47 -62q-7 5 -9 9t-2 8q1 12 10 27.5t25 32.5q35 37 55 37q27 0 24 -44q0 -10 -3 -22
q-5 -38 -11.5 -78t-12.5 -78v1l-6 -52q-2 -20 9 -20q31 0 73 63q21 31 34.5 63.5t19.5 63.5l16 85l56 23q-5 -20 -10 -41.5t-8 -38.5l-3 -18q20 4 37.5 14t27.5 24q20 25 21.5 47t2.5 34zM150 -119q-3 14 -7.5 23t-9.5 14q-5 6 -11 10l44 45q5 -5 10 -12q5 -6 9.5 -14
t8.5 -19z" />
    <glyph glyph-name="Ygrave" unicode="Y&#x300;" horiz-adv-x="409" 
d="M383 506q18 0 39 -18l-41 -61q-13 12 -25 12q-41 0 -88 -83q-23 -38 -38 -75.5t-23 -79.5l-3 -13l-21 -116q0 -7 -3.5 -13.5t-6.5 -10.5h-1q16 -6 30 -6q2 0 8.5 2t8.5 4q7 5 12 0t-6 -17q-17 -20 -30.5 -26t-19.5 -4q-3 0 -9 2q-9 2 -21.5 5t-21.5 4q-2 0 -8.5 -2.5
t-13.5 -4.5q-10 -4 -14 -4q-3 0 -3.5 4t1 9t4.5 10t6 8q10 7 17 13.5t12 15.5t8.5 22t6.5 34l13 72q1 5 1.5 10.5t0.5 10.5q1 9 1 18v18q0 33 -4 65t-14 64q-23 78 -49 78q-20 0 -39 -45q-17 7 -15 19q1 22 27 51q27 28 45 28q42 0 71 -75q23 -63 29 -154q15 44 34.5 83.5
t42.5 71.5q54 74 100 74zM223 510q-37 31 -56 104l28 31q22 -71 56 -100z" />
    <glyph glyph-name="ygrave" unicode="y&#x300;" horiz-adv-x="334" 
d="M195 382l-85 110h68l56 -110h-39zM322 338q-6 -15 -11 -35.5t-11 -48.5l-54 -234q-32 -136 -83 -204q-79 -100 -169 -100q-19 0 -48 13l43 54q12 -8 26 -11t28 -3q55 0 87 44q15 23 29 67t30 104q8 29 16 63.5t16 75.5q-12 -22 -25.5 -43t-27.5 -36q-37 -43 -56 -43
q-14 0 -20.5 22.5t-7.5 51.5q2 42 3 88t3 88q0 18 -1.5 35t-7.5 18q-10 2 -20.5 -13t-23.5 -42q-7 5 -9.5 10t-3.5 10q-1 6 8.5 21t23.5 30q27 32 49 32q10 0 17 -6.5t11 -16.5q6 -21 5 -74q-1 -30 -2 -60.5t-2 -61.5q-1 -35 1.5 -50.5t7.5 -15.5q11 0 25 15t31 47
q19 32 31 63.5t20 63.5l9 37q0 2 0.5 3t0.5 3q3 18 19.5 31t27.5 19q7 4 12.5 4t6.5 -5z" />
    <glyph glyph-name="uni1EF4" unicode="Y&#x323;" horiz-adv-x="409" 
d="M383 506q18 0 39 -18l-41 -61q-13 12 -25 12q-41 0 -88 -83q-23 -38 -38 -75.5t-23 -79.5l-3 -13l-21 -116q0 -7 -3.5 -13.5t-6.5 -10.5h-1q16 -6 30 -6q2 0 8.5 2t8.5 4q7 5 12 0t-6 -17q-17 -20 -30.5 -26t-19.5 -4q-3 0 -9 2q-9 2 -21.5 5t-21.5 4q-2 0 -8.5 -2.5
t-13.5 -4.5q-10 -4 -14 -4q-3 0 -3.5 4t1 9t4.5 10t6 8q10 7 17 13.5t12 15.5t8.5 22t6.5 34l13 72q1 5 1.5 10.5t0.5 10.5q1 9 1 18v18q0 33 -4 65t-14 64q-23 78 -49 78q-20 0 -39 -45q-17 7 -15 19q1 22 27 51q27 28 45 28q42 0 71 -75q23 -63 29 -154q15 44 34.5 83.5
t42.5 71.5q54 74 100 74zM171 -72q-4 11 -8.5 19t-9.5 14q-5 7 -10 12l-44 -45q6 -4 11 -10q5 -5 9.5 -14t7.5 -23z" />
    <glyph glyph-name="uni1EF5" unicode="y&#x323;" horiz-adv-x="334" 
d="M152 -72q-4 11 -8.5 19t-9.5 14q-5 7 -10 12l-44 -45q6 -4 11 -10q5 -5 9.5 -14t7.5 -23zM322 338q-6 -15 -11 -35.5t-11 -48.5l-54 -234q-32 -136 -83 -204q-79 -100 -169 -100q-19 0 -48 13l43 54q12 -8 26 -11t28 -3q55 0 87 44q15 23 29 67t30 104q8 29 16 63.5
t16 75.5q-12 -22 -25.5 -43t-27.5 -36q-37 -43 -56 -43q-14 0 -20.5 22.5t-7.5 51.5q2 42 3 88t3 88q0 18 -1.5 35t-7.5 18q-10 2 -20.5 -13t-23.5 -42q-7 5 -9.5 10t-3.5 10q-1 6 8.5 21t23.5 30q27 32 49 32q10 0 17 -6.5t11 -16.5q6 -21 5 -74q-1 -30 -2 -60.5t-2 -61.5
q-1 -35 1.5 -50.5t7.5 -15.5q11 0 25 15t31 47q19 32 31 63.5t20 63.5l9 37q0 2 0.5 3t0.5 3q3 18 19.5 31t27.5 19q7 4 12.5 4t6.5 -5z" />
    <glyph glyph-name="uni1EF6" unicode="Y&#x309;" horiz-adv-x="409" 
d="M383 506q18 0 39 -18l-41 -61q-13 12 -25 12q-41 0 -88 -83q-23 -38 -38 -75.5t-23 -79.5l-3 -13l-21 -116q0 -7 -3.5 -13.5t-6.5 -10.5h-1q16 -6 30 -6q2 0 8.5 2t8.5 4q7 5 12 0t-6 -17q-17 -20 -30.5 -26t-19.5 -4q-3 0 -9 2q-9 2 -21.5 5t-21.5 4q-2 0 -8.5 -2.5
t-13.5 -4.5q-10 -4 -14 -4q-3 0 -3.5 4t1 9t4.5 10t6 8q10 7 17 13.5t12 15.5t8.5 22t6.5 34l13 72q1 5 1.5 10.5t0.5 10.5q1 9 1 18v18q0 33 -4 65t-14 64q-23 78 -49 78q-20 0 -39 -45q-17 7 -15 19q1 22 27 51q27 28 45 28q42 0 71 -75q23 -63 29 -154q15 44 34.5 83.5
t42.5 71.5q54 74 100 74zM281 581q-11 -14 -16 -20.5t-7 -15.5l-47 -12q2 13 12 26.5t22 26.5q9 10 13.5 22t4 22t-6 17.5t-17.5 8.5q-27 3 -49 -24l-15 11q8 16 26.5 27t42.5 13q15 1 30 -5.5t23 -19.5t5.5 -32.5t-21.5 -44.5z" />
    <glyph glyph-name="uni1EF7" unicode="y&#x309;" horiz-adv-x="334" 
d="M322 338q-6 -15 -11 -35.5t-11 -48.5l-54 -234q-32 -136 -83 -204q-79 -100 -169 -100q-19 0 -48 13l43 54q12 -8 26 -11t28 -3q55 0 87 44q15 23 29 67t30 104q8 29 16 63.5t16 75.5q-12 -22 -25.5 -43t-27.5 -36q-37 -43 -56 -43q-14 0 -20.5 22.5t-7.5 51.5q2 42 3 88
t3 88q0 18 -1.5 35t-7.5 18q-10 2 -20.5 -13t-23.5 -42q-7 5 -9.5 10t-3.5 10q-1 6 8.5 21t23.5 30q27 32 49 32q10 0 17 -6.5t11 -16.5q6 -21 5 -74q-1 -30 -2 -60.5t-2 -61.5q-1 -35 1.5 -50.5t7.5 -15.5q11 0 25 15t31 47q19 32 31 63.5t20 63.5l9 37q0 2 0.5 3t0.5 3
q3 18 19.5 31t27.5 19q7 4 12.5 4t6.5 -5zM255 436q-11 -14 -16 -20.5t-7 -15.5l-47 -12q2 13 12 26.5t22 26.5q9 10 13.5 22t4 22t-6 17.5t-17.5 8.5q-27 3 -49 -24l-15 11q8 16 26.5 27t42.5 13q15 1 30 -5.5t23 -19.5t5.5 -32.5t-21.5 -44.5z" />
    <glyph glyph-name="uni1EF8" unicode="Y&#x303;" horiz-adv-x="409" 
d="M383 506q18 0 39 -18l-41 -61q-13 12 -25 12q-41 0 -88 -83q-23 -38 -38 -75.5t-23 -79.5l-3 -13l-21 -116q0 -7 -3.5 -13.5t-6.5 -10.5h-1q16 -6 30 -6q2 0 8.5 2t8.5 4q7 5 12 0t-6 -17q-17 -20 -30.5 -26t-19.5 -4q-3 0 -9 2q-9 2 -21.5 5t-21.5 4q-2 0 -8.5 -2.5
t-13.5 -4.5q-10 -4 -14 -4q-3 0 -3.5 4t1 9t4.5 10t6 8q10 7 17 13.5t12 15.5t8.5 22t6.5 34l13 72q1 5 1.5 10.5t0.5 10.5q1 9 1 18v18q0 33 -4 65t-14 64q-23 78 -49 78q-20 0 -39 -45q-17 7 -15 19q1 22 27 51q27 28 45 28q42 0 71 -75q23 -63 29 -154q15 44 34.5 83.5
t42.5 71.5q54 74 100 74zM327 622q3 0 5 -2q3 -4 5 -11v-2q-1 -18 -22 -47q-20 -29 -34 -29q-9 0 -20 8l-33 26q-10 8 -16 8q-15 0 -31 -41l-1 -3l-2 2q-8 4 -8 14q2 22 21 47q20 28 36 28q8 0 16 -7l35 -27q8 -7 16 -7q5 0 13 7.5t19 33.5z" />
    <glyph glyph-name="uni1EF9" unicode="y&#x303;" horiz-adv-x="334" 
d="M322 338q-6 -15 -11 -35.5t-11 -48.5l-54 -234q-32 -136 -83 -204q-79 -100 -169 -100q-19 0 -48 13l43 54q12 -8 26 -11t28 -3q55 0 87 44q15 23 29 67t30 104q8 29 16 63.5t16 75.5q-12 -22 -25.5 -43t-27.5 -36q-37 -43 -56 -43q-14 0 -20.5 22.5t-7.5 51.5q2 42 3 88
t3 88q0 18 -1.5 35t-7.5 18q-10 2 -20.5 -13t-23.5 -42q-7 5 -9.5 10t-3.5 10q-1 6 8.5 21t23.5 30q27 32 49 32q10 0 17 -6.5t11 -16.5q6 -21 5 -74q-1 -30 -2 -60.5t-2 -61.5q-1 -35 1.5 -50.5t7.5 -15.5q11 0 25 15t31 47q19 32 31 63.5t20 63.5l9 37q0 2 0.5 3t0.5 3
q3 18 19.5 31t27.5 19q7 4 12.5 4t6.5 -5zM283 482q3 0 5 -2q3 -4 5 -11v-2q-1 -18 -22 -47q-20 -29 -34 -29q-9 0 -20 8l-33 26q-10 8 -16 8q-15 0 -31 -41l-1 -3l-2 2q-8 4 -8 14q2 22 21 47q20 28 36 28q8 0 16 -7l35 -27q8 -7 16 -7q5 0 13 7.5t19 33.5z" />
    <glyph glyph-name="uni0E4F.liga" unicode="&#xe4f;&#x22;" horiz-adv-x="453" 
d="M198 358q9 23 17 49q7 23 12 51.5t5 60.5l47 13q-2 -61 -18.5 -101t-30.5 -64zM275 358q9 23 17 49q7 23 12 51.5t5 60.5l47 13q-2 -61 -18.5 -101t-30.5 -64zM256 315q-37 0 -70.5 -11.5t-60.5 -32t-45 -49.5t-22 -64q-4 -36 6 -64.5t31.5 -49t52 -32t67.5 -11.5
t71.5 11t62.5 31.5t46 49t23 64.5q4 36 -7 65t-33 49.5t-53.5 32t-68.5 11.5zM357 151q-5 -29 -18.5 -51t-33 -37t-43.5 -22.5t-48 -5.5q-48 2 -76 37t-19 93q4 28 17.5 51t32 38t42 22.5t47.5 6.5q24 -2 44 -12t34 -27t19.5 -41t1.5 -52zM247 254q-36 0 -63.5 -26.5
t-32.5 -70.5q-4 -44 18.5 -69.5t57.5 -26.5q18 0 34 6.5t29 19t21.5 30t10.5 39.5q5 44 -17.5 70.5t-57.5 27.5zM279 141q-14 -32 -33.5 -40.5t-37.5 -0.5q-11 3 -19 22.5t6 50.5q14 32 34 42t37 4q17 -8 22 -27.5t-9 -50.5z" />
    <glyph glyph-name="uni0E24.liga" unicode="&#xe24;&#xe32;" horiz-adv-x="546" 
d="M510 384l-74 -523q-2 -19 -13.5 -31.5t-23.5 -19.5q-4 -2 -8 -3t-6 0q-2 2 -2.5 4t-0.5 3q2 5 5 11q5 12 8 31l67 471q-17 -3 -28 2.5t-20 14t-19 15.5t-24 6q-14 -2 -23.5 -11.5t-17.5 -21.5l-27 -39q-3 -3 -6 -7l-6 -6t-7 -5l-58 -416q-2 -17 -15 -30t-22 -18t-14 -4
q-7 2 -3 10q4 6 7 18.5t4 17.5l68 481q-11 -3 -13 -3h-4q-11 0 -19 3t-14.5 7.5t-14 9.5t-16.5 9q-13 5 -23 5q-11 0 -21.5 -6t-21.5 -15l-6 -6q-1 -1 4.5 0t10.5 0q11 -2 25 -8t30 -15q4 -3 2 -6l-4 -6q-24 -35 -43.5 -69.5t-27.5 -76.5q11 14 23 26t24 13q4 0 5 -2
q9 -19 9.5 -46.5t-6 -55.5t-21 -52t-36.5 -36q-8 -5 -10 -3q-17 10 -25 29.5t-10 43t1.5 47.5t9.5 44q9 30 26 58t34 57q-9 5 -21 10.5t-22 5.5q-3 0 -6.5 -1t-5.5 -3q-5 -7 -11 -11.5t-9.5 -4.5t-3.5 4.5t6 15.5q7 13 17.5 28.5t23 30.5t26 28t27.5 20q17 8 31.5 7t30.5 -9
q1 -1 9 -6t18 -10.5t20.5 -10t18.5 -4.5q1 0 1 1t1 2q8 8 19 12t10 -1l-10 -72q7 11 12 19.5t8 13.5q4 6 6 10q23 34 49 48q33 16 62 -2q9 -6 20 -18t22 -16l4 -2t4 0q1 1 2 3t2 2.5t3 2.5q4 4 9 7t9 4.5t7 1.5t2 -2zM112 146q-3 0 -9 -7.5t-11 -16.5q-3 -17 -0.5 -30
t6.5 -22q4 -11 11 -18q3 9 6 28t4 38q1 15 -2 21t-5 7z" />
    <glyph glyph-name="uni0E26.liga" unicode="&#xe26;&#xe32;" horiz-adv-x="569" 
d="M313 384l-13 -90q11 17 18 28.5t12 19.5t8 13q23 34 49 48q33 16 62 -2q9 -6 20 -18t22 -16l4 -2t4 0q1 1 2 3t2 2.5t3 2.5q4 4 9 7t9 4.5t7 1.5t2 -2l-74 -523q-2 -19 -13.5 -31.5t-23.5 -19.5q-4 -2 -8 -3t-6 0q-2 2 -2.5 4t-0.5 3q2 5 5 11q5 12 8 31l67 471
q-17 -3 -28 2.5t-20 14t-19 15.5t-24 6q-14 -2 -23.5 -11.5t-17.5 -21.5l-27 -39q-5 -6 -10 -10t-9.5 -7.5t-9.5 -4.5l-57 -411q-2 -16 -14.5 -29.5t-22.5 -18.5q-9 -5 -14 -4q-7 2 -3 10q3 4 5 10l4 12q2 7 3 14l67 475q-8 -2 -14 -2q-15 0 -23.5 6t-15.5 13t-16 13t-24 6
q-13 0 -30 -12.5t-28 -24.5q4 1 11 3.5t12 0.5q6 -1 19 -8.5t21 -12.5q8 -4 6 -7q0 -2 -3.5 -4.5t-5.5 -5.5q-13 -13 -18 -27.5t-9 -41.5l-17 -121q4 -36 -8 -54q-19 -27 -34.5 -37.5t-22.5 -12.5q-4 0 -6 2q-4 5 -11 19t-12 35q-10 38 -5.5 55t9.5 25q4 7 10 15t12.5 15
t11 11.5l5.5 5.5q3 2 7 3q8 2 14 -3l7 50q2 8 9 19t18 23q-12 7 -23 12.5t-17 5.5q-7 0 -14 -4q-11 -10 -16 -15t-7 -3q-5 0 -3 8q0 4 6 15q9 15 21 31.5t26 31.5t28 27t27 19q31 16 65 -2q18 -11 28 -22t22 -14q5 7 11.5 11.5t12 7t9 2.5t3.5 -2zM83 46q3 2 10.5 10.5
t5.5 21.5q-2 20 -5 31.5t-5 18.5q-1 4 -3 8q-4 8 -9 5q-7 -5 -10 -11t-4 -12q-2 -7 -1 -14q2 -15 5.5 -28t6.5 -24q2 -4 3.5 -6.5t5.5 0.5z" />
    <glyph glyph-name="fi" unicode="fi" horiz-adv-x="383" 
d="M345 122q9 -8 9 -14q-1 -15 -28 -52q-37 -52 -68 -52q-24 0 -21 38q1 6 5 32q4 23 12 68t22 127q1 3 2 8.5t1.5 11t0 9.5t-3.5 4h-1q-10 -2 -18 -2h-111l-42 -282q-8 -48 -16 -84.5t-18 -61.5q-5 -12 -18 -37t-35.5 -50t-54.5 -44.5t-74 -21.5q-13 0 -38 11l45 50
q13 -6 24 -8.5t20 -2.5q38 0 64.5 39t37.5 114q13 88 26 180t27 180l3 18h-30q-10 -1 -18 -3t-14.5 -4t-11.5 -5q-8 0 -8.5 4t1.5 9q9 17 22.5 30t35.5 13h29q2 8 3.5 18t3.5 21q4 22 11.5 48t18 52.5t24.5 52.5t33 49q23 23 48 32t42 11q8 -1 13 0t8 3l6 3q5 2 6.5 -5
t-13.5 -21q-8 -8 -15.5 -9.5t-15.5 -2.5q-15 0 -33.5 -9t-29.5 -28q-20 -32 -32 -74.5t-19 -81.5q-1 -2 -2 -11t-3 -20q-2 -12 -5 -28h107q5 0 10 1t10 1.5t12 2.5q10 6 18 6h2h2q20 -3 19 -41q0 -4 -1 -12.5t-3 -16.5q-14 -72 -22 -115t-12 -65.5t-4.5 -29.5l-0.5 -7
q-2 -11 2 -11q21 0 48 64zM306 450q4 23 16.5 31t22.5 12q4 2 10 2.5t6 -0.5q-3 -19 -4.5 -30t-2.5 -17q-1 -7 -1 -10q-2 -14 -11.5 -24.5t-43.5 -18.5z" />
    <glyph glyph-name="fl" unicode="fl" horiz-adv-x="308" 
d="M405 635q5 2 6.5 -5t-13.5 -21q-8 -8 -18 -10q-2 -6 -5 -14t-8 -18q-17 -29 -27 -72.5t-16 -80.5l-43 -280q-3 -17 -4.5 -29t-2.5 -19q-3 -28 2 -28q10 0 23 19q8 13 13.5 24t10.5 27q13 -10 13 -20q-1 -13 -10.5 -30.5t-24.5 -34.5q-33 -38 -56 -38q-26 0 -25 48
q1 7 1.5 14.5t2.5 15.5q11 67 21.5 135.5t20.5 135.5q3 22 8.5 52t15 62.5t24 65t37.5 59.5l4 4q-12 0 -30 -0.5t-37.5 -5t-39 -14.5t-34.5 -28q-24 -29 -34.5 -67.5t-17.5 -77.5q-1 -2 -2 -11t-3 -20q-2 -12 -5 -28h25q9 0 18 2q8 2 17 3.5t17 5.5q6 0 7.5 -6.5t-3.5 -14.5
q-8 -14 -22.5 -24t-35.5 -10h-29l-42 -282q-8 -48 -16 -84.5t-18 -61.5q-5 -12 -18 -37t-35.5 -50t-54.5 -44.5t-74 -21.5q-13 0 -38 11l45 50q13 -6 24 -8.5t20 -2.5q38 0 64.5 39t37.5 114q13 88 26 180t27 180l3 18h-30q-10 -1 -18 -3t-14.5 -4t-11.5 -5q-8 0 -8.5 4
t1.5 9q9 17 22.5 30t35.5 13h29q6 36 13 72t17.5 67.5t25.5 57.5t38 44q29 22 57.5 31.5t53 11.5t43 0.5t27.5 -0.5q8 -1 13 0t8 3l6 3v0z" />
    <glyph glyph-name="karuda" unicode="LOGO&#x2e;karuda" horiz-adv-x="1001" 
d="M502 -123q-5 5 -9 16.5t-6 25.5l-1 6l-3 -2q-2 -2 -5 -4l-6 -4q-4 -2 -6.5 -4.5l-3.5 -3.5l-2 -2l3 -2q4 -1 4 -10q0 -13 -15 -14q-14 -2 -20 12q-2 3 -2 10q0 6 1 10.5t6 11.5q2 4 0 2q-3 -1 -7 -1.5t-7 0.5h-6l3 -3q6 -7 5 -11q0 -6 -7 -9q-4 -3 -10 -2t-11 6
q-7 6 -7 15t7 16q2 2 4 3t4 3q8 4 13 7.5t2 2.5q-6 -2 -16 -3t-17 -1q-10 1 -18 -4q-2 -2 -1 -3q5 0 6 -4.5t-2 -10.5q-4 -9 -15.5 -7.5t-17.5 12.5q-2 3 -2 9q0 9 10 20l6 5l-9 1h-12t-5 -1l-2 -1l2 -1q2 -2 4.5 -6t2.5 -6q0 -12 -20 -14q-11 0 -16 5q-5 4 -5 15
q0 20 20 31q5 3 9.5 4t12.5 2h8t5 2q2 2 3.5 2.5t3.5 1.5q3 1 3 3q0 4 -3 4q-1 0 -9 2t-12 2t-13 -2q-5 -1 -9.5 -1.5t-10.5 -0.5q-8 0 -10 -0.5t-5 -2.5t-5 -2.5t-10 -0.5h-10l-7 -4q-5 -2 -7 -2.5t-6 -0.5q-6 0 -8 1l-3 2l-5 -4q-4 -4 -5 -3q-1 2 -1.5 9t1.5 15v4l-3 -4
l-4 -3v3v5t1 8v11l-1 -1q-1 0 -1 -0.5t-1 -0.5l-4 -2v2q0 1 0.5 2.5t0.5 3.5q3 12 6 15q3 1 3 3q0 5 6 8q4 2 9 2.5t13 0.5q18 -1 33 -9q5 -4 12 0q6 3 11 3q2 1 4.5 1t3.5 1l5.5 5.5t9 9.5t8 9.5t2.5 5.5q-1 0 1 2q4 4 2 9t-5 6t-17 3l-12.5 2.5t-12.5 3.5q-30 11 -46.5 29
t-22.5 44q-2 7 -2 19t2 18q6 25 33 42q5 4 14.5 9t11.5 5t-4.5 5.5t-8.5 7.5q-5 5 -9 6q-12 4 -22.5 12.5t-15.5 19.5q-1 5 -7 9q-4 3 -9 9t-9 11q-3 4 -7 7q-27 15 -35 41q-1 2 -9 12q-7 6 -10.5 11.5t-7.5 12.5q-2 5 -4.5 10.5t-2.5 7.5q0 1 -4 7q-15 18 -15 39
q-1 5 -1.5 6l-2.5 5q-7 10 -11 23t-4 25q0 2 -0.5 4l-1.5 6q-4 8 -5 14t-1 17q0 19 4 30q1 3 0 8q0 2 -0.5 6t-0.5 9q1 8 2 15t3 15q2 5 2 6.5t-1 6.5q-1 7 -1 17t2 17q8 33 34 61q4 4 5 4q1 -1 1 -3q-2 -10 -2 -29t2 -33q5 -29 16 -55l3 -6l1 5q1 6 3 6l2 -3q4 -14 12 -33
t16 -33l4 -6l1 3q2 4 4 4q2 2 3 1q2 -4 2 -1q0 2 5 14q3 8 4 11t1 6q0 4 -0.5 5.5t-4.5 6.5q-5 8 -5.5 11.5t2.5 8.5q7 7 20 0l4 -2l3 3q4 3 11 8t12 7q15 7 32 7h9t5 -2q2 -2 5 -2q2 0 5.5 -2t4.5 -4q0 -1 2 -3q4 -2 6 -10v-4q0 -1 -1 -1h-4q-8 0 -17.5 -2t-15.5 -6
q-21 -12 -27 -39q-2 -5 -2.5 -14t-0.5 -14q1 -5 1 -5.5t2 -1.5q4 -3 8 -11q0 -2 0.5 -4t-0.5 -4q0 -6 1 -8l3 -3q3 0 7.5 -6t4.5 -9q0 -4 8 -8q18 -11 41 -33q6 -5 7.5 -6.5t6.5 -3.5q5 -1 11 -1q4 0 8 -0.5t6 -2.5q1 -2 3 0q4 1 10 -2q3 -2 10 -7.5t9 -7.5q1 -2 3 -2t16 -3
q11 -2 16 -7q1 -1 3 -1h2q1 0 1 1q-1 0 -1 1q-1 1 -1 1.5t-1 1.5q-7 8 -11 22.5t-4 29.5q0 10 -1 12q-4 7 -1 13l1 3l-2 3q-9 11 -4 25q1 4 0 10q-1 5 -1 15.5t1 16.5q0 2 0.5 3t0.5 2v2l2 -2q2 -3 7 -7t8 -6l5 -3v2v2l4 -2l3 -2v3q0 2 0.5 3.5t0.5 3.5q0 3 1 3q2 -1 9 -2
t10 -2h5v6q0 3 -0.5 6t0.5 6l1 5h3h3q1 4 1 7q0 6 1 7q0 3 3 3q2 1 4 -1t2 3q0 10 4 21.5t10 19.5l2 4t1 3q1 4 -1 9q-7 19 4 26q4 3 9 1.5t7 -6.5q2 -4 1 -24l-1 -8l3 -3q12 -20 13 -38q0 -2 0.5 -3t0.5 -3v-3q1 0 2 1q1 2 3.5 2t3.5 -2q2 -6 2 -10v-6h3q3 0 3 -3
q1 -2 1 -5.5v-6.5v-8h5q3 1 10 2t9 2q1 0 2 -6l1 -7l2 2q3 2 4 -1q0 -2 5.5 2t10.5 9l6 6l1 -2q1 -5 1 -18t-1 -18q-1 -8 1 -11q2 -6 0.5 -14t-6.5 -12l-1 -1l1 -4q3 -7 -1 -13q-1 -2 -1 -15q-1 -32 -15 -49l-3 -4l2 -1q3 0 5 2t6 3.5t9 2.5q9 2 11.5 2.5t3.5 0.5q3 0 7 4
q18 20 26 14q2 0 4 1q7 4 14 3q5 0 10 2q5 1 6.5 2t6.5 6q11 10 20.5 18t20.5 15q6 4 7.5 5.5t2.5 4.5q1 5 5 9.5t6 4.5q4 0 4 13q0 7 2 9q4 8 7 8q2 2 2 7t-0.5 14t-1.5 14q-9 40 -49 46q-2 1 -6 1h-6h-6q0 1 1 4q1 2 2 4.5t4 6.5l5 5t12 6q7 2 16.5 2t11.5 -1
q21 -3 39 -20l6 -4l3 2q11 7 19 1q3 -3 3 -5q3 -6 -4 -15q-6 -8 -6.5 -11.5t4.5 -15.5q2 -5 3.5 -8.5t2.5 -5.5q1 -3 2 -2q3 2 6 -4l2 -4l4 7q8 13 14.5 29t11.5 31q2 8 4 8t3 -5v-4q0 -1 1 -1t4.5 8t5.5 14q8 23 10.5 49.5t-1.5 49.5q0 6 5 1q9 -8 18 -22.5t13 -26.5
q3 -9 4.5 -16t1.5 -18q0 -5 -0.5 -9.5t-0.5 -6.5q-1 -3 -1 -4.5t2 -6.5q2 -8 3.5 -15t1.5 -15q0 -4 -0.5 -8t-0.5 -6q-1 -5 1 -10q10 -33 -3 -60q-1 -3 -1.5 -5t-0.5 -4q0 -12 -4 -25t-11 -23q-3 -6 -3 -8q0 -3 -1 -9t-3 -10q-3 -10 -11 -22q-3 -4 -6 -13q-4 -11 -9.5 -19.5
t-13.5 -17.5q-9 -9 -10 -13q-10 -26 -34 -40q-4 -2 -5.5 -3.5t-3.5 -4.5q-6 -10 -17 -19q-6 -6 -7 -8q-3 -8 -10.5 -16t-16.5 -13q-4 -2 -8.5 -3.5t-6.5 -1.5q-1 0 -2 -1t-1.5 -2t-1.5 -2q-2 -2 -5 -4.5t-5 -4.5l-4 -3l8 -3q41 -18 54 -44q3 -7 4.5 -12.5t1.5 -14.5
q0 -20 -9 -39q-4 -8 -8 -13t-10 -11q-10 -10 -21 -16.5t-29 -13.5q-9 -3 -13 -4t-12 -2q-13 -2 -16.5 -3t-5.5 -6q-1 -4 1 -7q3 -4 2 -4q0 -1 3 -5.5t7.5 -9.5t9 -9.5t6.5 -5.5q1 -1 3 -1t4 -1q5 0 7.5 -1t5.5 -3q4 -3 11 1q5 3 12 5t13 3q6 2 14.5 1.5t12.5 -2.5q8 -2 8 -8
q2 -3 3 -4q2 -2 3.5 -5.5t3.5 -14.5v-3l-5 3l-2 1v-5q0 -2 0.5 -6.5t0.5 -7.5q1 -7 0.5 -7.5t-5.5 3.5l-2 3v-3q2 -8 1.5 -17t-2.5 -9l-1 1q-1 1 -2 1.5t-2 1.5l-4 4l-3 -2q-2 -1 -8 -1q-4 0 -6 0.5t-7 2.5l-6 4h-11q-8 0 -9.5 0.5t-5.5 2.5q-5 2 -6.5 2.5t-9.5 0.5
q-6 0 -10.5 0.5t-9.5 1.5q-8 2 -11.5 2t-10.5 -2q-8 -2 -10 -2t-3 -3l-2 -2q0 -1 1 -1q1 -1 2 -1q2 -1 4 -1.5t4 -2.5t4 -2h9q14 -1 22 -6q16 -6 19 -23q1 -3 1 -9t-1 -8q-1 -5 -7 -9q-2 -1 -3.5 -1.5t-6.5 -0.5q-7 0 -11 2q-12 3 -12 12q0 2 2.5 6t4.5 6l2 1l-2 1
q-2 1 -5 1h-12l-8 -1l5 -5q19 -19 4 -33q-9 -10 -19 -8.5t-12 12.5q-1 2 -0.5 3.5t0.5 2.5q2 4 6 4q5 0 -3 4t-15 3q-7 0 -16.5 1t-17.5 3q-2 1 2.5 -2.5t10.5 -6.5q15 -9 16 -20q3 -15 -13 -22q-8 -4 -13 -1q-14 9 -6 18q2 2 2.5 3t1.5 2q2 1 1.5 1h-5.5q-2 -1 -5 -0.5
t-5 0.5q-1 0 -1.5 0.5t-1.5 0.5h-2q1 -1 1 -2q5 -9 7 -17q3 -22 -16 -27q-3 -1 -8 0t-8 3q-5 3 -5 11t5 10l2 2l-3 3q-2 2 -8 6q-2 2 -5 3.5t-5 3.5l-5 4l-1 -6q-3 -21 -9 -33q-2 -4 -5.5 -8t-5.5 -4l-1 1q-1 0 -3 2zM509 -120q13 13 16 56q1 14 0.5 27t-3.5 30
q0 2 -0.5 2.5t-0.5 2.5v3h-14h-15v-2q-5 -30 -3 -61.5t10 -48.5q4 -11 8 -11zM458 -116q6 3 6 9q0 5 -1 6q-3 3 -6 1q0 -2 -2 0q-1 1 0 3q2 6 14 14q5 3 10 7t6 5v15q-1 12 -0.5 21.5t2.5 24.5q0 2 0.5 4t0.5 4v3h-1l-2 1q-2 0 -3 1l-1 -5q-1 -10 -2.5 -20t-2.5 -14
q-7 -20 -25 -32q-15 -10 -17.5 -26t9.5 -22q2 -2 7 -2t8 2zM571 -116q13 7 8 26q-5 14 -17 22q-22 14 -26 39q-1 3 -1.5 8.5t-1.5 10.5q-1 2 -1 4.5v4.5t-1 3q0 1 -3.5 0t-3.5 -2q1 -2 2.5 -13t1.5 -19q1 -5 1 -10.5v-13.5q-1 -14 0 -15q2 -4 14 -11q9 -7 14 -13q2 -4 1 -5
q-2 -2 -2 0q-3 3 -5 -1q-2 -2 -2 -6t2 -6q2 -3 8.5 -4t11.5 1zM417 -96q9 6 3 13q-5 5 -7 2q-1 -1 -3 -1q-4 0 2 6q2 2 4 2.5t10 0.5q5 0 7 0.5t6 2.5q14 5 23 15.5t12 23.5q0 2 1 6.5t1.5 10t1 10t0.5 5.5v2l-10 2v-2q0 -1 -0.5 -1.5t-0.5 -1.5q-3 -13 -10.5 -23.5
t-17.5 -15.5q-2 -2 -4 -3t-4 -3q-8 -7 -12.5 -10t-9.5 -5q-10 -5 -13 -11q-6 -12 3 -21t18 -4zM610 -96q9 6 9 16q0 12 -13 19q-11 6 -21 14q-2 2 -4.5 3.5t-4.5 2.5q-23 14 -30 42l-2 4l-9 -2v-6q2 -14 4.5 -25.5t5.5 -16.5q2 -3 5.5 -7.5t5.5 -6.5q10 -8 22 -13
q3 -1 11 -1q10 0 14 -5q3 -4 0 -4q-2 0 -3 1q-2 3 -6 -1q-4 -6 -3 -8q2 -5 7 -7q2 -1 5.5 -0.5t6.5 1.5zM367 -76q4 4 4 9q0 3 -2 4q-2 2 -4 1q-3 0 -3 1q-1 2 6 8q5 3 8.5 4t12.5 1q39 0 60 21q11 13 16 31v2l-17 4l-2 -3q-2 -5 -6.5 -10.5t-8.5 -9.5q-8 -7 -15.5 -11
t-20.5 -6q-7 -2 -17.5 -3t-13.5 -1q-5 0 -11.5 -5.5t-9.5 -11.5q-2 -3 -2 -9t2 -8q6 -8 11 -9q7 -3 13 1zM659 -77q3 1 6.5 4.5t5.5 6.5q4 6 0 15q-2 4 -7 8.5t-8 6.5q-2 2 -14 3q-26 2 -39.5 7.5t-24.5 16.5q-3 3 -7.5 10t-5.5 9q-5 -1 -9 -2q-2 -1 -3.5 -1t-2.5 -1l-2 -1
q0 -2 2.5 -8.5t4.5 -9.5q8 -18 28 -28q17 -7 42 -7h11l5 -3q2 -1 4.5 -2.5t3.5 -2.5q3 -3 3 -5q-1 -1 -4 -1q-2 1 -4 -1q-2 -1 -2 -5q2 -14 17 -9zM324 -57q4 2 5 3q3 7 -3 13q-1 1 -4 1t-3 1q-1 1 1 3q4 4 7 4.5t16 0.5q14 0 24 0.5t22 2.5q16 3 25 7.5t17 12.5
q4 4 9.5 11.5t4.5 8.5l-17 6l-2 -2q-3 -5 -9.5 -10t-13.5 -8q-5 -2 -9.5 -3.5t-10.5 -2.5t-13.5 -1.5t-19.5 -0.5q-15 0 -20.5 -0.5t-7.5 -1.5q-22 -6 -25 -25q-3 -16 6 -21q3 -2 9.5 -1.5t11.5 2.5zM710 -58q9 3 7 19q-3 21 -25 27q-3 1 -8.5 1.5t-20.5 0.5q-21 1 -29 2
t-17 4q-8 2 -14 6q-4 2 -9.5 7t-7.5 8l-1 2l-16 -7q-2 0 3 -7q12 -21 34 -29q11 -3 28 -5t34 -2h15t6 -2q5 -2 6 -5t-4 -2q-3 0 -4 -1q-5 -4 -4.5 -8.5t5.5 -6.5q11 -6 22 -2zM367 -6q14 1 24 3.5t18 7.5q5 2 10.5 7.5t5.5 6.5q-1 0 -2 1t-1.5 1t-1.5 1q-2 1 -4 3l-3 -4
q-5 -6 -13 -12q-1 -1 -6 -2t-12 -3q-11 -3 -18.5 -5.5t-10.5 -4.5q-2 -1 1 -1h5.5t7.5 1zM663 -7q0 1 -4.5 3t-9.5 4q-2 0 -7.5 1.5t-12 3.5t-11.5 3.5t-6 1.5q-6 4 -12 12q-1 1 -1 2l-1 1l-6 -3l-4 -2q0 -1 3 -4q18 -19 54 -22q4 -1 7.5 -1h5.5h5zM227 0q2 2 2 5q-2 4 -3 5
l-2 2v-3q-1 -3 -1 -7.5t1 -4.5l1 1zM790 1v7q-1 3 -2 3q-4 -2 -4 -8q0 -1 2 -3t3 -2q1 -1 1 3zM252 2l7 3h10q8 1 9.5 1.5t6.5 2.5t6.5 2t9.5 1h9.5t9.5 2q14 3 25 0l6 -1l3 2q3 3 7 3q4 -1 5 2q2 3 0 8q-3 4 -5 5q-4 2 -5 2q-8 0 -12 4t-2 10t9 10q3 1 4 4q5 9 16 9h3
q4 5 8 9q8 8 6 8q-5 -2 -3 5q1 3 2 9t2 11v3l-4 -7q-11 -17 -25 -32t-31 -27q-8 -5 -10 -5l-1 2l2 1q1 1 2.5 1.5t3.5 2.5q37 25 59 64l2 4l-2 -2q-1 -1 -2 -1.5t-3 -2.5q-4 -2 -9 -9l-12.5 -12.5l-15 -15t-15 -13.5t-11.5 -9q-2 -2 -3 -1q-2 2 3 5q5 4 1 5q-3 0 -5 -2
q-6 -2 -10 -2q-10 -2 -12 -4l-6 -2q-3 0 -4.5 0.5t-7.5 3.5q-4 2 -8 3.5t-6 2.5q-9 2 -19 1.5t-15 -2.5q-6 -3 -3 -8q0 -1 0.5 -1t0.5 -1t1 -1q0 -1 6 -1q7 0 12 -1q5 -2 9 -1h11q7 0 9 1q6 3 13 2l5 -1l6 3q7 4 8 2q0 -1 -1 -1t-3 -1l-4 -2l-5 -3l-6 1q-8 0 -13 -2
q-2 -1 -9 -1h-5.5t-5.5 -1q-6 0 -10 1q-5 2 -8 1.5t-8 -5.5l-3 -3l2 -2q4 -6 4 -10q0 -2 1.5 -2.5t7.5 -1.5q4 0 9 0.5t7 2.5q3 3 15 4q8 2 11.5 3t10.5 4q9 4 9 2q0 -1 -1 -1t-2 -0.5t-2 -0.5q-9 -4 -14 -5.5t-12 -3.5q-7 -1 -8.5 -1.5t-6.5 -2.5q-8 -3 -16 -3q-7 0 -8 -1
q0 -1 -2 -1l-1 -1v-2l-2 -3l3 -2q5 -3 5 -9q0 -3 2 -4q6 -4 18 2zM779 0q2 1 2 4q0 6 5 9q3 2 2 5q-3 5 -14 5q-7 0 -12 2t-8.5 3t-9.5 2q-7 1 -11.5 2.5t-11.5 4.5t-7 4q0 3 8 -1q7 -3 11.5 -4l13.5 -3q4 -1 7.5 -2t6.5 -2q4 -2 5.5 -2.5t6.5 -0.5h10q3 1 3 3q0 6 4 10l2 2
l-4 3q-4 4 -5 4q-1 2 -4.5 1.5t-8.5 -2.5q-4 -1 -10 0q-5 2 -10 0q-5 0 -10 2q-3 2 -4.5 2t-6.5 -1l-6 -1l-4 3l-4 2t-3 1q-5 0 -2 3q2 1 10 -3q2 -2 3.5 -2h7.5q7 1 10 -1q2 -1 5 -1t10 -1h10.5t6.5 2q5 2 8 0q8 -1 8 1t2 4q4 6 -9 9q-11 2 -23 -0.5t-21 -7.5l-5 -2.5
t-4 -0.5q-3 1 -5 1t-4 2t-4 2t-5 1q-6 0 -10 2q-6 3 -7.5 2t3.5 -6q4 -2 2 -4q0 -2 -7 4q-11 10 -27 25t-24 24q-3 3 -8.5 8t-5.5 4q0 -2 7.5 -13t12.5 -18q10 -12 22.5 -23t22.5 -16q4 -3 3 -4t-2.5 -0.5t-7.5 4.5q-15 10 -30 26t-26 33q-2 2 -2.5 3.5t-1.5 2.5t-1 2
q0 -1 1 -9t2 -12q2 -6 1 -7h-2q-1 1 6 -9l6 -8h5q2 -1 4 -1t4 -1q5 -2 7 -8q2 -2 4 -3q6 -2 8 -7q2 -4 1 -8q0 -4 -4 -6.5t-9 -2.5q-3 0 -5 -2q-3 -2 -5.5 -5t-1.5 -6q1 -5 7 -4q4 0 6 -3l3 -2l6 1q11 3 26 0q5 -2 9 -2h9l10 -1l6 -3q5 -2 6.5 -2h8.5q5 0 7.5 -0.5t5.5 -1.5
l5 -2.5t5 -1.5q7 -4 13 0zM649 4l-4 11q-7 5 -2 14q4 9 15 10q9 1 9 7q0 3 -3 6q-5 5 -15 4q-6 -2 -13 -2q-17 0 -17 6q0 2 4 5.5t7 5.5l3 1q-5 6 -9 11t-7 8l-4 4t-5 4.5t-4 1.5q1 -3 1 -8.5t-1 -7.5l-4 -6t-4 -5l-3 -2l2 -3q1 -1 3 -2.5t5 -3.5q2 -2 4.5 -3.5t3.5 -3.5
q6 -8 6 -14q1 -3 0 -4t-9 -6q-2 -2 -3 -2.5t-2 -1.5t-2 -1q0 -2 5 -6.5t7 -6.5q1 -1 6.5 -2.5t12 -3.5t12 -3zM380 8q7 2 12 3t6 2q3 2 8.5 8t4.5 7q-2 0 -3 1q-2 1 -5 4q-5 4 -6 4.5t-1 2.5q0 5 4 11.5t9 10.5q2 2 4 3.5t4 2.5l4 3l-3 3q-10 6 -10 20l1 5l-4 -2
q-5 -2 -6.5 -3.5t-7.5 -9.5q-3 -4 -5.5 -7t-3.5 -3q-2 -2 1 -3q4 -2 7 -6q6 -5 2 -9q-2 -2 -11 -2t-16 1q-10 3 -16 -3q-3 -3 -3 -5q0 -7 10 -8q7 -1 11 -5q8 -10 2 -18q-2 -2 -2 -5q-2 -4 -2 -5l-1 -2q2 0 5 1q6 2 11 3zM531 9q11 2 22 4.5t21 7.5q11 5 24 12t13 9
q0 4 -5 9q0 2 -8 8q-3 2 -7 5.5t-7 6.5l-7 7l-6 -4q1 -3 2 -7q1 -3 1 -5.5t1 -4.5q4 -8 1 -5l-8 2l-10 4l-2 1l-1 -7q0 -5 -0.5 -6t-1.5 -2q-1 0 -4.5 2.5t-5.5 3.5l-4 3l-2 -6q-2 -6 -2 -8q0 -4 -3 -2t-11 10l-2 2l-3 -3q-7 -10 -7 -11q-1 -2 -2.5 -1.5t-2.5 3.5q-2 5 -5 6
l-3 3q-1 1 -2 3l-2 -3q-8 -8 -11 -9.5t-3 2.5q-1 1 -1 2t-0.5 2t-0.5 3q-1 3 -2 7q-3 -1 -5 -3l-6 -4q-4 -4 -5 6v7q-3 -1 -5 -2q-3 -1 -7 -3q-10 -2 -9 -2l1 7q1 3 2 8.5t1 6.5q1 1 -2 3l-2 2l-10 -9q-4 -4 -8 -7.5t-6 -5.5q-6 -4 -10 -13l-1 -3l5 -3q17 -11 38 -19.5
t40 -10.5h6t4 -1q4 0 17 0.5t19 1.5zM362 11q0 3 -1 3q-2 1 -4 -1q-4 -2 -1 -2q2 0 3 -1q2 -2 3 1zM657 11q2 0 0 2t-5 2q-2 -2 -1 -2v-1q0 -2 1 -2v-2l2 2q1 1 3 1zM223 26q2 0 1.5 4t-2.5 6l-2 3l-1 -3q0 -1 -0.5 -3.5t-0.5 -4.5v-7l2 3q1 0 1 0.5t1 0.5zM795 29
q0 3 -0.5 5t-0.5 3q-1 1 -3 -1q0 -3 -2 -5q0 -4 3 -7q0 -1 2 -1q1 0 1 -1v7zM512 46q1 0 2.5 2.5t1.5 3.5t-9.5 1t-9.5 -1q0 -5 5 -7q1 0 3 -4l2 -3l2 3q2 4 3 5zM491 50q0 1 0.5 1t0.5 1l1 1q-1 0 -7 2q-3 1 -7 2l-1 -1q-1 -2 2 -11l1 -3l5 3zM533 46q2 6 2 8v3l-14 -4
q-1 -1 4 -5q1 -2 3 -4q1 -1 2 -1q2 -2 3 3zM221 50q0 5 -3 4q-4 -4 -4 -7l-1 -4l4 2q4 2 4 5zM799 49q-4 7 -6 5q0 -1 -0.5 -2t-0.5 -2q0 -2 4 -5q4 -2 3 4zM471 55q3 1 3 3l-6 2q-3 0 -5 2q-1 1 -2 1v-5.5t1 -6.5v-2l3 2q1 1 2.5 1.5t3.5 2.5zM552 57v6l-6 -2l-4 -2
q-1 -1 -2 -1q-2 0 0 -1q0 -2 6 -4q5 -4 5 -2q1 1 1 6zM525 58q12 2 26 8.5t22 13.5l2 1l-2 3l-2 2l-5 -4q-9 -5 -19.5 -10t-21.5 -7q-7 -1 -18.5 -1t-18.5 1q-10 2 -20.5 7t-19.5 10l-6 4l-1 -2l-2 -2q0 -1 5.5 -4.5t10.5 -6.5q9 -5 20 -9t22 -5q5 -1 13 -1t15 2zM454 61
q3 3 4 3q0 1 -5 4t-8 4q-1 1 -3 -8q0 -6 -1 -6q0 -1 5 0q6 2 8 3zM571 59q-1 1 -1 2t-0.5 2t-0.5 3q-1 3 -1 6l-11 -6q-2 -2 -1 -2q0 -1 3.5 -2.5t7.5 -3.5q1 -1 4 -1h1q0 1 -1 2zM388 60q1 0 -1.5 2.5t-4.5 3.5q-3 2 -8.5 2.5t-8.5 -1.5q-2 0 -5 -3l-2 -3h3q2 -1 3.5 -1
t3.5 -1h11t9 1zM645 60q2 0 3.5 0.5t3.5 0.5h4l-3 3q-3 3 -5 3q-2 2 -8 1.5t-8 -2.5q-7 -2 -7 -6q0 -1 7.5 -1.5t12.5 1.5zM327 68l2 4q-1 1 -4 1t-5.5 -2.5t0.5 -2.5q1 0 2 -1l2 -2l1 1zM694 68q2 0 -0.5 2t-5.5 3q-3 0 -4 -1t2 -4l4 -3l1 2q1 0 1.5 0.5t1.5 0.5zM515 68
l-1 17h-17l-2 -8q-1 -2 -1 -6v-3q0 -1 2 -1h10h5q2 0 4 1zM493 85l-12 2l-8 -13q5 -2 9 -3q3 -1 5.5 -2t3.5 0q0 1 1 8t1 8zM537 72q1 1 0.5 2.5t-3.5 7.5q-2 5 -2.5 5.5t-2.5 -0.5q-1 0 -2.5 -0.5t-3.5 -0.5q-3 -1 -6 -1l2 -17zM341 81q7 7 11 10.5t10 10.5l6 6l-6 -3
l-4 -2l-4 -2q-3 -1 -2 -2q2 -2 1 -3q0 -1 -1 -1t-1 1q0 2 -4.5 1.5t-6.5 -2.5q-4 -4 0 -2q3 0 5 -2q2 -3 1 -4q-2 -2 -3 1q-1 2 -6 0q-3 -1 -4 -2t1 -1q5 0 5 -4t-4 0q-1 1 -4 0q-2 0 -4 -2q-1 -2 1 -2q3 -3 3 -2l2 -2zM682 75q2 2 4 2q1 0 0 2q-2 2 -4 2q-3 1 -4 0
q-2 -2 -3 -1q-2 1 0 3t4 2t1 1q-2 3 -8 3q-2 0 -2 -1q-1 -1 -3 -1q-2 1 0 3q1 3 6 3h2q0 2 -6 4q-2 0 -3 1q-2 0 -3 -1q-1 -2 -2 -2t-1 2q0 1 1 2t-2 3q-2 0 -4 1l-4 2l-4 2q-1 -1 4.5 -6t11.5 -11l17 -17zM429 77q6 8 15 22t14 23l2 4q0 1 -5 0.5t-11.5 -2t-12.5 -2.5
t-8 -2l-2 -2t-3 -6q-6 -12 -6.5 -19.5t4.5 -13.5q5 -5 9 -5l1 1q1 1 1.5 1t1.5 1zM555 80l-8 14l-12 -6q0 -1 3 -7.5t4 -6.5zM593 76q4 2 7 7.5t2 10.5q-1 3 -2.5 8t-4.5 10q-2 5 -3 6t-3 2q-3 1 -9 2.5t-12 2.5t-10.5 1.5t-4.5 -0.5q0 -3 9 -17.5t17 -25.5q6 -7 8 -8t6 1z
M477 87q1 1 -5 3.5t-6 1.5q-2 -2 -2.5 -3.5t-2.5 -3.5t-3 -4q1 -1 6 -3.5t6 -2.5q1 3 3 6zM569 89l-9 13l-10 -7l8 -13q1 0 2 1l4 2q3 2 5 4zM463 95l-10 7l-4 -6q-2 -4 -3 -5t-1 -2q2 -2 4 -3q3 -3 5 -3zM526 90q8 1 18 6q5 2 9.5 5t4.5 4l-2 4l-2 4t-2 5q-6 12 -11 24
t-9 25q-3 9 -4 11t-2 0q-1 -1 -0.5 -3t3.5 -12q4 -13 8.5 -27t7.5 -22q3 -5 3 -8l-1 -1q-2 -2 -3 -2q-25 -16 -50 -10q-8 2 -13 4t-13 7l-4 2l4 8q3 7 7.5 21t8.5 27q2 5 3 9t1 5t-1 2t-2 -1t-4 -10q-5 -14 -8.5 -23.5t-10.5 -22.5l-7 -16l1 -1q15 -12 36 -15q5 -1 17 -1
t17 2zM624 96q-1 2 -2 9t-1 12q-2 13 -5 19q-2 5 -8.5 10t-11.5 7l-1 1v-17v-17l3 -3q13 -14 17 -18t6 -5q2 0 2.5 -0.5t1.5 -0.5q-1 0 -1 1v2zM395 95l4 4t9 10l10 12v33l-2 -1q-8 -2 -12 -7q-5 -5 -7.5 -11t-3.5 -18q-2 -8 -2.5 -14t-1.5 -8q-1 -1 6 0zM513 95q12 2 23 8
q7 3 7.5 4t-1.5 6l-3 9t-4.5 13t-5 14.5t-3.5 12.5q-2 5 -3 8t-1 4l-4 -6q-2 -2 -3.5 -5l-2.5 -5q-4 -8 -6 -8l-2 1q0 4 -4 9q-5 14 -9 14q-1 0 -1 -1v-4q-4 -13 -9.5 -30t-9.5 -25q-2 -6 -1.5 -7t7.5 -4q10 -6 25 -8h4h7zM353 105q20 7 32 19q3 3 4.5 5t4.5 9q6 17 -8 17
h-4l-18 -26q-8 -11 -12 -18q-3 -4 -5 -8q-2 -2 6 2zM662 110q-2 3 -7.5 10.5t-10.5 15.5q-9 14 -11 16.5t-4 2.5q-14 0 -11 -14t20 -25q5 -4 15.5 -8.5t12.5 -5.5q2 0 -4 8zM349 116l3 3l-3 -1h-3q-1 0 -1 -1.5t1 -2.5q0 -1 1 -1t1 1t1 2zM668 116l-1 2h-3l-3 1l3 -3
q0 -2 2 -2l1 -1v1q1 1 1 2zM342 115q0 2 -2 2q-1 0 0 -2q2 -2 2 0zM673 115q1 2 0 2q-2 0 -2 -2v-2zM687 122q5 1 6 1.5t1 2.5q0 4 3 7q-5 -2 -10 1q-1 0 -1.5 0.5t-1.5 0.5q-3 0 -9 -7q-4 -4 -4 -7q1 -1 4.5 -1h5.5q1 1 2.5 1t3.5 1zM342 121v1q-1 1 -1 2q-1 2 -4.5 6
t-5.5 5q-1 0 -7 -2q-5 -1 -7 0l-1 1l1 -3q2 -2 2 -5t3 -4q5 0 7 -1q3 -1 7.5 -1t5.5 1zM352 123q6 2 4 4q-1 0 -1 2l-1 3l-4 -1h-6h-3l2 -4q0 -1 0.5 -1t0.5 -1t1 -2q0 -3 7 0zM668 123q0 1 2 5l2 3h-2h-7l-4 1v-3l-2 -2q-2 -2 2 -4q3 -1 4 -1.5t3 -0.5t2 2zM316 125
q0 3 -3 6l-4 4h-4q-2 -1 -6 -1q-2 0 -2 -3q0 -4 3 -5q5 -2 14 -3h2v2zM425 124l-1 1q-2 2 -2 0t2 -2zM591 125q0 2 -1 0q-2 -1 1 -2v2zM703 124q3 0 9 2l4 1v4v3h-3q-4 0 -6 1q-3 0 -6 -3q-4 -5 -4 -8q0 -1 1 -1t2 0.5t3 0.5zM436 126q5 2 5.5 2t0.5 2q1 2 0 2t-3 -2
q-1 -1 -2 -1h-3q-4 0 -8 1q-4 3 -4 1q0 -1 3 -3.5t4 -2.5t3 0.5t4 0.5zM587 128q1 0 3 2l1 1q0 2 -4 -1q-4 -1 -8 -1q-2 0 -3 0.5t-2 0.5q-3 3 -3 0q0 -2 1.5 -2.5t10.5 -2.5q1 0 4 3zM361 129q2 4 -1 4t-2 -3t3 -1zM655 130q1 3 -2 3h-3l2 -3q1 -4 3 0zM293 134q0 1 -6 1
h-8q-2 1 -1 0q1 0 9 -4l6 -2l1 1q0 3 -1 4zM458 131q7 2 3 4q-2 1 -7.5 1t-6.5 -1l-1 -7l5 1q5 0 7 2zM567 131q0 5 -8 5q-9 0 -7 -3q0 -1 5.5 -2.5t7.5 -1.5t2 2zM735 135q1 0 1.5 0.5t1.5 0.5t1 1q-10 -2 -15 -2q-4 0 -4 -1t-0.5 -2t-0.5 -2v-1l6 2q4 2 10 4zM438 134h2
q6 0 0 4q-1 2 -2 3t-2 3l-2 3l-4 -1q-6 0 -7 -0.5t-1 -4.5v-5l4 -2q2 -1 3.5 -1.5t4.5 0.5q4 0 4 1zM587 134l4 2v5q0 4 -1 4.5t-6 0.5l-5 1l-2 -3q0 -3 -4 -5q-3 -5 0 -5h2q3 -3 12 0zM350 135q4 0 3 3q-1 6 -4 7l-4 4l-1 1l-4 -1q-4 -2 -5 -2q-2 0 -1 -5q0 -2 0.5 -3
t0.5 -2q5 -5 15 -2zM675 135q4 3 4 8q0 4 -1 4t-5 2l-4 1l-1 -1q-1 -1 -1.5 -2t-2.5 -2q-3 -1 -4 -7q0 -3 2 -3q6 -2 13 0zM325 137q1 1 4 1q2 0 2 2q-1 2 -1 5q0 2 -4 5q-3 2 -4 2h-6l-7 1l1 -2q1 -1 1 -5q0 -8 4 -9q6 -1 10 0zM366 138q1 1 1 6l-2 6q-2 2 -9.5 2.5
t-8.5 -0.5l4 -4q4 -4 6 -10q0 -2 4 -2t5 2zM657 138q0 6 5 9q8 6 -3 5q-11 0 -11 -2q-1 -1 -1 -6q-1 -5 -0.5 -6.5t5.5 -1.5t5 2zM698 137l4 1v6q0 6 1 7q1 2 0.5 2t-5.5 -1q-7 0 -11 -2q-4 -3 -4 -5q0 -3 -1 -4q0 -3 2 -3q3 0 4 -1q4 -1 10 0zM307 138v2q0 1 0.5 1.5
t0.5 1.5v5l-6 6l-6 5l-4 -1h-5l1 -6q0 -8 5 -12q3 -4 11 -2h3zM720 140q5 5 5 12l1 6h-5l-4 1l-6 -5l-6 -6v-5v-5h4q7 -2 11 2zM287 141q-2 3 -2 9q-1 8 -6 10q-3 2 -11 2l-7 1l2 -2q5 -3 5 -12v-6q1 -1 5.5 -2.5t6.5 -1.5t3.5 -0.5t2.5 -0.5h4zM451 139l3 1l-1 2v4l1 4
l-5 1q-7 0 -8 1q-1 0 -2 -2q-2 -2 0 -4q0 -2 3 -5t4 -2h5zM570 140q3 3 4 5t0 5l-2 2q-1 -1 -7 -1l-6 -1l1 -2v-4t-1 -3q0 -1 3 -1q1 0 1.5 -0.5t1.5 -0.5h1q1 -1 4 1zM739 141l6 2v7q0 8 5 11l2 2l-7 -1q-10 0 -15 -4q-1 -2 -1 -6q0 -8 -4 -12l-2 -2h5q2 1 5.5 1.5t5.5 1.5
zM463 140q3 1 4 4v3q0 1 1 1q0 1 -5 1q-5 1 -6 0q-2 -4 0 -8q2 -2 6 -1zM556 141q1 3 0 7q0 2 -5 1h-6v-1q0 -1 0.5 -1.5t0.5 -1.5q1 -4 4 -4q4 -2 6 0zM264 156q-1 2 -6 4l-5 2l-3 -1q-1 -1 -2 -1t-1 -1q-1 -1 3.5 -5t9.5 -8l4 -3l1 5q0 3 -0.5 4.5t-0.5 3.5zM756 146
q2 2 4.5 4t4.5 3l3 4l-1 1q-1 1 -5 3q-3 1 -7 -1q-7 -2 -7 -12v-4q0 -1 1 -2q1 0 7 4zM373 148h-2q-1 0 -1 -2v-3l1 2q2 2 2 3zM644 146q0 4 -2 2h-2q0 -2 1 -3l2 -2v1q1 1 1 2zM615 150q1 3 -1 4l-4 4l-2 2l-2 -4q0 -1 -0.5 -1t-0.5 -1v-1q1 -2 5 -4q2 -1 3 -2q2 0 2 3z
M406 157l-1 3l-1 -2q-1 -1 -2 -1.5t-2 -1.5q-3 -2 -2 -3q0 -1 0.5 -1.5t0.5 -1.5q0 -2 5 2l4 3zM433 150q1 0 1 2q1 2 -3 5t-10 4q-7 0 -11 4l-2 1v-2q0 -2 0.5 -3t0.5 -3q3 -3 4 -2l9 1v-4v-4l6 1h5zM591 153q0 5 1 5q1 -1 2 -1t1.5 -0.5t1.5 -0.5l5 -2l1 3q1 1 1 2.5
t1 3.5v3l-4 -3q-3 -2 -9 -2q-3 -1 -4.5 -1t-3.5 -2q-5 -2 -5 -6q1 -2 5 -2q3 -1 6 -1q1 0 1 4zM340 152q3 1 2 4q0 4 -5 7q-2 2 -7.5 4t-6.5 2t-0.5 -4t1.5 -6q2 -4 4 -4l3 -3q1 -2 4 -2q1 0 5 2zM684 154q6 5 7 12q0 3 -1 3q-2 -1 -3 -1q-2 -1 -2.5 -1t-2.5 -1
q-12 -6 -11 -11q0 -2 4 -4q1 0 1.5 -0.5t1.5 -0.5h1q1 0 2 1zM378 154q2 4 4 4l1 1l-1 5l-2 6q-1 1 -7 2t-8 1h-4l1 -6q0 -6 2 -8q1 -1 1.5 -2t1.5 -2q3 -4 7 -4q1 0 4 3zM643 152q4 2 7 9q2 4 2 7v5h-5q-13 -2 -14 -3q-1 0 -1 -1v-4q-2 -4 -2 -5q0 -2 1 -2q2 0 4 -4
q2 -3 8 -2zM473 160l2 8q0 1 -3 1q-2 0 -12.5 2t-16.5 4q-65 18 -92 74q-9 19 -11 32q-2 7 -1 13l-19 -1l-1 -4q0 -11 3 -14q5 -5 6 -15q0 -8 2 -10q0 -1 1.5 -2.5l3.5 -3.5q8 -7 8 -15q0 -9 6 -13l5.5 -5.5t3.5 -5.5q0 -4 9 -8q2 -2 5 -3.5t5 -3.5q14 -14 20 -14t12 -6
t13 -6q7 -2 9 -3q8 -5 9.5 -5.5t9.5 -1.5q4 0 9.5 -1t7.5 -1h3zM558 153q10 2 13.5 2.5t6.5 3.5q5 2 7.5 3.5t5.5 1.5q7 0 12 5q7 7 13 7t21 14q2 2 5 3.5t5 3.5q5 2 6 3t3 5q4 11 8 11q3 0 5 6q1 2 1 6q-1 8 8 16q5 4 6 6.5t1 8.5q1 11 5 15q3 3 3 4q1 1 1 12v3l-5 1h-9
l-5 1v-3q-3 -17 -6 -26q-3 -8 -8.5 -19t-10.5 -18q-4 -6 -11.5 -13.5l-12.5 -12.5q-15 -12 -36.5 -21t-43.5 -12q-3 0 -5 -0.5t-3 -0.5l2 -8q3 -8 3.5 -8.5t3.5 -0.5q2 0 5 0.5t6 0.5zM362 157q-3 2 -4 10v6l-6 -1q-2 0 -4 -0.5t-3 -0.5q-2 0 -1 -3q0 -1 0.5 -2.5t0.5 -2.5
q0 -2 3 -4.5t6 -2.5q4 0 6 -1q4 -1 2 2zM659 156q7 2 9 5v3q0 1 0.5 2t0.5 2l1 3h-2q-1 0 -3.5 0.5t-4.5 0.5l-5 1v-6q0 -7 -4 -11l-1 -1h2q2 0 3.5 0.5t3.5 0.5zM321 159q-2 4 -2 7v4q-1 0 -2.5 0.5t-3.5 0.5q-6 0 -10 2l-4 2v-6q0 -5 0.5 -6t5.5 -5q3 -2 10 -2h7zM508 157
q0 2 3.5 8t6.5 9q8 9 9 16t-4 18l-2 5l-3 -1q-2 -1 -4.5 -1t-5.5 -1q-8 0 -12 2q-2 0 -2.5 0.5t-1.5 0.5h-1q0 -1 -1 -2l-3 -3q-6 -10 -5.5 -16t9.5 -13q4 -3 7.5 -8.5t6.5 -11.5q1 -5 3 -2zM500 186q-10 5 -4 14q3 6 9 6q5 1 8.5 -2.5t3.5 -8.5q0 -4 -1 -6q-5 -5 -10 -5
q-2 0 -6 2zM509 188q5 2 5 7q0 8 -8 8q-10 0 -8 -9q2 -5 5 -6q2 -1 6 0zM622 157l4 1l2 8l2 6v2q-4 1 -7 0q-2 0 -2.5 -0.5t-1.5 -0.5q-6 0 -9 -3q-2 -2 -1 -4q2 -6 7 -9l2 -1h1q2 0 3 1zM706 157q1 0 5 4l3 2v6v6l-3 -1q-2 -1 -5 -1.5t-5 -1.5h-7v-5q-1 -2 -1 -4t-1 -4
l-1 -2h6q7 0 9 1zM400 159q1 2 2 3t2 3l2 3l-2 2q-5 3 -10 3h-1q-1 0 -1.5 0.5t-1.5 0.5q-3 1 -6 0q-2 0 1 -8l2 -7l3 -1q5 -2 6 -1.5t4 2.5zM777 167q10 13 14 29.5t2 30.5q-3 14 -17 30q-6 7 -6 5l-1 -2q-2 0 -3 -1l-2 -1l2 -3q3 -4 5 -14q0 -4 2 -3q8 2 13 -1q4 -2 3 -3
q-2 -4 -2 -1l-4 2q-4 1 -8 0q-4 -2 -4 -3q-1 0 1 -7q2 -8 2 -9q0 -2 4 -3q11 -4 11 -7q-2 -2 -4 0q-1 1 -4.5 2.5t-5.5 1.5t-3 -3q-2 -2 -2 -8q0 -2 0.5 -4.5t0.5 -4.5v-3h3q7 0 10 -3q2 -1 1 -2t-4 0q-1 1 -7 1q-4 0 -7 -3q-2 -3 -2.5 -4t-0.5 -5q1 -2 0.5 -3t-0.5 -2
q-1 -1 2 -3q1 -1 1.5 -1t1.5 -1l1 -1q1 -1 2 0.5t5 6.5zM291 162h5v7q0 5 -0.5 6l-1.5 3q-2 2 -4 3t-8 1h-6l-1 -4q0 -5 1 -7q4 -10 10 -10h2q2 0 3 1zM732 163q6 6 6 16l-1 3h-6q-9 0 -12 -4q-1 -2 -1 -9v-7h3q7 -1 11 1zM248 163q2 2 2 3q-1 1 -1 6q0 3 -0.5 4.5t-2.5 3.5
l-3 3h-5q-6 0 -6 -1l1.5 -3.5t3.5 -7.5t4 -7t3 -3zM679 168l5 3h-5q-6 0 -7 -5q-1 -3 1 -1q1 0 2.5 1t3.5 2zM340 168q-2 3 -6 3h-6l5 -2q2 -1 3.5 -2t2.5 -1q2 -2 2.5 -1t-1.5 3zM274 167q-2 4 -2 10q1 10 -8 7q-6 -2 -10 -2h-5q0 -1 1 -2q2 -2 2 -7t1 -6q0 -1 11 -1h9t1 1
zM760 167q1 0 1 5q0 8 4 10h-5q-3 0 -5.5 0.5t-5.5 1.5t-6 1q-3 -2 -2 -8q0 -6 -2 -10q0 -1 1 -1h9h8q2 0 3 1zM477 174q1 4 -1 4t-11.5 2t-16.5 4q-13 5 -24 10.5t-22 13.5q-6 4 -14.5 12t-13.5 14q-21 27 -24 52q-1 6 -1.5 7t-3.5 1h-3v-3q5 -36 26 -63q30 -41 91 -53
l15 -2.5t3 1.5zM548 174q79 12 110 75q5 9 8.5 20.5t4.5 19.5v5h-3q-3 0 -4 -3q-2 -11 -4 -18t-6 -16q-14 -26 -37.5 -45.5t-55.5 -28.5q-6 -2 -14 -3.5t-10 -1.5t-1 -4q1 -2 2.5 -2t9.5 2zM335 175q0 1 -0.5 4t-0.5 7v9l-3 1q-1 0 -2 0.5t-3 0.5q-2 -1 -8 -1h-4v-5
q0 -6 3 -10q1 -1 1.5 -2t1.5 -2q3 -3 12 -3q3 0 3 1zM351 175q7 1 7.5 1.5t-0.5 5.5q-2 4 -4 7l-3 1.5t-4 0.5q-6 0 -7 1l-2 1l-1 -5q-2 -16 5 -14q1 0 3.5 0.5t5.5 0.5zM675 176q2 7 1 13v4l-2 -1q-2 -1 -8 -1q-3 0 -4 -0.5l-3 -1.5q-3 -3 -4 -7v-6q4 -1 8 -1q3 -1 6 -1h4z
M691 175q3 3 4 5q4 5 4 10v6h-5q-6 0 -7 1q-2 0 -3 -0.5t-2 -0.5l-3 -1v-9q0 -10 -1 -11q0 -1 5 -1q2 0 4 0.5t4 0.5zM379 176q0 1 0.5 1.5t0.5 1.5q1 2 0 4q-2 0 -4 2h-9q-4 0 -7 1q0 -1 0.5 -2t0.5 -3l1 -4l7 -1q7 -2 8.5 -2t1.5 2zM644 176l7 1l1 3q0 3 1 4v2h-7
q-5 -1 -8 -1.5t-5 -2.5q-1 -1 0 -4l1 -2q0 -1 1 -1q4 0 9 1zM314 177l2 1l-2 2q-2 2 -3 6t0 8q0 4 -2 5t-8.5 1t-6.5 -1q-1 -1 -1 -6q-1 -8 5 -13q5 -3 8 -3.5t8 0.5zM714 180q5 2 5.5 3.5t0.5 6.5v7l-1 3h-7q-7 0 -8 -1q-2 -1 -2 -6q0 -11 -3 -13l-2 -2l2 -1q9 -2 15 3z
M480 182q0 3 -1 5q-2 6 0 13q2 4 1 4t-4 -3q-4 -6 -13 -7q-3 0 -9 -2t-8 -3q-1 -1 9.5 -3t19.5 -4q5 -2 5 0zM544 183q8 2 16 3.5t7 2.5q-2 2 -8 3.5t-9 1.5q-11 2 -14 8q-1 2 -4 2l-2 -1h-1v-1q0 -1 1 -2q0 -2 0.5 -3.5t0.5 -2.5q0 -3 1 -8t3 -5q1 1 3 1q3 0 6 1zM289 203
q-1 1 -8 1q-7 1 -8 2q-2 2 -3 2v-2q0 -1 -0.5 -2t-0.5 -3q0 -9 4 -13q2 -2 9 -3h7l1 8v7t-1 3zM740 188q4 4 4 12q0 1 -0.5 2t-0.5 2v2v2l-4 -2q-4 -2 -7 -2q-6 0 -7 -1q-2 -2 -2 -3v-7l1 -8h7q5 1 6 1t3 2zM237 187h5l1 5q0 12 -2 15q-1 5 -9 1q-5 -2 -6 -3.5t1 -9.5
q4 -10 5 -9h2q1 0 1.5 0.5t1.5 0.5zM264 187q4 1 3 3v10v9h-10q-10 0 -11 1h-2l1 -3q1 -2 1.5 -4t-0.5 -8v-7.5t1 -1.5q2 -1 8 -0.5t9 1.5zM766 186q1 0 1 1.5v8.5q0 10 1 12l2 2h-3q-1 -1 -11 -1h-10l1 -9q0 -2 -0.5 -3.5t-0.5 -3.5v-3q-1 -2 7 -4t13 0zM371 190q-3 3 -6 4
q-2 0 -4 2q-1 1 -2 1q-1 1 -1.5 -1t0.5 -4t2 -2.5t7 -0.5q5 0 4 1zM655 191v4q0 3 -1 2q-1 0 -2 -1q-2 -2 -4 -2q-3 -1 -6 -4q-1 -1 5 -1t8 2zM444 191q0 6 -1 9q-2 7 -2.5 10t-0.5 5q0 1 0.5 1.5t0.5 1.5v1q0 -1 -1 -1h-3q-3 -1 -13 -3q-4 0 -8 -0.5t-6 -0.5t-2.5 -0.5
t-1.5 -0.5h-2q0 2 1 3q2 4 2 10q2 10 4 15q0 1 -4 0q-5 0 -9 1q-6 2 -11 2h-7q-1 0 1 8t3.5 10.5t3.5 4.5l3 3l-6 1q-9 2 -12.5 4t-5.5 7q-6 11 -12 11q-3 1 -3 0t2 -9q3 -14 11 -29.5t20 -27.5q21 -23 50 -34q6 -3 7.5 -3.5t1.5 1.5zM576 192q52 20 75 67q4 8 7 18t3 15
q0 2 -3 1q-8 0 -10 -8q-2 -4 -3 -5.5t-3 -3.5q-3 -3 -16 -5h-5l2 -2q7 -5 9 -16q1 -2 1.5 -4.5t1.5 -3.5l1 -2l-8 1q-8 0 -13 -2q-4 -1 -9 -1l-4 1l1 -4q1 -3 3 -11q0 -4 2 -10l1 -4h-1q-1 1 -4.5 1t-7.5 1q-16 1 -21 3l-2 1v-5v-4.5t-2 -7.5q-3 -12 -1 -12zM355 199
q1 3 -1 5q-2 7 -9 10q-2 1 -5 4q-3 4 -4 0q-2 -2 -1.5 -8.5t1.5 -10.5q2 -5 10 -5h6q2 -1 2 0t0.5 2t0.5 3zM453 195q2 1 4.5 1.5t4.5 1.5q4 0 6 1t4.5 3t1.5 3q0 1 -7 3l-6 3l-1 -2q0 -1 -0.5 -1.5t-0.5 -1.5q-2 -4 -4 -2q0 3 1 4q0 1 0.5 1.5t0.5 1.5v1q-1 0 -2 1
q-2 0 -4 2l-6 2l-1 -1q-2 -5 1 -10q0 -4 2 -8v-4q0 -1 1 -1q0 1 1 1q2 0 4 1zM566 195l2 8q2 6 2 8.5t-1 4.5v1l-5 -2q-6 -2 -7 -2l-2 -1l2 -4q1 -1 1 -4q-2 -2 -4 3l-2 4l-7 -3l-7 -2l1 -2q2 -5 12 -6q2 -1 5 -1.5t5 -1.5q5 -2 5 0zM674 195q4 4 4 12q2 9 -1 12q-1 2 -4 -1
q-1 -1 -2.5 -2t-2.5 -2q-5 -3 -9 -9q-2 -3 -1 -7l1 -4h6q7 0 9 1zM327 200q6 0 5 1q-1 5 -1 10t2 9q0 1 -6 1q-8 0 -12 4q-3 1 -3 -4q-1 -5 2 -17q2 -6 6 -5q1 0 3 0.5t4 0.5zM697 200q1 0 3 6t1.5 14t-2.5 5q-4 -4 -13 -4h-5.5t-0.5 -1q2 -6 1 -18v-3l4 1q5 0 6 -1
q3 -2 6 1zM310 208q-3 9 -1 17l1 3h-6q-7 0 -8 1q-4 1 -4 -1q0 -3 -1 -6q-3 -8 0 -14q2 -4 3.5 -4.5t6.5 -0.5q2 1 3.5 0.5t3.5 -0.5h2v5zM712 203q5 -1 6.5 0t3.5 5t2 6t-1 6t-3 9q0 1 -2 0t-9 -1h-6l1 -3q2 -8 0 -17q-1 -1 -1 -3v-2h3q1 0 2.5 0.5t3.5 -0.5zM287 211
q-1 2 -0.5 5t2.5 11v4h-3q-2 0 -2.5 0.5t-2.5 0.5h-10q-3 1 -4 -3q-3 -13 6 -19q4 -2 10 -2h5zM740 210q10 7 6 19l-1 4l-3 -1h-10q-7 0 -7 -1q-1 0 0 -8q2 -3 2 -7.5t-1 -6.5q-1 -1 5 -1t9 2zM229 211q4 2 7 2q3 1 3 3q0 3 2 9q0 2 0.5 3t0.5 2t1 2q-1 1 -5 3q-5 1 -7 0
t-4 -4q-2 -5 -2.5 -13.5t1.5 -8.5q0 1 1 1t2 1zM486 212l1 3q-1 1 -2 1q-3 0 -5 1q-14 3 -28 10q-32 16 -45 50l-3 7h-3q-3 1 -3 0q-1 0 6 -16q15 -32 47 -48q6 -3 15 -5.5t16 -4.5h2zM535 211q11 2 21 6.5t18 9.5q5 4 13.5 12.5t12.5 13.5q8 11 13 23l2.5 7.5t-0.5 1.5
t-4 -6q-11 -24 -31.5 -40.5t-46.5 -21.5q-8 -2 -9 -2t0 -2q2 0 2 -2t1.5 -2t7.5 2zM261 212l4 1l-1 3q-3 5 0 15q1 1 1 2v1h-2q-1 0 -1.5 -0.5t-1.5 -0.5q-5 -2 -10 -1q-4 0 -4 -2l-2 -6q0 -2 -0.5 -3.5t-0.5 -3.5l-1 -3l5 -1q4 -1 6.5 -1.5t7.5 0.5zM766 213l4 1v3
q0 4 -1 7q-2 4 -2 6v2h-4q-2 -1 -9 1q-5 2 -5.5 1.5t0.5 -5.5q3 -8 0 -13l-1 -3h4q6 -1 14 0zM512 214q13 2 19 13q2 7 0 13q-4 8 -12 11q-4 2 -12 2h-8t-5 -2q-9 -6 -12 -11q-2 -8 1 -13q1 -3 4.5 -6t5.5 -5q2 -1 6.5 -2t6.5 -1q1 0 2.5 0.5t3.5 0.5zM502 223q-5 2 -6 7.5
t3 9.5q5 6 12 3t7 -11q0 -6 -5.5 -9.5t-10.5 0.5zM511 225q5 2 4.5 7.5t-5.5 7.5t-8.5 -2.5t-1.5 -9.5q2 -4 7 -4q1 0 1.5 0.5t2.5 0.5zM429 219q5 0 7 2h2l-3 2q-1 2 -2.5 3t-2.5 2l-4 3l-2 -2l-2 -2l-1 -1q-4 0 0 4l3 3l-5 4l-4 5l-2 -4q0 -2 -1 -5.5t-1 -5.5l-2 -8
q0 -1 7 -1q4 0 7.5 0.5t5.5 0.5zM604 219q-1 1 -1 2v4q-2 10 -4 16q-1 0 -5 -4l-4 -4l1 -1q0 -1 1 -2q2 -2 1 -3q-2 -2 -4 1q-2 2 -3 2t-6 -5l-4 -4q1 -1 5.5 -1.5t10.5 -1.5q10 -1 11 -1t1 2zM480 224q-2 4 -2 8q-1 5 -2 5t-5 2h-4q-1 0 -1 1l-2 -6q-3 -8 -4 -6q-1 1 1 7
l2 6l-3 2q-4 1 -10 4.5t-9 6.5l-4 4l-4 -4q-2 -1 -2 -1.5t-1 -1.5t-1 -2t5.5 -6t6.5 -5h1q0 1 4 5q3 5 5 3q1 -1 0.5 -1.5l-3.5 -3.5q-1 -2 -3 -4l-1 -1q0 -1 6 -4t9 -5q4 -2 12 -4.5t11 -2.5v1q0 -1 -2 3zM539 222q14 3 26 10l5 3l-2 2q-3 3 -4 5q-4 4 -1 5q1 0 5 -5
q5 -5 3 -5q-2 -2 3 1.5t10 7.5q7 7 13 15.5t10 17.5l2 5h-3q-5 0 -9 2q-2 0 -2 -2q-2 -4 -7 -10.5t-10 -11.5q-9 -11 -22 -17q-10 -4 -7 -4q2 0 3 -5q3 -8 0 -8l-1 1q-2 2 -2 5q-2 7 -3 7l-5 -2l-5 -2v-5q-1 -2 -1 -4t-2 -4l-2 -4zM580 254q-4 3 -2 5q1 1 5 -3q1 -2 3 -4
l1 -1q-3 -3 -7 3zM593 268q-6 4 -4 5q1 1 5.5 -1.5t4.5 -3.5l-1 -2q-1 1 -2 1q-2 0 -3 1zM337 227q0 3 -1 6v5q0 1 -1 1t-2 1t-1.5 1t-1.5 2q-5 4 -8 4q-6 0 -5 -8q1 -4 0 -7q-3 -8 12 -8h7zM692 225q2 0 4 2q1 2 0 5q-1 2 0 7t0.5 6.5t-5.5 1.5q-3 0 -4 -0.5t-4 -3.5
q-3 -4 -5 -4q-1 0 -1 -1v-5q-1 -3 -1 -6l1 -3h6q7 0 9 1zM314 233v6q-1 3 -1 6q2 3 0 3q-1 1 -5 3q-6 7 -11 2q-4 -4 -4 -14l-1 -5l3 -1q4 -2 12 -2h6zM718 232q3 2 2 10q-2 10 -4 12q-5 3 -10 -2q-1 -1 -5 -3q-2 -1 -2 -3q1 -3 0 -8q0 -5 1 -6t2 -1.5t6 0.5q4 0 6 0.5
t4 0.5zM257 236q2 1 7 1h2v7q0 4 0.5 6.5t0.5 4.5q1 2 1 5l-6 -2q-2 0 -4 -0.5t-4 -0.5q-8 0 -8 -16v-5l2 -1h4q1 -1 5 1zM287 235h2v4q0 3 1 7t2 6q2 2 -2 2q-5 0 -7 1q-2 2 -6 4q-4 1 -5 0t-3 -14v-8l4 -1q4 -2 7 -1h7zM740 235l4 2v5q0 7 -1.5 12.5t-3.5 5.5t-5 -3
q-7 -4 -12 -4l-2 1l2 -4q0 -3 2 -9v-6h4q2 0 3.5 -0.5t2.5 -0.5t2.5 0.5t3.5 0.5zM765 235l3 1l-1 5q0 16 -8 16q-1 0 -3.5 0.5t-4.5 0.5l-6 2v-3q2 -4 2 -11v-9h3q1 0 2.5 -0.5t3.5 -0.5q3 -2 9 -1zM243 243q2 11 5 14l2 1l-2 1q-1 0 -1.5 0.5t-1.5 0.5q-2 0 -6 -5.5
t-7 -10.5l-3 -6h3q2 1 3.5 0.5t2.5 -0.5q2 -1 3 -0.5t2 5.5zM475 243q-2 4 -2 5q0 3 -7 5q-8 4 -14 7.5t-12 10.5q-7 6 -12 14l-3 6l-2 -2l-2 -1l1 -4q5 -11 15.5 -22t22.5 -16q4 -2 8.5 -3.5t6.5 -1.5q1 0 0 2zM544 243q12 5 23 13q7 5 13.5 12.5t10.5 14.5l2 5l-2 1l-2 2
l-2 -3q-15 -26 -42 -36q-3 -1 -5 -3q0 -3 -1 -5q-2 -2 0 -2h2q2 0 3 1zM485 249q8 8 22 8q8 0 15 -3.5t10 -8.5q3 -4 4 1q4 11 -8.5 19.5t-28.5 5.5q-12 -2 -18 -9q-7 -9 -3 -17l1 -3l2 2q0 1 4 5zM412 245l-4 6l-4 6l-3 -2q-3 -1 -4 0q-2 2 2 3q1 0 1 0.5t1 0.5l1 1l-2 4
q-2 4 -2 5q-1 0 -2 -1q-6 -2 -9 -7q-1 -2 -2 -7t-2 -6q0 -1 6 -1q3 0 5.5 -0.5t3.5 -0.5q2 -1 7.5 -1.5t6.5 0.5zM615 246q1 0 3.5 0.5t5.5 0.5h6l-1 2q-2 10 -5 15q-2 2 -5.5 4t-3.5 1q-1 -1 -3 -5l-2 -4l3 -2q4 -2 3 -3t-4 0l-3 2l-4 -6q-1 -2 -3 -4l-1 -1q0 -2 5.5 -2
t8.5 2zM325 252l-1 2l-1 -2l-2 -1l2 -1h3q0 1 -1 2zM691 252q-3 3 -3 0q-1 -2 2 -2h3zM320 255l3 3q1 1 1 2q0 2 -4.5 7t-6.5 6q-9 3 -9 -6q0 -5 -1 -6l-1 -2v-1h1q1 -1 2 -1q2 0 4 -2q6 -4 7 -4zM700 252q1 1 2 1.5t2 1.5q2 2 5 2l2 1v1q-1 1 -1 2t-0.5 2.5t-0.5 3.5
q0 3 -2 5q-1 2 -5 1q-3 0 -8 -5q-5 -6 -5 -8v-2q2 0 4 -4q1 -1 1.5 -1t1.5 -1l1 -1h1q1 0 1 0.5t1 0.5zM434 260l-1 1q-2 2 -2 3q-4 4 -4 5l-2 2l-4 -2q-3 -3 -5 -3l2 -4q1 -2 5 -6l3 -4l4 4zM297 258q3 1 3 8q0 2 0.5 3t0.5 3l1 2l-6 4q-5 2 -6.5 2.5t-3.5 0.5q-6 -1 -6 -8
q0 -6 -3 -9q-1 -1 -0.5 -1.5t4.5 -2.5q5 -2 6 -2.5t4 -0.5q2 0 3.5 0.5t2.5 0.5zM479 265q4 4 14 8q3 1 5.5 1.5t8.5 0.5q8 0 12.5 -1.5t10.5 -4.5q6 -5 8 -9l2 -3l6 2q11 5 21 13.5t15 19.5q2 3 2 4.5t-1 6.5v8l-2 -1q-2 -1 -6 -1t-6 1q-3 1 -6 -1l-3 -3q3 -9 2 -11
q0 -5 -2 -5t-1 6q0 5 -1 7l-3 1.5t-4 0.5q-6 0 -8 2q-4 1 -9 -1q-5 -1 -9.5 -1.5t-7.5 0.5q-1 1 -6 -3l-4 -4l-4 4q-4 4 -6 3q-3 -1 -8.5 -0.5t-9.5 1.5q-5 2 -8 1q-4 -2 -9 -2q-3 0 -4 -0.5l-3 -1.5q-1 -2 -1 -7q1 -6 -1 -6t-2 7q0 6 1 7q3 3 0 3q-2 2 -3 2q-1 2 -5 1
q-2 -1 -6.5 -1t-6.5 1q-1 1 -1 -7t2 -12q11 -23 35 -32l6 -2l2 3q5 5 4 5zM732 260q4 2 4.5 2.5t-0.5 1.5q-3 3 -3 9q0 4 -1 5q-2 3 -6 3q-2 0 -8 -3t-7 -4q0 -1 1 -2q0 -2 0.5 -3t0.5 -3q0 -7 5 -9q5 0 7 0.5t7 2.5zM263 262q3 1 7 1t6 7q1 1 1 5q0 3 -2 3q-2 1 -9 -2
q-7 -4 -8 -5.5t-1 -5.5q-1 -2 -0.5 -2t0.5 -1v-1h2q2 0 4 1zM757 265q-1 5 -2.5 7t-6.5 5q-5 2 -6 2.5t-3 -0.5q-3 -1 -3 -5t1 -5q2 -6 6 -6t7 -1q5 -2 6 -1.5t1 4.5zM253 264q1 4 -3 1q-3 -2 -1 -3q4 -2 4 2zM766 263l3 1l-4 3l-4 2q-1 0 -1 1q-1 0 -1 -3t1 -4q1 -2 6 0z
M419 271l4 3l-2 5q-1 1 -1 2t-1 2t-1 2v1q-3 0 -5 -1q-1 -1 -3 -1q-1 0 -2 -1q1 -4 3 -7q3 -7 4 -7zM693 272l-1 -1zM318 275q-1 0 -1 3q-1 1 -3 0l-3 -1l3 -1q3 0 3 -2q4 -2 1 1zM394 279l-2 4l-5 2q-5 1 -5 3q0 1 -1 1t-7 2q-8 2 -9 2l-2 1l2 -3q2 -2 4 -6t4 -6t8 -3.5
t12 -1.5h3zM628 275q8 2 11 3.5t5 6.5q2 4 4 6t1 2q-2 0 -10 -2q-8 -1 -8 -3t-1 -2t-7 -2q-2 -1 -4 -5l-2 -5h3h3.5t4.5 1zM701 277q1 0 -1 1q-3 1 -4 -2l-1 -2l2 1zM315 282v1q1 1 1 2q0 2 -3 2t-7 2q-4 1 -9 -1q-2 -1 -3 -1t-3 -1l-4 -2h3q1 -1 7.5 -4t7.5 -3q3 1 5 2t3 2
t2 1zM715 280q2 2 4.5 2.5t3.5 1.5h3l-3 2q-1 1 -3 1.5t-4 1.5q-5 1 -9 0q-4 -2 -7 -2t-3 -2q0 -3 3 -3q1 -1 5 -3q2 -2 4 -2q1 0 2 1zM736 282q-1 0 -1 1q-2 0 -2 -1h2h1zM316 292q1 1 -1 0h-3q-1 0 -1 -1t2 -1t3 2zM413 293q2 1 3.5 2.5t3.5 2.5q4 4 4 7q0 2 -3 4
q-2 2 -10 2q-9 0 -14 2l-7 2l-7 -3q-5 -2 -15 -5.5t-16 -5.5q-2 -1 3 -1q5 -1 15.5 -3t23.5 -5t19 1zM629 294q10 2 18.5 3.5t13.5 2.5q5 0 -5 2q-7 2 -15 5.5t-13 5.5l-5 2l-6 -2q-5 -2 -7.5 -2h-7.5q-8 0 -10 -2q-2 -1 -2 -4q0 -4 3 -7q8 -6 12 -7q3 -1 24 3zM703 291
q0 1 -1 1h-3h-2q0 -2 2 -2t4 1zM302 296q0 1 -10 2.5t-15 3.5q-2 1 -4 1t-1 0q1 -2 6.5 -7t6.5 -5zM734 296q7 5 8 6.5t-3 -0.5q-10 -3 -22 -5l-7 -1h4q1 -1 9 -3q5 -2 5.5 -1.5t5.5 4.5zM328 300q9 1 15 2t13 3q5 2 14 5t13 5l4 2l-6 4q-1 0 -3 2q-1 1 -2 1q-2 0 -5 -3
q-18 -10 -40 -14q-8 -2 -21.5 -2.5t-22.5 0.5q-17 0 1 -3q11 -2 19.5 -2.5t20.5 0.5zM719 301q8 2 12 2l5 2h-18q-14 0 -22.5 0.5t-18.5 2.5t-19.5 5.5t-15.5 8.5q-5 3 -11 -2l-4 -3l5 -2q20 -10 43.5 -13.5t43.5 -0.5zM532 327q-8 7 -13 12l-12 12q-1 0 -13 -12l-12 -12
q0 -1 3.5 -4t8.5 -8t13 -12q1 2 4 4q2 2 4.5 4t4.5 4zM502 318q-7 4 -5 11t10 7q9 0 9 -10q0 -5 -4.5 -8t-9.5 0zM511 322q5 4 -1 10q-2 2 -5.5 0.5t-4.5 -4.5q-1 -5 3.5 -7t7.5 1zM316 309q20 2 33 6q6 2 13 5t6 4q-1 0 -5 2q-3 0 -9 4l-4 3l-7 -2q-7 -2 -18 -5t-18 -4
q-9 -2 -21 -2t-20 2q-11 2 -19.5 5t-16.5 8l-5 3l2 -3q2 -4 8 -10q14 -14 39 -16q7 -1 20.5 -1t21.5 1zM496 309l-14 13h-6q-11 0 -24.5 2t-20.5 4q-5 1 -5 0q1 -2 2 -6t1 -5q1 0 1 -1q0 -2 1 -2q6 -4 14 0l3 1l2 -2q7 -7 20 -3q4 2 8 0q2 -1 3 -1t2 -1h8t5 1zM535 310l4 1
l5 -1q13 -5 19 3l2 2l4 -1q4 -2 8 -1q7 0 8 9q2 6 1 6t-2 -1q-11 -4 -43 -5h-10l-14 -14h7q5 0 11 2zM738 309q22 1 38 14q3 2 7.5 8t4.5 7q-2 0 -5 -3q-20 -13 -49 -14.5t-62 9.5l-8 3l-2 -2q-7 -4 -13 -6l-4 -2l5 -2q20 -11 46 -12q8 -1 21.5 -1t20.5 1zM419 314
q1 0 1 0.5t1 0.5h1q1 1 -1 9t-3 8q-1 -1 -2 -1q-1 -1 -2 -1t-3 -1q-9 -5 -22 -6l-4 -1l5 -3q13 -7 29 -5zM612 315q3 1 10 4t6 3h-2q-1 0 -2 0.5t-2 0.5q-11 1 -22 7q-4 2 -4.5 2.5t-1.5 -0.5q-2 -6 -3 -11t0 -6t8.5 -1.5t12.5 1.5zM311 326q7 2 14.5 3.5t14.5 4.5l7 2l-3 3
q-1 1 -1 1.5t-1 1.5l-1 1q-1 0 -7 -2q-12 -5 -23.5 -7t-27.5 -2q-22 0 -43 6l-10 2l-2 1l2 -2q2 -2 9.5 -5l12.5 -5q8 -3 21 -5q5 0 18 0.5t20 1.5zM751 326q2 1 5.5 1.5t5.5 1.5q5 2 12.5 5.5t9.5 5.5l2 1l-4 -1q-3 -1 -13 -3q-46 -10 -85 2q-9 3 -10.5 3t-3.5 -3
q-2 -2 -2 -3l-1 -1q3 -2 16 -5t21 -4q9 -2 12 -2h14q8 0 12.5 0.5t8.5 1.5zM382 325q0 1 5 1q6 0 14.5 3t13.5 6q2 2 1.5 3t-2.5 7l-1 2l-2 -2q-2 -2 -11 -8t-14 -8l-6 -4h2zM477 326q0 1 1 2l4 4l5 5h-16q-20 1 -31 2t-16 3l-3 1l2 -4q1 -4 2 -4.5t4 -2.5q5 -2 16.5 -4
t24.5 -3h6q1 0 1 1zM633 325q0 1 -5 3q-11 6 -23 14l-5 4l-4 -9q3 -2 7 -4q3 -2 6 -3.5t5 -1.5q1 -1 4 -1t6 -1q4 -1 8 -1h1zM567 327q16 2 20 6q1 1 2.5 4t1.5 5q0 -1 -1 -1h-3q-13 -5 -46 -5h-14l5 -4q5 -5 4 -6q-2 -1 10 -0.5t21 1.5zM383 331q6 3 14 8t12 8l2 2l-5 5
q-1 0 -2 -1q-3 -3 -5 -4q-19 -14 -37 -13q-7 0 -8 1q-1 0 -2 0.5t-2 0.5q-4 2 1 -3q3 -2 8 -5t8 -3q4 -1 6.5 -0.5t9.5 4.5zM652 329q2 1 3.5 2t3.5 3t5 3h-6q-22 -6 -45 13l-6 4l-5 -5l6 -5q12 -8 25 -15q5 -2 10 -2q3 0 9 2zM311 338l14 4t9 3q1 1 -2 3q-4 2 -7 5l-4 3
l-9 -2q-11 -2 -19 -2.5t-20 -0.5q-15 0 -26 1.5t-24 5.5q-6 2 -13 5t-7 4q0 2 1.5 1.5t6.5 -2.5q17 -7 34 -10q13 -2 32 -2t33 3l8 2l-3 1q-2 1 -4.5 1.5t-4.5 1.5l-5 2.5t-5 -0.5q-29 -5 -66 0q-7 1 -18 3t-13 3l-1 1q0 -1 4 -7q4 -5 8.5 -9.5t8.5 -6.5q3 -3 15.5 -6.5
t23.5 -5.5q9 -1 12.5 -1h16.5h15t9 2zM749 337q14 2 27.5 5.5t18.5 6.5t13 11.5t8 10.5q0 1 -7 -1t-17 -3.5t-18 -2.5q-10 -2 -28 -1.5t-26 1.5q-6 2 -7.5 2t-3.5 -2q-1 0 -3.5 -1t-4.5 -2l-5 -2l7 -2q18 -4 39 -3.5t37 4.5q6 2 13 4.5t12 4.5t6 1q1 -2 -5 -4q-10 -5 -21 -8
t-22 -5q-7 -1 -22 -1t-22 2q-7 0 -17 2l-9 2l-4 -3l-3.5 -3.5t-3.5 -2.5l-3 -1l3 -1q8 -4 16 -5.5t17 -3.5q5 -1 17 -0.5t18 1.5zM376 340q2 1 4.5 2t4.5 2q5 2 11.5 7t6.5 6t-1.5 3t-2.5 2l-2 -2q-2 -2 -7.5 -5.5t-10.5 -5.5t-12 -3.5t-13 -2.5l-7 -1l4 -1q14 -3 25 -1z
M660 341q4 1 2 1q-4 0 -10.5 1t-11.5 3q-7 2 -13 5.5t-11 7.5l-3 3l-4 -5l3 -2q4 -4 9.5 -7.5t10.5 -5.5q14 -6 28 -1zM225 342q-2 1 -1 -1q0 -2 1 -1q1 2 0 2zM555 340q6 0 12 0.5t8 0.5q13 2 17 6l2.5 2.5l3.5 3.5q5 5 7 9q4 5 6.5 13t2.5 15v4q0 1 1 1t3 5t4.5 10t5.5 8
q2 4 4 2q1 0 -3 -6q-6 -8 -8 -16q-1 -1 1 0l6 2q3 1 6 3l2 5q2 9 3 16t1 20v14.5t-1 9.5q-1 2 -1 5q0 1 -1 2h-2q-1 0 -1.5 0.5t-1.5 0.5q-6 2 -7 2q-4 2 -6 1q-8 -1 -12 -11q-2 -2 -2.5 -4.5t-1.5 -2.5q-4 -4 -8 -4h-2l2 -2q1 -2 2 -3.5t2 -3.5q4 -6 5 -7q7 -6 -14 -7h-9
v-11q0 -12 1 -13v-2q-3 0 -6 1q-8 2 -11 3q-2 0 -3 1t-3 2l-2 1l-2 -7q-1 -5 -1 -12t1 -9q0 -2 -6 2q-2 2 -4.5 2.5t-4.5 1.5q-11 2 -15 10q-1 2 -3 2v-1v-4q0 -4 -1 -7t-5 -8q-6 -11 -9 -11q-1 0 -3 4q-1 1 -2 2.5t-2 2.5q-12 13 -12 18v1l-1 -2q-5 -5 -13 -7
q-2 -1 -4 -1.5t-4 -1.5q-5 -2 -6 -1.5t-1 6.5q0 3 -1 11t-1 9q-1 0 -2 -1q-3 -3 -16 -6q-2 0 -3.5 -0.5t-2.5 -0.5h-2v2q1 1 1 13l1 11h-11q-8 1 -10.5 1.5t-4.5 2.5q0 1 2 3q1 1 2 3.5t3 4.5q4 4 4 6q2 1 -1 2q-6 1 -11 13q-4 8 -12 9q-2 1 -6 -1q-1 0 -7 -2
q-1 0 -1.5 -0.5t-1.5 -0.5h-2q0 -1 -2 -7q-1 -4 -1 -8v-15q0 -14 1 -20.5t3 -15.5q2 -5 2.5 -5.5t3.5 -2.5q8 -4 10 -4q1 0 -2.5 7t-6.5 11t-3 6q1 1 4 -3q3 -3 6 -8.5t4 -9.5q2 -4 2 -5q1 0 1 -5q1 -11 6 -21.5t12 -16.5q3 -2 3 -3q0 -5 23 -7q3 0 9.5 -0.5t13.5 -1
t13.5 -0.5h9.5q2 0 3.5 1.5t7.5 6.5l8 8l9 -9l8 -8h9q3 0 10 0.5t12 0.5zM436 360q-2 2 -2 4q0 3 1 5q4 3 8 1t2 -7q0 -3 -2 -3q-2 -2 -7 0zM442 363q2 2 0 4t-4 0q-3 -5 2 -5q1 0 2 1zM569 360q-2 2 -1.5 5.5t2.5 4.5q5 2 7.5 -1t0.5 -7q-2 -6 -9 -2zM575 363q2 2 0.5 3.5
t-3.5 0.5t-1.5 -3t2.5 -2q1 0 2 1zM790 341q0 2 -1 1q-3 0 -1 -2q1 0 2 1zM347 342q0 1 -1 1q-3 0 -1 -2t2 1zM366 347l6 2t5 2q7 2 13.5 6.5t4.5 5.5l-1 1q-2 0 -2 2q-2 1 -3.5 1.5t-2.5 1.5q-3 0 -7 -3q-19 -11 -36 -11h-13q-4 1 -4 2q0 2 4 1q20 -2 34 4q4 2 9.5 5t5.5 4
l-4 2l-4 2l-5 -3q-16 -9 -37 -12l-8 -1l4 -3q2 -2 5.5 -4.5t7.5 -4.5q3 -2 4.5 -2h8.5q5 1 9 1t6 1zM671 346q2 1 6.5 3t6.5 4l2 2h-12q-13 0 -17 1q-5 2 -11.5 4.5t-10.5 5.5l-5 2.5t-3 0.5q-1 -1 -2.5 -1.5t-2.5 -1.5l-3 -3q-3 0 2 -3q15 -11 32 -13q14 -2 18 -1zM689 358
q1 1 -1 1q-28 4 -43 14l-4 2q-2 -1 -3 -2t-2 -1t-1 -1q-3 0 4 -4q21 -12 41 -9q6 1 7 0q1 -2 2 0zM338 364q8 2 14 4.5t12 5.5t5 4q-3 3 -5 4l-4 2l-3 -2q-4 -2 -11 -4.5t-12 -3.5q-11 -2 -22.5 -1t-19.5 6l-3 1l2 -2q2 -2 7 -6t8 -6q5 -3 8.5 -3.5t8.5 -0.5q7 0 15 2z
M700 363q10 3 19 11l4 5l-5 -2q-30 -11 -60 4l-5 3l-4 -2q-1 -1 -1.5 -1t-1.5 -1l-1 -1q-1 -2 0 -2.5t6 -2.5q11 -5 20.5 -8t23.5 -4q3 0 5 1zM398 367l-2 4q-1 2 -1 3l-1 -2q-3 -3 2 -5q2 -2 2 0zM618 367q4 2 1 5q-1 1 -3 -3q-1 -1 -1 -3v-1q0 1 1 1t2 1zM292 368l5 1
l-5 5l-6 5h-13q-32 -2 -61.5 5.5t-48.5 23.5q-1 1 -1.5 1t-1.5 1q-1 0 -1 1q0 -2 5.5 -10t8.5 -11q8 -7 14.5 -10.5t15.5 -5.5q8 -2 19 -4t19 -3h10.5h16t15.5 0.5t9 0.5zM782 368q8 2 17.5 3.5t14.5 3.5q18 5 32 22q2 3 5 8t3 6l-1 -1q-1 0 -1 -0.5t-1 -0.5q-7 -7 -21 -14
q-38 -21 -90 -16h-13l-6 -5l-5 -6h6q2 -1 4.5 -1h3.5q1 -1 7.5 -1t14.5 1h18t12 1zM392 374q2 2 2 3.5t-1 7.5l-1 5l-12 5l-2 -4q0 -3 -4 -7l-3 -3l3 -3q2 -2 7 -4.5t8 -2.5q1 0 3 3zM628 372q10 4 12 6l2 3l-2 1q-4 3 -6 10q-1 1 -1 2v1l-6 -2l-6 -3l-1 -6q-1 -5 -0.5 -7
t2.5 -4t6 -1zM338 378q6 1 13 5l6 2l-5 4l-5 4l-4 -2q-2 -1 -6 -2t-7 -2q-5 -2 -8 -2h-12q-15 0 -19 1q-6 2 -7 2q-1 1 0 -2q2 -2 3 -2q0 1 5 -1q11 -6 19 -7q5 -1 13 -0.5t14 2.5zM710 378q2 1 5.5 2t5.5 2q5 3 5 2l2 2l2 2h-2q-1 0 -2 -0.5t-2 -0.5q-13 -4 -28 -2.5
t-27 6.5l-3 2l-2 -2q-1 0 -2 -1t-3 -2l-3 -2l3 -2q5 -2 12 -4.5t14 -3.5q5 -1 12.5 -0.5t12.5 2.5zM511 384q8 11 8 15q0 1 -0.5 1.5t-0.5 1.5v1q0 3 -3 0q-9 -4 -19 1q-3 2 -4 1t0 -4q0 -3 8 -12q2 -2 3.5 -4t2.5 -3q0 -2 2 -2l1 1q1 1 1 1.5t1 1.5zM277 382h5q1 0 2 1
q0 2 -3 4l-6 4l-5 3h-13q-36 0 -66 10q-7 2 -17.5 7.5t-14.5 7.5q-4 3 -3 -2l2 -2q1 1 5 -3q30 -25 77 -30q7 0 18.5 -0.5t18.5 0.5zM783 384q40 6 66 27q6 6 6 4l2 3v2q0 1 1 1l-4 -2q-18 -11 -44.5 -18t-52.5 -7h-13l-3 -2q-4 -2 -6 -4q-5 -2 -5 -5q0 -1 26 -1h16t11 2z
M374 387q1 2 2.5 5.5t0.5 3.5q0 1 -5 4q-7 2 -11 6l-5 3l-5 -4q-4 -5 -3 -6q1 -2 5.5 -6t9.5 -7q5 -2 6.5 -2t4.5 3zM651 387q5 2 9.5 6t4.5 6t-2 4q-1 1 -2 1.5t-2 2.5l-2 2q-4 -3 -8 -5q-3 -2 -5.5 -3.5t-3.5 -1.5q-4 -2 -3 -5t3 -6.5t4 -3.5t7 3zM323 388q9 1 20 5l3 2
l-1 2q-2 4 -3 4q-2 1 -5 0q-8 -3 -18.5 -4t-21.5 1q-8 2 -17 4.5t-17 7.5l-9 4l2 -3q6 -8 14 -14.5t11 -5.5h3q2 -1 6.5 -2t8.5 -2q3 -1 11.5 -0.5t12.5 1.5zM722 389q6 2 10 2q8 3 18 13q8 8 7.5 8.5t-8.5 -3.5t-16.5 -7t-16.5 -4q-11 -2 -21.5 -1t-18.5 4q-3 2 -5 0
q-1 0 -3 -4l-1 -2l6 -3q4 -2 9.5 -3t10.5 -2h13q6 0 9.5 0.5t6.5 1.5zM474 397q5 1 9 5t3 6q-1 3 -8.5 7.5t-12.5 4.5q-4 0 -4.5 -1.5t0.5 -9.5q2 -10 2 -12v-4l4 2q4 2 7 2zM552 413q1 4 0 6q-2 3 -11 -1t-13 -9q-2 -2 2 -6t10 -6q2 -1 4.5 -1.5t3.5 -1.5l2 -1l1 8
q0 4 0.5 7t0.5 5zM261 402l-5 6l-11 1q-61 1 -118 54h-2q-1 0 3 -7t7 -12q4 -5 10 -12t7 -6q0 2 7 -3q14 -9 33.5 -15.5t39.5 -8.5q8 -2 12.5 -2h12.5h9zM771 398q29 2 54 11q7 2 16.5 7t14.5 8q1 1 2 1t2 1q1 0 1 1q1 -1 6.5 5t10.5 11q2 4 6 11.5t4 9.5q0 -1 -1 -1
q-1 -1 -1.5 -1t-1.5 -1q-6 -7 -16 -14t-19 -13q-20 -12 -41.5 -19t-41.5 -7h-7l-6 -5l-5 -6h7h7.5t8.5 1zM327 402q6 2 8 2l2 1l-5 4l-4 4l-5 -1q-20 -3 -44 1q-5 1 -15 4t-14 5q-1 0 -1 -1l1 -1q2 0 7 -3q21 -14 46 -17q5 -1 12.5 -0.5t11.5 2.5zM718 402q14 2 27 9
q6 3 12.5 6.5t5.5 3.5q-2 -1 -3 -1q-2 -1 -2.5 -1t-2.5 -1q-8 -2 -15 -4t-14 -3q-8 -2 -19 -1.5t-17 2.5l-5 1l-4 -4q-4 -4 -3.5 -4.5t6.5 -2.5q7 -2 16 -2t18 2zM350 406q1 1 1 1.5t1 1.5q0 1 1 1q0 2 -5 4q-2 2 -4 3.5t-4 2.5l-3 2l-3 -3l-4 -3l4 -4q11 -9 12 -9l1 1
q1 1 1.5 1t1.5 1zM682 416l-6 6l-16 -11q0 -1 2 -3q1 -3 6 -5q3 3 7 6q2 2 4.5 4t2.5 3zM514 407q5 2 7.5 8t1.5 11q-2 10 -10 13t-16 -2q-6 -5 -6.5 -13.5t5.5 -13.5q8 -10 18 -3zM502 415q-7 3 -5 13q1 1 1.5 2t2.5 3t6 1q8 0 9 -7q2 -5 -1.5 -9.5t-8.5 -3.5q-2 0 -4 1z
M511 419q4 4 1.5 9t-7.5 3q-5 0 -5 -7t7 -7q2 0 4 2zM374 407q-1 2 -2 7.5t-2 10.5q0 2 -0.5 8t-0.5 12q0 10 0.5 15.5t2.5 13.5q1 2 -2 2h-2l-1 -5q-6 -33 2 -60q1 -3 3 -5q3 -2 2 1zM641 406q3 1 6 18q1 7 1.5 20.5t-1.5 20.5q-1 9 -1.5 10t-2.5 1t-2 -2q2 -8 2.5 -13.5
t0.5 -14.5q0 -11 -1 -18.5t-3 -15.5q-1 -2 -1 -4v-2h2zM489 413q-4 10 0 18q0 1 -1 1t-6 3t-9 5q-11 6 -21 18q-8 8 -10.5 10t-4.5 3q-5 4 -8 1q-1 -1 -1 -5q0 -6 -1 -7q0 -2 2 -4q6 -5 9 -12q2 -4 3 -4.5t4 -1.5t7 -4.5t6 -7.5q2 -3 4 -3q5 1 12 -2t12 -8q4 -4 5 -4z
M527 413q5 5 12 8t12 3q2 -1 4 2q2 5 7 8.5t7 3.5t7 8q3 6 6 8q4 3 4 6q-1 2 -1 8v4h-3q-5 0 -8.5 -2.5t-12.5 -11.5q-19 -19 -32 -24q-1 -1 -3 -1q-1 0 -2 -1v-1q0 -1 0.5 -1t0.5 -1q3 -8 -1 -16q-2 -4 -1.5 -4t4.5 4zM364 416q-2 8 -2.5 15.5t0.5 18.5q0 5 0.5 11.5
t0.5 8.5t0.5 3t0.5 2v2l-1 1q-1 0 -2 1q-7 3 -11 12l-3 4v-2q-3 -6 2 -12q1 -2 -2 -5q-5 -6 -1 -12l1 -3l-1 -3q-2 -4 -2 -6t3 -6l4 -3l-3 -4q-5 -6 -1 -15l3.5 -3.5t6.5 -4.5q4 -4 6 -5t3 -1zM656 416q8 5 10 8q5 10 -2 17l-2 2l2 1q9 6 3 15q-2 2 -1 4q4 4 2 10
q-1 1 -1.5 2t-1.5 2q-2 2 0 3q4 6 2 11q-1 5 -3 1t-5.5 -7.5t-6.5 -5.5l-2 -1q-1 0 -1 -1v-2q0 -3 1 -4q0 -2 0.5 -8t0.5 -12q1 -11 0.5 -19t-2.5 -16q-1 -2 -1 -4v-1l2 1q1 1 2.5 1.5t3.5 2.5zM249 417q-4 6 -5 6q-2 2 -7 2q-53 8 -107 43q-4 2 -6 4l-2 1q0 -1 7 -8t14 -12
q11 -9 25.5 -17.5t26.5 -13.5q13 -5 27 -7.5t26 -3.5h5zM786 414q50 8 97 50q8 6 8 9q0 1 -4 -2q-14 -11 -34.5 -21.5t-38.5 -15.5q-10 -3 -22 -6t-17 -3t-11 -9l-3 -5l8 1q7 0 17 2zM311 413q15 2 14 3h-2q-2 0 -6 2t-6 4t-3 2t-6 -1q-16 -2 -35 4t-35 18q-2 1 -4 3l-1 1
q-1 -1 2.5 -5.5t5.5 -8.5q9 -9 11 -9q1 -1 3.5 -1.5t4.5 -1.5q13 -5 23.5 -7t25.5 -4h2q4 0 6 1zM445 414q4 2 7.5 4t3.5 4t-3.5 6t-7.5 6q-10 5 -9 -14v-8l2 1q1 0 3 0.5t4 0.5zM577 422q0 10 -1 11q-4 7 -14 -3q-6 -6 -5 -9q1 -2 8 -5t12 -4v10zM720 414q10 1 23.5 4.5
t19.5 6.5q2 1 4 1q2 1 7 6t9 12l2 4l-4 -2q-15 -12 -34 -18.5t-35 -4.5l-7 1l-4 -3q-7 -5 -12 -5q-3 0 -1 -0.5t7 -1.5q2 0 4 -0.5t3 -0.5h8t10 1zM332 421q1 0 1 0.5t1 0.5l1 1l-6 6q-6 4 -11 9l-5 5l-2 -3q0 -3 -4 -5l-2 -3l4 -4q3 -3 7 -5.5t9 -3.5h5h1q0 1 1 2zM696 422
q2 1 4 2.5t4 3.5l4 4l-3 2q-1 2 -4 5q-1 2 -2 2t-9 -7q-2 -2 -4 -3.5t-4 -3.5q-3 -2 -4 -3l3 -3q2 -2 7 -2q2 1 4 1.5t4 1.5zM304 427q1 0 -1 2q-1 2 -7 6q-3 2 -4.5 2.5t-4.5 0.5q-10 0 -25.5 4t-31.5 12q-7 3 -7 2q1 0 1 -1q2 0 6 -4q11 -9 24.5 -15.5t26.5 -8.5
q5 -1 13 -1t10 1zM342 430q0 3 0.5 5t1.5 4l2 3l-2 2q-6 6 -2 15q1 1 0 4q-2 7 1 13q2 3 1 6q-3 6 0 14v2q0 1 1 1q-2 0 -3 1q-1 0 -5 2q-7 2 -8 1t-2 1l-2 1q-1 0 -3.5 2.5l-5.5 5.5q-8 8 -18.5 16.5t-19.5 14.5l-9 6h-8q-3 0 -7 -0.5t-7 -0.5q-12 -3 -20 -1q-2 0 -2.5 0.5
t-1.5 0.5h-1q-1 -1 6.5 -13t14.5 -20t17 -17.5t18 -15.5q4 -3 5 -6q0 -7 6 -11q6 -6 12 -6q4 -2 7 -5q8 -8 20.5 -18.5t13.5 -10.5v4zM679 432l24 21q6 6 10 7q15 3 17 16q1 3 1.5 4t4.5 3q8 6 18.5 16.5t18.5 19.5q5 7 12 18t6 12h-1q-1 0 -1.5 -0.5t-1.5 -0.5
q-10 -1 -21 1q-3 0 -7 0.5t-7 0.5h-8l-9 -6q-8 -5 -17.5 -13t-19.5 -17l-3 -3l-3 -3l-3 -3q-5 -5 -6 -5l-1 2q0 2 -5 0q-8 -2 -8.5 -3t0.5 -3q4 -6 0 -14l-1 -3l2 -2q4 -8 1 -13q-1 -2 0 -7q3 -8 -2 -13l-1 -2l1 -3q2 -4 2 -8q0 -5 1 -4q1 0 3 1.5t4 3.5zM732 427
q23 4 49 22q6 5 6 5.5t-8 -3.5q-13 -5 -27 -9t-24 -5q-5 0 -7 -0.5t-5 -2.5t-5 -4l-3 -3q0 -1 9 -1t15 1zM234 433q-4 6 -5 8q-2 3 -6 3q-32 5 -63.5 22.5t-52.5 43.5l-4 6v-4l2.5 -10t3.5 -9q3 -5 6 -9.5t4 -4.5q2 0 9 -5q15 -11 33.5 -20.5t35.5 -15.5q9 -3 21 -6t17 -3h3
zM786 430q37 7 74 28q15 9 28 18q3 3 6 3q2 0 5 6q8 12 11 28v3l-4 -6q-2 -2 -6 -6.5t-8 -8.5q-42 -42 -102 -51q-3 0 -5 -3q-1 -2 -5 -8q-3 -4 -2.5 -4.5t8.5 1.5zM307 437q1 1 3 5l1 2l-5 5q-5 5 -8 5t-7 3l-5 2l-3 -3q-3 -3 -3 -4t3 -4q2 -2 10.5 -7.5t9.5 -5.5zM718 439
q3 2 6.5 4.5t5.5 4.5l4 3l-8 8l-4 -2q-5 -3 -7 -3t-7 -5t-4 -6q0 -2 2.5 -5t3.5 -3zM493 437q3 3 5 4q3 2 9 2q8 0 13 -5q0 -2 2 -2l1 -1q2 0 8.5 4t11.5 7q5 4 12 10t6 7h-7l-9 2l-2 1q-4 -1 -1 -4l3.5 -3.5t-1.5 -1.5q-2 -2 -3 1q-3 4 -12 7q-4 0 -10 4q-5 2 -6 2.5
t-6 0.5t-7 -0.5t-7 -2.5q-5 -4 -10 -4q-6 -1 -8 -7q-1 -4 -4 -3q-1 0 1 5l2 4l-2 1q-4 0 -5 -1h-9q-2 0 -3 -0.5t-2 -0.5h-2q0 -1 7 -7.5t12 -9.5t11.5 -7t8.5 -4q1 0 3 2zM435 438q2 2 1 4q-2 6 -7.5 9.5t-7.5 1.5t-5.5 -8t-3.5 -7q1 0 6.5 -0.5t10.5 -0.5t6 1zM593 437
q2 0 2.5 0.5t2.5 0.5h3l-2 4t-5 8q-1 3 -4 3q-3 1 -7 -3t-5 -7l-2 -4l2 -1q2 -1 4.5 -1h10.5zM285 442q-2 1 -4 3.5t-6 6.5q-1 1 -9 2q-38 1 -65 36q-7 9 0 -4q5 -8 11.5 -17t8.5 -9l10 -4q14 -7 29.5 -11.5t23.5 -4.5h4zM735 441q19 3 47 16l10 4q1 -1 5.5 4t7.5 10
q3 4 6 10t3 7l-1 -1q-1 -1 -1.5 -2t-1.5 -2q-22 -28 -57 -33h-10q-2 0 -3 -1l-6 -6q-2 -1 -3 -2.5t-2 -2.5l-3 -2h2q2 0 3.5 0.5t3.5 0.5zM225 448l-2 4q-2 4 -6 8t-8 5q-18 3 -43 16t-51 32q-11 8 -12 9t-1 -1l1 -1l1 -1q1 -1 1.5 -2t1.5 -2q15 -19 35.5 -34t43.5 -24
q5 -2 11.5 -4t12.5 -3.5t10.5 -2t4.5 0.5zM798 449q55 10 96 53q5 5 10.5 12t5.5 8q-1 0 -2 -1q-3 -3 -5 -4q-26 -20 -50.5 -33.5t-44.5 -18.5q-5 -1 -7 -2t-4 -3q-4 -4 -6 -8l-2 -4h1q4 0 8 1zM285 461l-2 2q-6 4 -6 11q-1 2 -5 6l-4 3l-4 -3l-4 -2q-2 0 -0.5 -4t5.5 -9
q2 -2 7 -6.5t6 -4.5zM741 459q13 10 13 17l-2 2q-1 0 -4 3q-2 1 -3 2l-4 -3q-4 -4 -5 -8q-1 -2 -1.5 -3.5t-2.5 -3.5t-2 -5q0 -2 2 -3.5t4 -1.5q1 0 2 1zM265 460q-1 2 -2.5 3t-1.5 2q-1 1 -7 3q-12 3 -24 9t-23 15l-7 6l2 -3q11 -17 28.5 -27t34.5 -11h3zM757 458
q34 7 53 36l2 2l-2 -2q-1 -1 -7 -5q-9 -8 -21.5 -14t-23.5 -8q-4 0 -9 -5l-4 -5h3q2 0 4.5 0.5t4.5 0.5zM424 466q0 6 -2 7q-3 4 -11 6q-5 2 -6 1.5t1 -2.5q2 -4 2 -5q4 -11 8 -12q1 -1 5 -1h3v6zM597 461q3 1 4 2.5t4 9.5l3 6q2 2 0 2t-6.5 -1.5t-6.5 -2.5q-4 -2 -5 -4
t-1 -7v-7h3q3 0 5 2zM206 473q-2 2 -3.5 5.5t-3.5 5.5l-2 6q1 0 -9 2q-81 20 -101 83l-2 6v-9q0 -16 7 -29q2 -5 4.5 -10t2.5 -4q2 0 8 -6q25 -20 50.5 -34t45.5 -20l6 -2q1 0 -3 6zM819 472q17 6 39.5 19.5t45.5 30.5q4 3 6.5 5t3.5 3q2 0 5 7t5 12q4 12 4 26v7l-1 -6
q-13 -44 -61 -69q-17 -9 -39 -14l-10 -3l-3 -7q-4 -6 -6 -10q-3 -4 -3 -4.5t2 -0.5q2 1 5 1.5t7 2.5zM257 471q0 1 -0.5 1.5t-0.5 1.5q0 3 -4 4q-2 2 -4.5 4t-4.5 4q-5 4 -12 7q-11 5 -19.5 10.5t-16.5 13.5q-7 6 -10.5 11t-7.5 12q-1 1 -1 2t-1 2l-1 1q0 -2 2 -9t4 -12
t6 -12t5 -7v3q-2 6 4 -1q5 -5 10.5 -10t10.5 -9q6 -5 15.5 -9.5t17.5 -6.5q7 -2 8 -2.5t0 1.5zM455 472q-4 2 -9 8t-7 9q-3 5 -5.5 14.5t-2.5 15.5v7l-4 2q-2 1 -4 2.5t-4 3.5v-7q2 -22 10 -37q7 -15 23 -19q8 -3 3 1zM560 471q18 5 25 21q8 15 9 35v3v4q-2 -2 -4 -3.5
t-4 -2.5q-3 -1 -4 -2v-7q0 -13 -7 -27q-5 -11 -17 -20q-6 -4 2 -1zM491 474l7 4h17l7 -4q5 -2 7 -2.5t5 -0.5q10 0 20 6.5t15 16.5q3 3 5 13q4 19 -4 28q-3 4 -3 9q0 4 2 6q6 7 6 19q-1 5 -1.5 5.5t-2.5 1.5q-2 0 -2 -1t-2 -3q-3 -1 -5 -7q-2 -5 -3 -6q-1 0 -1 1q-1 1 -1 2
l-4.5 4.5t-4.5 2.5q-9 2 -22 -10l-2 -2l-1 2l-1 1q1 -3 1 -5.5v-4.5q-1 -2 -0.5 -2t5.5 3q6 5 16 5q14 0 18 -13l1 -3l-3 -1q-4 0 -8 -3q-6 -2 -7 -2q-4 0 4 -2q13 -5 12 -16q-1 -7 -5 -15.5t-9 -13.5t-12 -7.5t-15 -1.5q-7 0 -11 4q-5 3 -12 -1q-1 -1 -3 -1.5t-4 -1.5
q-14 -2 -28 7q-5 5 -10 14.5t-6 17.5q0 4 2 7q2 5 13 8q5 2 6 1q1 -2 -5 -4q-8 -3 -11 -6q-3 -4 0.5 -14t10.5 -18q8 -10 23 -10q7 0 12 4q3 2 7 2t7 -2q3 -3 8 -4q6 -1 14 1.5t13 7.5t9 15t3 15q-2 4 -12 9q-6 2 -5 4q1 1 -5 2q-5 0 -9 3q-7 4 -8 2q-3 -10 16 -14
q7 -1 9 -2.5t4 -4.5q2 -4 1 -7l-2 -2v-2q0 -6 -6 -12q-5 -4 -15 -4q-13 2 -16 5q-4 2 -7 0q-5 -3 -16 -5q-10 0 -15 4q-6 6 -6 11q0 1 -0.5 2t-0.5 2q-2 3 0 6q1 7 10 9q18 3 18 8v4q-1 4 -11 -1q-2 -1 -4.5 -2t-3.5 -1q-5 0 -11.5 1.5t-9.5 3.5q-7 3 -7 1t-3 -5
q-8 -8 -3 -29q1 -8 4 -13q2 -5 7.5 -10.5t10.5 -7.5q9 -5 15 -5t14 4zM763 472q21 6 37 19q5 3 11 9.5t8 9.5q1 1 3 1q1 -1 1 -3t2 1q9 12 12 30q2 6 1.5 6t-2.5 -5q-16 -31 -54 -47q-8 -3 -11 -6q-2 -2 -4 -3.5t-4 -3.5q-4 -3 -6 -7q-3 -3 0 -3zM262 481q1 0 3 2q1 1 -3 4
q-2 2 -8.5 8t-6.5 5l-3 -3l-4 -2q0 -3 11 -12q5 -3 6 -3.5t5 1.5zM384 480q3 0 3 2q3 3 -7 11q-12 9 -15 9t-2 -4q2 -2 -1 -2q-1 -1 -3 2q-1 2 -2 3t-1 2q-1 0 -2.5 0.5t-3.5 0.5t-4 1q-1 0 1 -2q2 -3 4 -7q5 -10 10 -13q4 -2 11 -3.5t12 0.5zM650 482q6 2 12 14q3 6 5 8
q4 2 -4 0q-7 -1 -9 -6q-2 -3 -3 -2q-1 0 -1 2q1 1 1 2v1q0 1 -2.5 1t-4.5 -2q-2 -1 -8 -5.5t-8 -6.5q-3 -3 -3 -6l1 -1h1q1 -1 2 -1q2 -1 9 -1q5 0 7 0.5t5 2.5zM764 485q5 3 7.5 6.5t1.5 3.5q-2 0 -5 3l-3 2l-8 -8l-8 -8l1 -1q2 -2 3 -2q3 -2 4.5 -1.5t6.5 5.5zM194 496
q0 2 -3 6t-5 4q-1 0 -10 4t-17 7q-8 4 -16.5 10t-15.5 11q-9 7 -19.5 18.5t-16.5 21.5q-2 2 -2.5 3t0.5 0q3 -16 14 -32q5 -7 14 -16t17 -14q24 -16 51 -23l10 -2q0 1 -1 2zM832 497q71 22 90 76l2 6q0 3 -4 -5q-11 -17 -27.5 -31t-36.5 -24q-6 -4 -14.5 -7.5t-12.5 -4.5
q-3 -1 -6 -5q-2 -2 -2.5 -3.5t-1.5 -2.5v-2l3 1q2 0 10 2zM233 497l-8 8q-6 6 -12 9q-9 6 -17.5 13t-13.5 15q-4 5 -4.5 5.5t1.5 -4.5q12 -23 37 -39q5 -2 11.5 -5.5t8.5 -3.5l-1 1q-1 0 -2 1zM493 497q5 0 8 3q2 2 4 2t4.5 -1t2.5 -2t8 -2.5t12 -0.5q8 2 11 9q1 3 -1 3
q-1 0 -1 -2q-1 -3 -4 -4q-8 -5 -17 -3.5t-12 7.5q-2 4 -2 2q-2 -6 -9 -8q-4 -2 -9.5 -2t-7.5 2q-8 3 -8 6q0 2 -1 2q-2 0 -2 -2q2 -6 6 -8q5 -4 18 -1zM781 497q35 14 52 44l2 6l-1 -1q-2 -2 -2 -3q-13 -18 -33 -29q-2 -2 -5 -4.5t-5 -4.5t-4.5 -4t-4.5 -4q-4 -2 1 0z
M246 502q0 1 -2 3q-1 1 -7 9q-3 4 -6 7h-1l-2 -1q-4 -2 -5 -2q-2 0 -2 -2q1 -1 1.5 -2.5t1.5 -3.5q2 -2 7.5 -7t7.5 -5q1 0 3.5 2t3.5 2zM780 501q11 11 11 15q0 2 -1 2q-2 0 -4 1l-4 2q-3 -3 -6 -7q-6 -8 -7 -9q-2 -2 0 -3q2 -4 6 -4l1 1zM498 504q6 3 6 16q1 5 1 6t-2 1
q-3 0 -4 -5q-2 -11 -15 -12q-9 -2 -9 -3q2 -2 5 -3q3 -2 9 -2q5 0 9 2zM532 503q1 0 2 1t2 1q1 2 0 3t-2 1q-3 0 -5 1q-4 0 -8 2q-7 3 -7 9q-1 6 -4 6q-2 0 -2 -5q0 -9 3 -15q1 -3 5 -4q8 -3 16 0zM181 517q-1 2 -2.5 6t-2.5 6t-1 4q0 1 -1 2q-2 0 -14.5 7.5t-18.5 11.5
q-58 37 -61 88v4l-2 -7q-3 -17 -2 -29q2 -13 5 -21l1 -2v4q1 4 2 4t3 -3q9 -20 28.5 -39.5t44.5 -31.5q7 -4 14.5 -7t9.5 -4q-1 1 -1 2q-1 1 -1 2t-1 3zM837 513q57 24 83 67q2 3 3.5 6l2.5 5q1 4 3 4q1 0 2 -4l1 -4l2 6q7 21 1 46q-2 5 -2 5.5t0 -1.5q-2 -25 -14 -44
q-22 -33 -71 -60l-9 -4l-3 -7q-2 -7 -5 -12l-2 -6q1 0 3 1t5 2zM477 513q6 3 16 13q6 6 7 6q2 1 6.5 1t6.5 -1q4 -2 9 -7q10 -10 18 -13q10 -2 4 6q-1 2 -2.5 3t-8.5 3q-11 1 -15 7q-4 4 -1 13q4 10 2 16q-4 7 -15 5q-5 -1 -7.5 -2t-4.5 -3q-4 -4 0 -14q4 -7 4.5 -9.5
t-0.5 -4.5q-1 -4 -14 -8q-6 -2 -9 -2q-3 -2 -5 -5t1 -5q0 -1 8 1zM489 514q7 3 7 8l1 3l-4 -4q-2 -2 -3.5 -3t-3.5 -3q-4 -3 -1 -2q1 0 2 0.5t2 0.5zM527 515l-7 7q-4 4 -4 2q1 -1 1 -3q0 -5 8 -7q5 -2 5 -1.5t-3 2.5zM215 522q-2 2 -3 4.5t-3 4.5q-1 4 -6 7q-24 17 -37 42
q-2 2 -2.5 3.5t-1.5 2.5t-1 2q0 -2 2.5 -10t4.5 -11q2 -4 2 -3v1q2 2 2 -1q1 -2 4.5 -8.5t5.5 -10.5q5 -7 14 -15t17 -13l5 -3v2q0 1 -3 6zM802 519q27 17 37 41q4 8 4 4q0 -3 3 3q1 3 3.5 11t2.5 10q0 -1 -1 -2t-1.5 -2.5t-1.5 -3.5q-12 -23 -35 -40l-8 -6q0 -1 -5 -9
q-5 -7 -5 -9t1 -1.5t6 4.5zM226 522q1 0 1.5 0.5t1.5 0.5l-2 4q-1 2 -2 3.5t-2 3.5l-6 10l-1 -1h-2q-1 -1 -4 -1q-2 0 -2 -1t2.5 -5t5.5 -9q4 -6 5 -6.5t5 1.5zM796 525q2 2 3.5 5l2.5 5l3 6q-2 0 -4 1l-5 2q-1 -2 -3 -5.5t-4 -6.5q-3 -4 -5 -8q1 -1 3 -2t5 -1zM434 534
q0 1 4 5q2 2 2 5q-1 2 -2 3.5t-1 0.5q0 -2 -3 -3.5t-6 0.5q-2 1 -1 3h3q4 -2 4 0q0 3 -4.5 7.5t-7.5 4.5q-2 0 -4 -3t-2 -5q0 -8 12 -17q5 -4 6 -1zM584 534q3 2 6.5 5.5t5.5 7.5q2 5 -1 10q-3 3 -5 3t-7 -5q-3 -3 -3.5 -6t3.5 -1q3 1 3.5 -0.5t-1.5 -2.5q-8 -4 -8 3
q-1 1 -2.5 -1t-1.5 -4t2 -4q2 -1 4 -5q1 -2 5 0zM532 541q-3 5 0 8q1 2 0 1t-5 -3l-4 -3l5 -3q1 -1 2 -1t2 -1l1 -1v1q-1 1 -1 2zM173 540q-1 1 -1 2l-2 4t-3 5t-8 6q-60 40 -73 82q-2 6 -2.5 5.5t0.5 -8.5q6 -44 59 -80q4 -2 8.5 -4.5t7.5 -4.5q6 -4 10 -6zM461 541
q-4 7 1 10l2 3l-2 -1q-10 -2 -12 -7q-1 -1 4 -4q6 -2 7 -2t0 1zM852 546q35 19 54 41q21 24 23 50v7l-2 -6q-8 -22 -27 -43t-48 -39q-7 -5 -9 -10q-4 -6 -2 -6q1 0 3 1t8 5zM558 544q0 1 -3 4.5t-5 3.5q-1 0 0 -1q2 -1 2 -7v-4l3 2q3 0 3 2zM485 542q2 2 2 3q-3 5 -7 8
q-3 2 -4 2t1 -2q4 -5 4 -9v-3q1 0 1.5 0.5t2.5 0.5zM542 545v4q-4 0 -4 -4t4 -4v4zM471 546q0 1 -0.5 1.5t-0.5 1.5v1l-2 -2q-1 -1 -1 -3q3 -3 4 -3v4zM199 547q-5 5 -6 10q0 3 -7 10q-5 5 -10.5 12t-9.5 15q-4 6 -4 5t3 -10q4 -9 9.5 -18t13.5 -17q5 -4 9 -7.5t4 -2.5
q-1 0 -1 1q-1 1 -1 2zM818 548q23 20 32 46q0 1 0.5 1.5t0.5 1.5v2q0 -1 -1 -2q-2 -2 -3 -4q-4 -6 -9.5 -13t-10.5 -14q-7 -6 -7 -8q0 -6 -6 -12q-4 -3 -2.5 -2.5t6.5 4.5zM213 545l3 1l-4 8q-4 8 -4 9q-2 3 -3 1q0 -1 -1 -1h-4q-3 0 -4 -3q0 -6 6 -12q5 -5 11 -3zM811 548
q6 6 6 12q0 2 -4 2q-2 1 -3 1t-2 1q-2 1 -2 0q-1 -1 -1.5 -3.5t-2.5 -5.5l-4 -8q0 -1 3 -2t5 -1q1 0 5 4zM449 550q4 4 15 7q14 3 20 -3l2 -1v2q0 1 0.5 2t0.5 2l2 3l-3 -2l-2 -2l-3 2q-13 11 -19 11t-6 -3q0 -2 -1 -2q-2 -1 -3 0q-4 9 -11 7q-1 -1 -2 1v-4q-2 -13 5 -20
l1 -2q0 -2 4 2zM247 552q1 0 2 0.5t2 0.5h1q0 2 -1 3q-2 1 -8 1q-3 -1 -5.5 -1h-4.5q-3 0 -8.5 1t-7.5 3q-1 0 0 -3l1 -2q0 -1 1 -1l4 -2q4 -1 11.5 -1t12.5 1zM792 553q3 0 3 3q2 4 -1 3q-2 -2 -8 -2q-5 -1 -11 -1q-6 2 -8.5 1.5t-4.5 -2.5l-2 -2l5 -1q4 -1 14 -1t13 2z
M267 555q0 8 -6 14q-3 3 -5 3t-8 -2q-18 -7 -38 1q-3 3 3 -5q11 -9 27 -6q7 1 8.5 0.5t4.5 -2.5q3 -4 10 -5q2 0 4 2zM756 555q2 0 4 2q0 1 3 3q1 1 9 0q17 -3 28 6q2 2 3.5 4t-0.5 1q-14 -6 -26 -4q-6 0 -12 3q-5 2 -7 2.5t-4 -1.5q-3 -2 -5.5 -7.5t-1.5 -8.5q0 -2 3 -2
q4 0 6 2zM165 561q0 4 -4 14l-2 8l-8 6q-41 30 -56 62q-10 21 -10 41v10l-1 -4q-1 -2 -1.5 -5t-1.5 -5q-1 -5 -1.5 -15.5t0.5 -13.5v-2l2 3q1 2 3 2q1 0 1 -6q0 -8 4 -18.5t10 -20.5q8 -11 19 -23t25 -22q5 -4 13.5 -10t8.5 -5v1q0 1 -0.5 1.5t-0.5 1.5zM858 564
q54 37 66 75q2 5 3 11.5t0 9.5q0 2 1 2h1q1 1 2 -2t2 -1q2 4 0.5 17t-4.5 21l-1 5v-11q0 -32 -26 -64q-6 -8 -18 -19.5t-23 -19.5l-6 -5l-3 -9q-5 -13 -5 -17q0 -2 11 7zM587 562q4 2 6 2q5 0 8 7t1 14l-2 4l-1 -4q-1 -2 -1.5 -4.5t-1.5 -3.5q-2 -5 -12 -12q-3 -2 -3 -3v-1
q0 -1 -0.5 -1t-0.5 -1v-2l2 2q1 1 2.5 1.5t2.5 1.5zM433 559q-1 1 -1 3l-4 4q-9 5 -11 11q-1 2 -3 8l-1 4l-1 -2q-1 -1 -1 -7t2 -9q3 -7 8 -7q2 0 5 -1.5t4 -3.5q3 -3 3 0zM488 565l4 2l-1 6q0 7 1 10q2 2 3.5 4.5t3.5 2.5q4 -2 0 -4q-6 -3 -4 -15v-3q0 -1 1 -1h1q2 0 3 1
q9 2 14 0q1 -1 2 -1h1q1 0 1 9t-4 10q-4 2 0 4q2 0 4 -3t3 -5t1 -9q-1 -6 1 -8l2 -2l5 3q15 12 26 2q2 -2 3 -1q0 1 1 2q0 2 -2 4q-11 12 -31.5 17t-40.5 0t-30 -15q-2 -3 -2 -4t2 1q8 8 23 -6q2 -2 4 -2l1 -1zM204 566l2 2q-1 0 -1.5 3.5t-2.5 7.5t-4 11l-4 1q-6 0 -6 -6
q0 -7 5 -17q2 -3 5 -3q2 0 3 0.5t3 0.5zM821 572q4 7 4 11q0 5 -0.5 6.5t-5.5 0.5l-4 -1l-4 -10q-3 -9 -2.5 -10.5t5.5 -2.5q1 -1 3 -1h1q0 1 1 2t1 2t1 3zM188 573q-6 11 -2 19q1 1 0.5 2t-4.5 6q-30 36 -36 80l-1 6v-5q-1 -2 -1 -7.5v-11.5v-14t2 -9l4 -14t4 -12l1 -4v3
q0 3 2 3t4 -6q3 -7 7 -13t9 -13q4 -5 7.5 -9t3.5 -5v4zM244 572q5 2 5.5 2.5t-0.5 2.5q-3 4 -6 2h-15q-14 0 -16 1q-1 0 -1.5 0.5t-1.5 0.5h-1v-1q0 -2 1 -2q2 -5 14 -7.5t21 1.5zM790 570q2 1 4.5 1.5t4.5 1.5q4 2 5 5q1 1 1 2v1h-1q-1 0 -1.5 -0.5t-1.5 -0.5q-3 -1 -16 -1
h-14q-2 1 -4 1q-1 0 -2.5 -2.5t-1.5 -3.5q1 0 5 -1.5t6 -2.5q7 -2 16 0zM830 576q13 15 20 30q2 2 2.5 4t1.5 3l2 2q2 0 2 -3q0 -2 0.5 -1.5t2.5 5.5q2 6 4 13.5t3 14.5q1 5 1 17.5t-1 18.5v5l-2 -8q-6 -44 -36 -78l-4 -6l1 -3q2 -2 2 -5q0 -7 -4 -13q-2 -3 -0.5 -2t5.5 6z
M432 582l2 5l-1 4q-4 10 -4 18q0 3 -4 5q-2 1 -4 2.5t-4 2.5q-5 3 -5.5 2.5t-0.5 -7.5q0 -13 2 -13h3q2 -1 3 -6q0 -11 6 -19q3 -3 4 -1q0 1 1 3zM591 581q2 2 3 8t1 9q0 2 2 3h3l2 3v11t-1 7q-2 -1 -5 -3q-6 -4 -7 -5q-4 -2 -4 -5q0 -4 -1.5 -9.5t-3.5 -8.5l-1 -4l2 -5
l3 -6q1 -2 1 -3l2 2q2 2 4 6zM454 581q2 2 6.5 5t8.5 5q1 0 3.5 1t5.5 2q4 1 7 3q0 2 1 4l2 4h-13q-22 0 -39 7q-2 1 -1 -4q2 -19 13 -27q4 -2 6 0zM566 582q10 7 12 26q1 4 0 4l-8 -2q-13 -5 -32 -5q-12 0 -12 -1l2 -7q3 -2 7 -3q3 -1 5.5 -2t3.5 -1q4 -2 9 -5t7 -5
q1 -3 6 1zM233 582h6l-6 7h-8q-8 0 -20 4q-2 2 0 -2q0 -5 5 -7q10 -3 23 -2zM795 582q5 1 8.5 2.5t3.5 3.5q1 1 1 2t1 2q0 2 -1 2q0 -1 -7 -3q-4 -2 -13 -2h-8l-3 -3l-3 -4h4q11 -1 17 0zM251 584q2 4 -1.5 11.5t-7.5 7.5q-1 0 -9 -2q-7 -2 -13 -1q-10 0 -20 5l-4 3l1 -2
q2 -5 11 -10t17 -4t13 -4q4 -4 7 -4q5 -2 6 0zM770 584q3 3 5 4q4 5 12 4q13 0 24 7q2 2 4 4.5t2 3.5t-4 -1q-8 -6 -20 -6q-6 -1 -13 1q-8 2 -9 2q-3 0 -4 -3q-3 -3 -5 -8t0 -8q1 -2 8 0zM157 595q-1 12 -10 17l-11 11q-11 10 -18 19.5t-13 23.5q-5 9 -7.5 17t-4.5 17
q-2 8 -3 7t-1.5 -6t-0.5 -10q0 -49 62 -97l7 -5v6zM871 600q29 24 43 50t10 51q-1 6 -1.5 7t-0.5 -3q-1 -4 -3 -11t-4 -12q-8 -25 -26 -46q-4 -5 -12 -13t-12 -11q-7 -6 -9 -18v-5q0 -1 4.5 2.5t10.5 8.5zM197 595q0 2 -5 12q-4 8 -4 15q0 3 -1 4q-1 0 -2 -2q-5 -8 3 -26
q4 -5 7 -5t2 2zM821 594q2 0 4 6q5 9 5 18q0 10 -4 8q-1 -1 -1 -4q0 -5 -2.5 -11.5t-4.5 -8.5q-1 -2 -2 -5t0 -4q2 0 5 1zM494 601q2 8 10 9.5t13 -6.5q1 -1 1 -4q0 -2 2 -2h1q0 2 -4.5 11t-6.5 11q-3 3 -6 0q-1 -1 -3 -4.5t-4 -7.5l-3.5 -7t-0.5 -3v1q1 1 1 2zM512 599
q0 2 -2 3.5t-4 1.5t-4 -1.5t-2 -3.5h6h6zM233 604l4 2v9q0 41 20 60q16 16 39 18q2 0 4 0.5t3 0.5q2 0 0 2t-3 2t-1 1q-1 2 -10 2t-18 -3q-19 -5 -39 -23l-5 -5v-3q1 -2 1 -7v-4h-3q-3 0 -3 3q-3 20 -11 26q-5 4 -10.5 4t-5.5 -4q0 -2 5 -10q7 -9 7 -13.5t-6 -18.5
q-4 -10 -5 -14t-1 -8q0 -9 5 -11q14 -11 33 -6zM804 605q11 4 13 9t1 11t-7 20q-5 12 -4.5 17t5.5 13q5 6 5.5 8t-1.5 4q-6 6 -15 -3q-2 -2 -4.5 -8t-4.5 -12l-1 -8h-3q-3 0 -3 1q-1 1 -0.5 5t1.5 6t-7.5 9.5t-16.5 12.5q-4 2 -10.5 4.5t-10.5 4.5q-8 2 -17 2t-9 -2
q-3 -3 -5 -3q-1 -2 0 -2t10 -1q38 -6 52 -43q2 -7 3 -13.5t1 -17.5v-14l4 -1q5 -1 12 -1t12 2zM180 612q-2 6 -6 13t-10 18.5t-9 20.5q-3 8 -3.5 7t2.5 -10q8 -27 24 -51q1 -1 1 -1.5t1 -1.5q0 -1 1 -1v1q0 1 -0.5 2t-0.5 3zM836 612q15 19 21 42q3 9 4.5 15.5t-1.5 -1.5
q-4 -10 -10 -22.5t-12 -21.5q-3 -6 -5 -12q0 -1 -0.5 -1.5t-0.5 -1.5v-2q-2 -4 4 5zM487 611l5 1l4 8h-8q-10 0 -22.5 1t-20.5 3h-3v-4q0 -3 0.5 -3.5l1.5 -1.5q7 -2 20 -3.5t23 -0.5zM552 612q5 1 9.5 1.5t7.5 1.5q2 1 2 5v4h-3q-8 -2 -20.5 -3t-22.5 -1h-7l1 -4q2 -4 5 -4
q5 -1 14 -1t14 1zM147 622q-2 6 -3.5 14t-2.5 16l-1 8l-5 8q-18 31 -24 57q-7 41 6 78q1 2 -4 -4.5t-9 -11.5q-13 -19 -17 -38q-1 -5 -1.5 -8.5t-0.5 -10.5v-15l1 -3l2 4q1 5 3 5q2 -2 2 -5q3 -26 15.5 -50.5t32.5 -42.5l7 -7v2q0 1 -0.5 1.5t-0.5 2.5zM875 625q26 26 38 61
q2 7 4.5 16.5t2.5 13.5t2 4l1 -1q1 -1 1 -1.5t1 -1.5q1 -2 3 -4v3v15v10.5t-2 8.5q-4 19 -17 37q-3 5 -8 11.5t-5 5.5l4 -12q2 -5 2.5 -10t1.5 -8q1 -7 1 -19t-2 -20q-4 -32 -26 -68l-4 -7l-1 -7q0 -11 -5 -28l-2 -8q1 0 10 9zM482 630q0 4 -2 5q-2 2 -6.5 5t-5.5 3v-8
q0 -6 1 -7.5t7 -1.5h5zM495 633q7 13 15 10q4 -2 9 -11q2 -4 4 -6q2 0 1 2l-2.5 7.5t-5.5 10.5q-5 8 -6.5 10t-3.5 2q-3 0 -4.5 -1.5t-5.5 -9.5q-7 -14 -8 -18q-1 -3 1 -3q1 0 6 7zM507 627h5q4 -2 2 0q0 3 -3 6q-4 9 -10 -1q-1 -2 -1 -4q0 -1 -1 -1q0 -2 2 0h6zM544 627
q1 1 1 8v8l-4 -2q-2 -1 -3 -2t-3 -2q-5 -3 -5 -8l1 -3h6q3 0 4.5 0.5t2.5 0.5zM537 648q1 1 1 7q-1 5 -1.5 5t-5.5 -3q-8 -5 -8 -8q0 -1 2 -5q1 -2 2 -5l5 4q5 3 5 5zM490 650q0 2 -9 7l-5 3v-4q-1 -10 3 -12t4 -3q1 0 1 -0.5t1 -0.5q1 3 2 5t2 3t1 2zM522 658q0 2 3 2l2 2
v8q-1 3 -1.5 7.5t-1.5 6.5q-1 5 -4.5 13t-6.5 13l-3 4l1 14q0 5 0.5 9.5t-0.5 6.5q0 6 -6 4q-3 0 -5 -8q0 -6 2 -10q4 -12 -2 -21q-2 -3 -5 -10t-5 -12q-3 -5 -3 -14q-1 -8 -1 -9.5t2 -3.5q1 0 2 -1t2 -1q2 -4 2 -1q1 2 4 4.5t5 3.5q11 2 14 -8q1 -3 5 1zM879 676
q8 14 13 27.5t8 29.5q1 5 1 23v14.5t-2 9.5q-3 14 -3.5 14t-0.5 -14q0 -52 -19 -91l-4 -9v-7q1 -6 1.5 -5.5t5.5 8.5zM141 674q0 5 -0.5 7t-3.5 7q-13 30 -18 67q-1 4 -1 11v14v15l-1 -4q-3 -9 -4 -15.5t-1 -20.5v-16t2 -11q5 -21 13 -39q5 -9 8.5 -15.5t4.5 -5.5v2
q0 1 0.5 1.5t0.5 2.5zM244 689q21 15 45 15q3 0 4 0.5t0 0.5t-1.5 0.5t-1.5 0.5q-3 0 -4 1q-2 2 -10 2q-11 0 -18 -1.5t-16 -6.5q-6 -3 -14 -9t-7 -7l2 -6l3 -6l6 6q6 6 12 10zM792 686q-11 9 -18 13.5t-17 7.5q-4 2 -6.5 2h-10.5t-13.5 -2t-6.5 -2t0.5 -0.5t3.5 -0.5
q5 0 11.5 -1t11.5 -3q10 -3 19.5 -9.5t16.5 -13.5q4 -4 5 -2t2 5z" />
    <glyph glyph-name="Th" unicode="Th" horiz-adv-x="668" 
d="M638 114q9 -5 9 -15q-3 -25 -36 -61q-34 -38 -58 -38q-25 0 -22 43q3 28 12 81q8 50 13.5 79t7.5 45q3 18 3 25q2 23 -9 23q-17 0 -36 -15.5t-38 -43.5q-16 -23 -28.5 -52t-18.5 -57l-12 -77q-8 -16 -21 -28.5t-25 -20.5q-7 -4 -13 -3t-4 6q4 6 6.5 13.5t4.5 14.5l4 16
l7 49q14 87 21.5 135t11 71t4.5 28.5t1 7.5q4 23 13 59t24 74q-48 -30 -108 -30h-72l-64 -372q-3 -18 -11 -24q8 -3 16 -4.5t14 -1.5q2 0 8.5 2t8.5 4q7 5 12 0t-6 -17q-17 -20 -31 -26t-19 -4q-2 0 -6.5 1t-7.5 2q-9 2 -19 4.5t-19 3.5q-2 0 -6.5 -1.5t-10.5 -4t-11 -4
t-8 -1.5t-2 5t3 11t6 12t7 8q8 6 14 11t10 13.5t7.5 21.5t7.5 34q14 83 27 163t26 164h-42q-57 0 -80 -23.5t-27 -70.5q-1 -27 11 -61l-57 -64q-6 34 -4 63q8 97 76 159q25 22 52.5 33.5t70.5 11.5h166q68 0 92 36q8 14 16.5 28t19.5 26q24 24 49.5 32.5t42.5 10.5q9 1 16 2
t18 8q3 2 2.5 -6t-16.5 -24q-9 -8 -17 -9.5t-16 -2.5q-16 0 -33.5 -10t-29.5 -27q-14 -25 -25 -56t-19 -62t-13.5 -59t-8.5 -47q-5 -30 -8.5 -53.5t-8.5 -54.5q34 54 69 86q44 42 73 42q14 0 20 -10.5t6.5 -25.5t-2 -32t-4.5 -29q-5 -31 -11 -63.5t-12 -63.5
q-3 -20 -5.5 -35.5t-3.5 -26.5q-2 -14 3 -14q18 0 48 62l5 1v0z" />
    <glyph glyph-name="Tk" unicode="Tk" horiz-adv-x="646" 
d="M537 555q-14 -21 -24.5 -48t-18.5 -55t-13.5 -54t-8.5 -47l-14 -95q10 17 22 32.5t25 28.5q16 15 33 24.5t30 9.5q40 0 37 -50q-3 -46 -36 -83q-31 -36 -81 -53q42 -112 66 -112q18 0 43 44q4 -5 6.5 -9.5t2.5 -9.5q-2 -19 -30 -47q-14 -14 -26 -22.5t-20 -8.5
q-16 -1 -36.5 37t-52.5 115l-8 -50t-7 -50q-8 -17 -20.5 -29.5t-25.5 -20.5q-6 -4 -11.5 -3t-5.5 6q3 5 5 11.5t4 12.5q2 7 4 15l52 327q5 22 11.5 48t17.5 54q-45 -29 -105 -29h-73l-64 -372q-3 -18 -11 -24q8 -3 16 -4.5t14 -1.5q2 0 8.5 2t8.5 4q7 5 12 0t-6 -17
q-17 -20 -31 -26t-19 -4q-2 0 -6.5 1t-7.5 2q-9 2 -19 4.5t-19 3.5q-2 0 -6.5 -1.5t-10.5 -4t-11 -4t-8 -1.5t-2 5t3 11t6 12t7 8q8 6 14 11t10 13.5t7.5 21.5t7.5 34q14 83 27 163t26 164h-42q-57 0 -80 -23.5t-27 -70.5q-1 -27 11 -61l-57 -64q-6 34 -4 63q8 97 76 159
q25 22 52.5 33.5t70.5 11.5h167q65 0 91 35q8 14 17.5 28t20.5 26q24 24 49.5 32.5t42.5 10.5q9 1 14 2t8 2t4 2q4 1 7 -4.5t-13 -21.5q-9 -8 -17 -9.5t-16 -2.5q-17 0 -34 -8.5t-29 -28.5zM491 266q-12 -17 -23 -37t-21 -46q40 1 69 24q33 23 34 58q3 35 -16 35
q-18 0 -43 -34z" />
    <glyph glyph-name="Tl" unicode="Tl" horiz-adv-x="540" 
d="M636 623q4 1 7 -5t-13 -20q-9 -7 -16.5 -8.5t-15.5 -2.5q-17 0 -34 -8t-30 -25q-17 -29 -30.5 -68.5t-19.5 -76.5l-43 -280q-3 -17 -4.5 -29t-2.5 -19q-3 -28 2 -28q10 0 23 19q8 13 13.5 24t10.5 27q13 -10 13 -20q-1 -13 -10.5 -30.5t-24.5 -34.5q-33 -38 -56 -38
q-26 0 -25 48q1 7 1.5 14.5t2.5 15.5q11 67 21.5 135.5t20.5 135.5q4 24 10 55.5t17 66.5q-45 -27 -101 -27h-73l-64 -372q-3 -18 -11 -24q8 -3 16 -4.5t14 -1.5q2 0 8.5 2t8.5 4q7 5 12 0t-6 -17q-17 -20 -31 -26t-19 -4q-2 0 -6.5 1t-7.5 2q-9 2 -19 4.5t-19 3.5
q-2 0 -6.5 -1.5t-10.5 -4t-11 -4t-8 -1.5t-2 5t3 11t6 12t7 8q8 6 14 11t10 13.5t7.5 21.5t7.5 34q14 83 27 163t26 164h-42q-57 0 -80 -23.5t-27 -70.5q-1 -27 11 -61l-57 -64q-6 34 -4 63q8 97 76 159q25 22 52.5 33.5t70.5 11.5h167q54 0 80 23q19 38 46 65
q26 28 49.5 33t42.5 6q8 0 13 0.5t8 1.5q4 1 5 2z" />
    <glyph glyph-name="krajang" unicode="LOGO&#x2e;krajang" horiz-adv-x="482" 
d="M385 285q9 -5 19.5 -14t20.5 -18q11 -11 22 -23q-11 -13 -22 -24q-10 -10 -20.5 -19t-19.5 -14q-10 -5 -19 -6t-14 1q-5 1 -9 5l-3 3q-1 -2 0 -5q2 -6 11 -10q2 -2 5 -2t5 -1q3 -1 5 -1q-4 -3 -9 -7q-10 -7 -28 -11q-4 -18 -11 -28q-4 -5 -7 -9q0 3 -1 6q-1 2 -1.5 5
t-1.5 5q-5 9 -10 11q-3 1 -4 0q1 -2 3 -4l2 -4t2 -5q5 -13 -5 -32q-5 -9 -14.5 -20t-18.5 -21q-11 -11 -23 -22q-12 11 -23 22q-9 10 -18.5 21t-14.5 20q-5 10 -6.5 18.5t0.5 13.5q1 5 5 9q2 2 3 4q-2 1 -5 0q-5 -2 -9 -11q-2 -2 -2 -5t-1 -5q-1 -3 -1 -6q-3 4 -7 9
q-3 5 -6.5 11.5t-5.5 16.5q-18 4 -28 11q-5 4 -9 7q3 0 6 1q2 1 5 1t5 2q9 4 11 10q1 3 0 5q-2 -1 -4 -3q-4 -4 -9 -5q-5 -2 -13.5 -1t-18.5 6q-9 5 -20 14t-21 19q-11 11 -22 24q11 12 22 23q10 9 21 18t20 14q10 5 18.5 6.5t13.5 -0.5q5 -1 9 -5q2 -2 4 -3q1 2 0 5
q-2 5 -11 10q-2 1 -5 1.5t-5 1.5q-3 1 -6 1q4 3 9 7q10 7 28 11q2 10 5.5 16.5t6.5 11.5q4 5 7 9q0 -2 1 -5q1 -2 1 -5.5t2 -5.5q2 -5 4.5 -7t4.5 -3q3 -1 5 -1q-1 2 -3 4q-4 4 -5 9q-2 5 -0.5 13.5t6.5 18.5q5 9 14.5 19.5t18.5 20.5l23 23l23 -23q9 -10 18.5 -20.5
t14.5 -19.5q10 -19 5 -32q-1 -3 -2 -5l-2 -4q-2 -2 -3 -4q1 0 4 1q5 2 10 10q1 2 1.5 5.5t1.5 5.5q1 3 1 5q3 -4 7 -9q7 -10 11 -28q18 -4 28 -11q5 -4 9 -7q-2 0 -5 -1q-2 -1 -5 -1.5t-5 -1.5q-9 -5 -11 -10q-1 -3 0 -5l3 3q4 4 9 5q5 2 14 0.5t19 -6.5zM239 345
q-7 -4 -13 -9q-5 -5 -10.5 -11t-8.5 -14q1 -1 2 -1.5t2 -1.5q7 -5 11.5 -16t7.5 -25q2 0 4 0.5t4 0.5q4 0 10 -2q5 31 19 42q1 1 2 1.5t2 1.5q-4 8 -9.5 14t-10.5 11q-6 5 -12 9zM160 202q6 7 17.5 11.5t25.5 7.5q-1 3 -1 10v8q-14 2 -25 6.5t-17 12.5q-2 2 -3 4
q-8 -4 -14 -9.5t-11 -10.5q-5 -6 -9 -12q4 -7 9 -13q5 -5 11 -10.5t14 -9.5q1 2 1.5 2.5t1.5 2.5zM239 114q6 4 12 9q5 5 10.5 11t9.5 14q-1 1 -2 1.5t-2 1.5q-8 6 -12.5 17.5t-7.5 26.5q-2 -1 -9 -1q-5 0 -8 1q-5 -31 -19 -44q-1 -1 -2 -1.5t-2 -1.5q3 -8 8.5 -14t10.5 -11
q6 -5 13 -9zM321 197q8 4 13.5 9.5l10.5 10.5q5 6 10 13l-10 12l-10.5 10.5t-13.5 9.5q-1 -3 -4 -4q-5 -8 -16.5 -12.5t-26.5 -7.5q1 -2 1 -7q0 -7 -1 -10q32 -5 43 -19q3 -3 4 -5z" />
    <glyph glyph-name="endlineB" unicode="LOGO&#x2e;endlineB" horiz-adv-x="2201" 
d="M788 243l16 -14q11 -8 32 -14.5t31 -8.5h4q33 -3 65 -3.5t58 10.5q22 9 50 18t57 10q29 -1 56 -9.5t51 -18.5q26 -11 58 -10.5t64 3.5h4q11 2 32 8.5t31 14.5l17 14v-24v-6q14 -1 65.5 -2.5t123 -3.5t156 -4t166 -3.5t152 -3t114.5 -1.5h10v-23l-10 -1q-44 0 -114.5 -1
t-152 -3t-166 -3.5t-156 -3.5t-123 -3.5t-65.5 -2.5v-7v-24l-17 14q-10 9 -31 15.5t-32 8.5h-4q-32 2 -64 3t-58 -10q-24 -10 -51 -18.5t-56 -9.5q-29 1 -57 9.5t-50 18.5q-26 11 -58 10t-65 -3h-4q-10 -2 -31 -8.5t-31 -15.5l-17 -14v24q0 5 -1 7q-11 1 -43 2t-78 2
t-103.5 2.5t-119.5 3t-125 2.5t-120.5 2t-106 2t-81.5 1l-10 1v23h10q44 0 114.5 1.5t152 3t166 3.5t156.5 4t122.5 3.5t65.5 2.5q1 2 1 6v2v22z" />
    <glyph glyph-name="endlineC" unicode="LOGO&#x2e;endlineC" horiz-adv-x="2205" 
d="M901 228l9 -6q23 -17 51 -21t54 -4q7 5 30 16.5t58 11.5t57.5 -11.5t30.5 -16.5q26 0 54 4t51 21l9 6l6 -10q1 -5 5 -8h1v-1q9 -10 32 -12q3 6 10 10.5t18 4.5h1h1q19 -3 25 -17q13 0 19 7l3 5l6 -1q38 -3 89 -5t108.5 -3t119 -1.5t120.5 -1t113.5 -0.5h97.5h115h10v-22
h-10h-104h-99t-115 -0.5t-122.5 -1t-121 -1.5t-110.5 -3t-91 -5l-6 -1l-3 5q-3 4 -7.5 5t-11.5 2q-6 -14 -25 -17h-1h-1q-11 0 -18 4.5t-10 10.5q-23 -2 -32 -12v-1h-1q-4 -4 -5 -8l-6 -11l-9 7q-13 10 -29 15t-31.5 7.5t-27.5 2t-17 -0.5q-7 -5 -29.5 -16.5t-58.5 -11.5
q-35 0 -58 11.5t-30 16.5h-17.5t-28 -2t-31.5 -7t-28 -15l-10 -7l-5 11q-2 2 -3 4t-3 4l-1 1q-9 10 -31 12q-4 -6 -10.5 -10.5t-18.5 -4.5h-1q-20 3 -26 17q-14 0 -18 -7l-4 -5l-5 1q-39 3 -91 5t-110.5 3t-121 1.5t-123 1t-115.5 0.5h-99h-104h-10v22h10h115h97.5t114 0.5
t120.5 1t119 1.5t109 3t89 5l5 1l4 -5q4 -7 18 -7q6 14 26 17h1q12 0 18.5 -5t9.5 -10q23 2 32 12l1 1q2 2 3 4t3 4z" />
    <glyph glyph-name="Sboat" unicode="LOGO&#x2e;Sboat" horiz-adv-x="970" 
d="M939 192q3 -4 -4.5 -14t-21.5 -18q-9 -6 -17 -3.5t-12 -4.5q-3 -5 -5 -29t-9.5 -50.5t-24 -48t-49.5 -21.5q-5 0 -9 -1t-11 -2l-602 1q-19 2 -31.5 8.5t-25.5 17.5q-11 8 -16 18.5t-7 19.5q-3 11 -2 21q-2 2 -3 4q-3 3 -3 7q1 3 3.5 6.5t4.5 14.5q1 5 3.5 16.5t4.5 22.5
q3 13 6 29q1 1 1 4q0 7 -1 11q-2 7 -2.5 8t-4.5 4t-6.5 4.5t-5.5 10.5q-4 8 -7 9.5t-6 4.5q-4 4 -10 9t-10 8q-5 3 -6 5.5t-5 4.5q-2 0 -2 0.5t-1 0.5h-1h-1v-3q-1 -2 0 -3q1 -2 0.5 -2.5t-0.5 -2.5v-6q0 -2 1 -4l1 -2q2 -2 2 -7q0 -2 1 -2.5t2 -2.5t1.5 -2t0.5 -5t-2 -9.5
t-3 -6.5q-2 -7 -3 -7h-2q-1 0 -1 1q-1 0 -5 10q-2 5 -2.5 8t-0.5 7t1 5l2 2v-1l1 1q1 1 1 7v3q0 1 1 1v4q0 2 0.5 3t0.5 2q0 2 -0.5 3t-0.5 2t0.5 2t0.5 3t-0.5 5.5t-0.5 4.5v4v4q0 1 2 3l1 1q2 -1 3.5 -3.5t3.5 -5.5q5 -6 11.5 -7.5t12.5 -6.5q12 -7 22 -9q4 0 8.5 1
t9.5 -1q2 -2 6.5 -3.5t8.5 -3.5q4 -3 10 -5q2 0 5 -1q6 -2 6 -3q0 -2 -4.5 -7.5t-4.5 -7.5t2 -9.5t2 -15.5v-15t0.5 -21t0.5 -20.5v-11.5q0 -7 1 -10q0 -3 1 -5l5 -1l4 -10l3.5 -7t1.5 -4q-1 -2 -3 -7t0 -8h1q0 1 1 1l2 1q2 2 5 2.5t5 0.5q1 0 2 -1t3 -2t3 -2h2q1 0 4 -3
q4 -2 4 -6q0 -2 -0.5 -2t0.5 -2l3 -3q4 0 10 -0.5t15 -0.5q1 2 1.5 3.5t1.5 2.5q2 1 2.5 1t4.5 2q8 6 18 6q2 0 5.5 -2t5.5 -3q2 -2 5 -3t5 -4v-2q0 -1 1 -1h8q-2 7 -1 8t5.5 1t6.5 1t3 4t3 7q2 5 6 11t5 8q2 2 2 6v6q0 6 2 10t2 7q0 1 -0.5 4t-0.5 7v9q0 2 1 3t2 3t3 3
l3 -3q1 -2 1.5 -2.5t1.5 -2.5q0 -2 -0.5 -9.5t-0.5 -9.5q0 -3 0.5 -5.5t1.5 -5.5t1 -10t1 -10t3.5 -7t4.5 -7q2 -4 3.5 -6t3.5 -6q1 -2 2.5 -2.5t2.5 -1.5t2 -1q6 -1 9 2.5t5 5.5q1 1 5 6.5t8.5 12.5t9 13.5t5.5 8.5q2 4 4.5 3.5t3.5 1.5l2 4q1 1 1 3l8 22l2 9q1 1 2 4
q1 2 1 4t1 4q2 2 2 4v2q0 1 1 3l2 4q0 1 1 2h1l3 6q4 8 5 13t4 11.5t4 9.5q0 4 0.5 8.5t0.5 8.5v6v10.5t0.5 10t0.5 5.5l4 4q2 1 3 3v26v19.5t2 12.5q1 4 3.5 6.5l4.5 4.5l6 4q2 -2 5 -4q6 -6 8 -11q2 -4 2 -13.5v-19.5v-25l5 -5q0 -1 0.5 -1t0.5 -1t1 -1v-5q-1 -5 -0.5 -12
t0.5 -9q0 -4 -0.5 -10.5t0.5 -10.5q0 -3 1.5 -9.5t3.5 -11.5q1 -5 3 -13q1 -4 1 -6q1 0 2 -1l2 -2q0 -1 0.5 -2t0.5 -2t1 -2v-2q0 -1 2 -5q0 -3 2 -7l2 -4l1 -7l7 -23v-3q0 -4 1 -4q1 -2 2.5 -2t3.5 -4q1 -2 4.5 -8t7.5 -13t7 -13t4 -7q2 -2 4 -5.5t10 -1.5q1 0 1.5 0.5
t1.5 0.5q1 1 3 1v4q0 1 1 2q1 9 4.5 10t5.5 12q1 3 1 7v6q0 1 2 3l1 1v12q0 5 0.5 9.5t0.5 6.5q0 5 3 7q1 1 3 2q1 1 3 0q4 -2 4 -8v-16q0 -6 1 -13l1 -1q0 -1 0.5 -1.5t0.5 -2.5v-13q1 -2 1 -4t2 -4l2 -4q0 -1 1 -1l1 -1q1 -1 1 -1.5t1 -1.5q2 -2 2.5 -3.5t2.5 -3.5t3 -2h3
q2 1 5 3t5 3t3 2t3 1q1 0 2.5 0.5t3.5 -1.5q8 -8 15 -8q3 0 7 4q2 1 3 2.5t3 2.5q4 2 3 2v4q0 1 0.5 0.5t1.5 1.5l1.5 3t2.5 3t5.5 2h5.5q1 0 2 -1t3 -2t3 -2h1q2 0 5 -3q4 -2 4 -6q0 -2 -0.5 -2t0.5 -2q0 -1 3 -4q1 -1 2 -1h3q1 0 1 -1.5t1 -1.5h2q0 -1 1 -1l2 -1t7 1
q2 0 2.5 1t2.5 3l2 4t2 3l6 3q4 2 8.5 4t10.5 2q2 0 5.5 -2t5.5 -3q2 -2 5 -3t4 -4q2 -3 2.5 -3.5l1.5 -1.5t4 -1q1 0 3 -1h2q1 0 2 -1h1q2 -1 5 -1q3 -1 8 -1l2 -1q10 8 17 21.5t13 28t11.5 27.5t11.5 19q13 13 29 14t26 3q14 3 18.5 5.5t6.5 -0.5z" />
    <glyph glyph-name="endlineA" unicode="LOGO&#x2e;endlineA" horiz-adv-x="1904" 
d="M1940 195q2 0 -4.5 -5.5t-7.5 -6.5q-5 -3 -12.5 -9t-13.5 -6h-81.5t-87.5 -0.5t-87.5 -0.5h-81.5q-32 0 -64.5 -0.5t-64.5 1.5q-4 0 -8 0.5t-8 0.5q-13 -26 -33.5 -47.5t-45 -38t-52.5 -27.5t-55 -14q-35 -4 -69 0.5t-67.5 14t-66 23t-63.5 27.5q-80 35 -158 72.5
t-160 67.5q-41 14 -81.5 26t-82.5 20q-5 -6 -8 -12l-6 -12q-12 -29 -12 -60q0 -10 1 -15h23h64.5t64.5 -5q18 -3 41 -10.5t40 -20t22 -30t-12 -41.5q-14 -18 -32.5 -32.5t-40.5 -23.5t-45 -11.5t-45 2.5q-54 12 -85 52.5t-35 92.5h-89h-70.5h-62.5h-63t-73.5 0.5t-93.5 0.5
q-2 0 4 5.5t8 6.5l12 9t13 6h125.5h94t88 -0.5t107.5 -0.5q3 30 16.5 55.5t34.5 45.5q-16 3 -34 4t-36 -2q-7 -1 -20 -6t-22 -14.5t-9.5 -24.5t17.5 -36l-4.5 1t-11 4.5t-13 11t-9.5 20.5q-4 30 16.5 48.5t54.5 24.5q23 5 53 3t55 -5q29 19 66 30q66 19 127.5 6t122.5 -41
q65 -29 128 -63t129 -60q28 -11 58 -21t61 -14t61.5 -1t59.5 17q6 3 1 -2t-6 -5q-7 -5 -13.5 -10t-14.5 -9q-45 -23 -94.5 -21t-98.5 17t-96 38.5l-87 43.5q-43 22 -90.5 46.5t-98 42t-101 21t-99.5 -16.5q32 -5 64 -14.5t61 -18.5q64 -22 125.5 -48.5t123.5 -55.5
q68 -32 138.5 -65t145.5 -47q37 -7 75 -5.5t73 18.5q23 11 39 35t23 50q-48 3 -96.5 13t-88.5 36q-12 7 -23 17t-19 22t-10.5 25.5t2.5 28.5q5 14 14 23.5t20 17.5q25 19 53 30.5t60 3.5q30 -7 57 -25.5t45.5 -44.5t26.5 -57t-1 -62q35 -3 69.5 -3.5t69.5 -0.5h370zM573 161
q-27 4 -54.5 5t-54.5 1q5 -20 12.5 -37.5t21.5 -32.5q17 -19 38.5 -32t46.5 -17q16 -2 26 -2t16 1q14 2 24.5 9t12.5 10q19 24 14.5 40.5t-21 28t-40 17.5t-42.5 9zM1368 206q8 -1 14.5 -2t13.5 -2q1 30 -13.5 60t-38.5 54t-54 37.5t-61 9.5q-12 -2 -20 -4q-4 -2 -5 -2
q0 -1 -2 -3q-6 -9 -9 -20q-5 -24 10 -47q12 -20 31.5 -33.5t42 -23t46.5 -15t45 -9.5z" />
    <glyph glyph-name="linethaiA" unicode="LOGO&#x2e;linethaiA" horiz-adv-x="507" 
d="M367 269q13 11 22 8t14 -8l34 -40q13 -15 24.5 -29t15.5 -17q-9 -8 -25 -22.5t-33 -28.5q-19 -17 -41 -36q-4 -3 -15 -5.5t-20 7.5q-7 8 -14 16.5t-9 10.5l-14 -11q2 -3 9.5 -11.5t14.5 -16.5q8 -10 4.5 -21t-7.5 -14q-22 -19 -41 -36q-17 -14 -33.5 -28t-24.5 -22
q-3 3 -15 17t-25 29q-16 18 -34 40q-5 5 -6.5 14.5t11.5 20.5q5 5 15 14t11 9l-10 11q0 -1 -10 -9.5t-15 -13.5q-13 -11 -22 -8t-14 8l-34 40q-14 15 -25.5 28.5t-14.5 17.5q8 8 24.5 22.5t33.5 28.5q19 17 41 36q4 3 15 5.5t19 -7.5q8 -8 15 -16.5t9 -10.5l13 11
q-2 3 -9 11.5t-14 16.5q-9 10 -5 21t8 14q22 18 41 35q17 14 33 28.5t25 22.5q3 -4 14.5 -17.5t24.5 -28.5l34 -40q5 -5 7 -14.5t-11 -20.5l-6 -6t-9 -8t-11 -9l9 -11q0 1 10.5 9.5t15.5 13.5zM311 180q3 23 -11 39.5t-37 16.5t-41.5 -16.5t-21.5 -39.5q-4 -23 10 -39
t37 -16t42 16t22 39z" />
    <glyph glyph-name="linethaiB" unicode="LOGO&#x2e;linethaiB" horiz-adv-x="497" 
d="M345 304q11 11 21 8t15 -8q21 -22 39 -40l29 -29t18 -17l-22.5 -22.5l-28.5 -28.5q-17 -17 -35 -36q-4 -3 -14.5 -5.5t-21.5 7.5l-26 27l-13 -11l28 -28q10 -10 7.5 -21t-5.5 -14l-36 -36q-14 -14 -28.5 -28t-22.5 -22l-86 86q-5 5 -8 14.5t8 20.5q4 5 13 14t10 9l-12 11
q0 -1 -8.5 -9.5t-12.5 -13.5q-11 -11 -21 -8t-15 8l-40 40q-16 15 -29.5 28.5l-17.5 17.5l87 87q4 3 14.5 5.5t20.5 -7.5l16.5 -16.5l10.5 -10.5l12 11l-27 28q-11 10 -8.5 21t6.5 14q19 18 36 35l51 51q3 -4 17 -17.5t29 -28.5q18 -18 39 -40q5 -5 8.5 -14.5t-7.5 -20.5
q-2 -2 -5.5 -6t-7.5 -8t-10 -9l11 -11l2.5 3t6 6.5l7.5 7.5zM302 215q0 23 -16.5 39.5t-39.5 16.5t-39 -16.5t-16 -39.5q-1 -23 15.5 -39t39.5 -16t39.5 16t16.5 39z" />
    <glyph glyph-name="linethaiC" unicode="LOGO&#x2e;linethaiC" horiz-adv-x="521" 
d="M198 373q-9 -8 -13.5 -17.5t-3.5 -15.5q1 -17 10 -24.5t15 -11.5q1 1 6.5 4t6.5 4q-2 4 -4 9t-2 11q-1 8 4 18.5t14 19.5q4 4 9 8.5t10 8.5l10 8l26 -26q13 -13 17 -22.5t4 -14.5q0 -8 -2 -11.5t-4 -7.5q2 -2 6.5 -4.5t6.5 -3.5q4 2 14 12t10 23q0 17 -16 33l-30 30
q-11 11 -20.5 21t-11.5 12l-12 -12l-21 -21q-13 -13 -29 -30zM181 121q-1 -5 3.5 -14.5t13.5 -17.5q16 -17 29 -30l21 -21l12 -12q2 2 11.5 12t20.5 21l30 30q16 16 16 33q0 12 -10 22.5t-14 12.5q-2 -1 -6.5 -4t-6.5 -4q2 -4 4 -7.5t2 -11.5q0 -5 -4 -14.5t-17 -22.5
l-18 -18l-8 -8l-10 8l-10 8t-9 9q-9 9 -14 19.5t-4 18.5q0 6 2 11t4 9q-1 1 -6.5 4t-6.5 3q-6 -3 -15 -11t-10 -25zM117 170q8 -8 17.5 -12.5t15.5 -4.5q17 1 24.5 10.5t11.5 14.5q-1 2 -4 7.5t-4 6.5q-7 -5 -20 -7q-19 0 -38 19q-5 4 -9 8.5t-8 9.5l-8 10q4 5 8 9l18 18
q13 12 22.5 16.5t14.5 4.5q8 0 11.5 -2.5t7.5 -4.5q2 2 4.5 6.5t3.5 6.5q-2 4 -12 14.5t-23 10.5q-17 -1 -33 -17l-30 -30q-11 -11 -21 -20.5t-12 -11.5l33 -33q13 -13 30 -29zM370 153q5 0 15 4.5t18 12.5q17 16 30 29l21 21l12 12q-2 2 -12 11.5t-21 20.5l-30 30
q-8 8 -15.5 12t-18.5 5q-12 0 -22 -10.5t-12 -14.5q1 -2 3.5 -6.5t4.5 -6.5q4 2 7 4.5t11 2.5q6 0 15.5 -4.5t22.5 -16.5l9.5 -9.5l8.5 -8.5t8 -9l-8 -10t-8.5 -9.5l-8.5 -8.5q-19 -19 -39 -19q-14 2 -19 7q-1 -1 -4 -6.5t-4 -7.5q4 -5 11.5 -14.5t24.5 -10.5zM491 230
l-76 -75q-23 -23 -47 -21q-9 0 -13 2q2 -3 2 -6.5v-6.5q2 -24 -21 -47l-74 -74l-1 -1l-1 1l-74 74q-22 24 -21 48q0 6 3 14l-15 -3q-25 0 -48 22l-75 75l76 74q23 23 47 22q3 0 6 -0.5t7 -1.5q-2 3 -2 6t-1 6q0 25 22 48l75 75l74 -75q23 -25 22 -48q0 -8 -3 -15q7 3 15 3
q24 1 47 -22zM300 190q17 17 17 40t-17 40t-40 17t-40 -17t-17 -40t17 -40t40 -17t40 17z" />
    <glyph glyph-name="linethaiD" unicode="LOGO&#x2e;linethaiD" horiz-adv-x="385" 
d="M213 29q4 -4 13.5 -7.5t21.5 -3.5q24 -1 42 -1h46v88q0 12 -2 20t-10 16q-8 9 -23 9t-19 -1q0 -2 -1.5 -7.5t-1.5 -7.5q4 -2 8 -3t10 -6q4 -5 7.5 -14.5t3.5 -27.5v-37q-6 -1 -13 -1q-6 -1 -13 -1h-12q-27 0 -41 14q-7 9 -9 19q-1 0 -7 -2t-8 -2q-2 -7 -2.5 -19t10.5 -25
zM47 220q2 -26 12 -35q12 -11 24 -10.5t19 2.5q0 2 2 7.5t2 7.5q-9 1 -18 9q-7 6 -11 16.5t-3 24.5v12t1 12q0 6 1 13h12h25q18 0 27.5 -3.5t14.5 -7.5q5 -6 6 -10l2 -8q2 0 7.5 1.5t7.5 1.5q2 5 1.5 19.5t-8.5 22.5t-16 10t-19 2h-42q-17 0 -31 0.5t-16 0.5v-88zM59 140
q-4 -3 -7.5 -13t-4.5 -22v-88h88q12 1 19.5 3t15.5 9q4 4 6 10.5t2.5 12.5t0 11.5t-0.5 7.5q-2 0 -7.5 1.5t-7.5 2.5q-1 -5 -2 -9t-7 -9q-4 -5 -13.5 -8t-27.5 -4h-26q-6 0 -11 1q-1 7 -2 13q-1 5 -1 11.5v12.5q0 14 4.5 24.5t10.5 16.5q9 7 18 9q0 2 -2 7.5t-2 7.5
q-6 2 -18.5 2.5t-24.5 -10.5zM251 307q-12 0 -22 -3.5t-13 -7.5q-11 -13 -10.5 -25t2.5 -18q1 -1 7 -2.5t8 -2.5q0 10 9 19q14 14 40 14q6 0 12.5 -0.5t12.5 -1.5t13 -1v-11v-26q0 -18 -3.5 -27.5t-8.5 -13.5q-5 -6 -9 -6.5t-9 -2.5q1 -2 2.5 -7.5t1.5 -7.5q5 -1 19 -1t23 9
q12 12 12 35v42q0 16 0.5 30t0.5 16h-88zM354 220q0 -33 -18 -49q-8 -6 -13 -8q5 -2 13 -8q18 -18 18 -49v-106h-106q-33 2 -49 19q-4 4 -7 10q-2 -3 -3.5 -5.5t-3.5 -4.5q-17 -18 -49 -18l-106 -1v106q1 33 19 49q4 5 12 9q-8 4 -12 8q-18 16 -18 49l-1 104v2h2l104 -1
q32 0 49 -18q6 -6 8 -10q2 2 3.5 5t3.5 5q16 18 49 18h106zM248 163q0 24 -16.5 40.5t-39.5 16.5q-24 1 -40.5 -16t-17.5 -40q0 -24 17 -40.5t40 -16.5q24 0 40.5 16.5t16.5 39.5z" />
    <glyph glyph-name="linethaiE" unicode="LOGO&#x2e;linethaiE" horiz-adv-x="520" 
d="M490 231l-75 -75q-23 -22 -48 -22q-4 0 -12 2q2 -8 2 -12q1 -22 -21 -48l-78 -75l-72 75q-23 23 -21 47q0 5 2 15q-6 -3 -14 -3q-23 -1 -48 22l-75 74l75 75q22 22 47 22q4 0 12 -2q-2 8 -2 12q0 25 22 48l74 75l75 -75q22 -22 22 -48q0 -7 -3 -14l15 3q25 0 47 -22z
M212 326q-1 -5 2 -10t7 -8q4 -4 9 -7l17 4q-1 2 -2 5q-2 6 0 10q1 2 3.5 5.5t4.5 6.5q3 4 5 6q1 0 6.5 -6t7.5 -11q2 -6 0 -11q-1 -3 -2 -5l17 -4q5 3 9 7q8 8 8 18q-1 13 -8 24.5t-15 20.5q-10 11 -23 19q-12 -8 -22 -19q-8 -9 -15.5 -20.5t-8.5 -24.5zM171 216
q-3 1 -6.5 3.5t-5.5 4.5q-4 3 -6 6q2 3 5 6q4 4 12 8q5 2 10 0l6 -2l4 16q-3 5 -7 9q-9 9 -18 9q-14 -1 -26 -8.5t-20 -15.5q-11 -10 -18 -22q7 -13 18 -23q8 -8 20 -15.5t26 -7.5q5 -1 9.5 2t8.5 6q4 4 7 9l-5 18q-2 -1 -5 -2q-6 -2 -9 -1zM304 135q0 10 -8 18q-4 4 -9 7
l-17 -4q1 -2 2 -5q2 -5 0 -10q-2 -6 -7.5 -12t-6.5 -6q-2 2 -5 6q-2 3 -4.5 6.5t-3.5 6.5q-2 3 0 9q1 3 2 5l-17 4q-5 -3 -9 -7q-4 -3 -7 -8t-2 -10q1 -14 8.5 -25t15.5 -20q10 -11 22 -19q13 8 23 19q8 9 15 20t8 25zM259 178q22 0 37 15.5t15 36.5q0 22 -15 37t-37 15
t-37 -15t-15 -37q0 -21 15 -36.5t37 -15.5zM355 184q13 0 25 7.5t20 15.5q10 10 18 23q-8 12 -18 22q-8 8 -20 15.5t-25 8.5q-11 0 -18 -9q-4 -4 -7 -9l3 -16l6 2q5 2 10 0q4 -2 12 -8l6 -6q-1 0 -7 -6t-12 -8q-3 -1 -9 1q-3 1 -5 2l-4 -18q3 -5 7 -9q3 -3 7.5 -6t10.5 -2z
" />
    <glyph glyph-name="linethaiF" unicode="LOGO&#x2e;linethaiF" horiz-adv-x="388" 
d="M357 221q-2 -33 -19 -49q-5 -5 -12 -8q5 -2 13 -8q18 -18 18 -49l1 -106h-106q-33 0 -49 18q-4 4 -7 10q-2 -4 -8 -10q-16 -18 -49 -19h-105v106q0 32 18 49q5 5 12 8q-7 3 -12 8q-17 16 -19 49l-3 104l108 2q32 0 49 -18q6 -6 8 -10q3 6 7 10q16 18 49 19h106v-106z
M229 63q10 -9 23.5 -12t25.5 -3q14 0 29 3q2 15 2 29q0 12 -3 25.5t-12 23.5q-4 4 -8.5 5t-9.5 1t-12 -2l-9 -14q2 0 5 -2q5 -3 8 -8q2 -5 2 -13v-9h-8q-10 0 -14 3q-5 1 -7 8q-1 3 -2 5l-15 -10q-1 -7 -1 -12t1 -10t5 -8zM119 96q0 8 3 14q2 5 7 7q3 1 5 2l-9 15
q-7 1 -12 1t-10 -1t-8 -5q-9 -10 -12 -23.5t-3 -25.5q0 -14 3 -29q15 -3 29 -3q12 0 25 3.5t23 12.5q4 4 5.5 9t1.5 10t-2 11l-14 9q0 -2 -2 -5q-2 -2 -4 -4.5t-4 -3.5q-4 -2 -14 -2h-8v8zM164 232q1 7 1 12t-1 9.5t-5 8.5q-11 9 -24 12t-25 3q-14 0 -29 -3q-3 -15 -3 -29
q0 -12 3.5 -25t12.5 -23q3 -5 8 -6t10 -1t12 2l9 15q-2 1 -5 2q-6 2 -7 7q-2 5 -3 13.5t0 8.5h8q6 0 14 -2q3 -2 7 -8q1 -3 2 -5zM231 200q-16 16 -37.5 15.5t-36.5 -15.5t-15 -36.5t16 -37.5q15 -15 36.5 -15t36.5 16q16 15 15.5 36.5t-15.5 36.5zM306 277q-15 2 -29 2
q-12 0 -25.5 -3t-23.5 -12q-4 -4 -5 -8.5t-1 -9.5t1 -12l15 -9q0 2 2 5q1 3 7 7q2 1 6 2t8 1h8q1 0 0.5 -8t-2.5 -14q-3 -4 -7 -7q-3 -2 -5 -3l9 -14q6 -1 11 -1t10 1t9 5q9 10 12 23.5t3 25.5q0 14 -3 29z" />
    <glyph glyph-name="linethaiG" unicode="LOGO&#x2e;linethaiG" horiz-adv-x="479" 
d="M185 161l9 -6q-8 -6 -8 -17q-2 -13 6.5 -25.5t18.5 -22.5q4 -5 8.5 -8.5t7.5 -5.5q4 -3 7 -5q15 11 26 22q10 10 18 22.5t8 24.5q0 2 -0.5 5.5t-4.5 7.5q8 4 11 7q10 -6 15 -12q8 -7 10.5 -14t2.5 -12q0 -18 -18 -37q-18 -17 -32 -31l-33 -33q-4 3 -14 14t-21 22l-29 29
q-18 20 -17 38q1 17 12.5 25.5t16.5 11.5zM234 89q-5 2 -12 11q-7 6 -13.5 15t-8.5 19q-2 5 2 9t6 5q1 0 1.5 -0.5t1.5 -0.5q1 -2 1 -4.5t2 -5.5q3 -6 8 -11q4 -6 9 -9q3 -2 5 -3q4 2 8 6q7 5 12 12q4 5 5 8t1 5q2 2 5 2l2 -2q4 -4 3 -9q-1 -7 -6.5 -14.5t-12 -14.5t-12 -12
t-7.5 -6zM309 176q4 6 7 11q4 -3 7.5 -4t5.5 -1q12 -1 24 7t23 18q11 11 23 26q-2 3 -5 7q-2 3 -6 7t-8 9q-10 10 -22.5 18.5t-25.5 7.5q-10 0 -17 -7q-2 4 -6 9q4 5 13 16t26 12q18 1 37 -18l31 -31q12 -12 22 -22.5t11 -11.5q-3 -3 -14 -13t-22 -21.5t-20 -20.5l-9 -9
q-20 -17 -38 -17q-5 1 -11.5 3t-14.5 10q-3 3 -5.5 6.5t-5.5 8.5zM322 201q2 2 2 6q2 -1 13 5q7 5 12 12q3 4 6 7q-1 2 -3 5q-2 2 -3.5 5t-3.5 5q-4 4 -12 8q-6 3 -10 3q0 3 -1 4q2 2 6 5.5t9 1.5q10 -2 18.5 -8.5t15.5 -13.5q8 -8 10 -12q-2 -2 -7 -8t-11.5 -12
t-14.5 -11.5t-15 -6.5q-6 0 -9 3zM94 167l-31 31l-22 22t-11 12q3 3 14 13t22 21l29 29q19 18 38 18q5 -1 11.5 -3t14.5 -10q3 -3 5.5 -6.5t5.5 -8.5q-2 -3 -3.5 -6t-3.5 -5q-4 3 -7.5 4t-5.5 1q-12 1 -24.5 -7t-22.5 -18q-12 -11 -23 -26q2 -4 5 -8q4 -7 14 -15
q10 -11 22.5 -19.5t25.5 -7.5q11 2 17 8q1 -3 5 -9q-3 -5 -12 -16t-26 -12q-18 -1 -37 18zM294 299q-3 3 -9 7q8 6 8 16q1 13 -7 26t-18 23q-5 4 -9 7t-7 6q-4 3 -7 6q-16 -12 -27 -23q-10 -10 -18 -22t-8 -24q1 -2 1.5 -5.5t4.5 -7.5q-3 -2 -6 -3.5t-5 -3.5q-12 7 -16 11
q-7 8 -9.5 15t-2.5 12q0 17 18 37q18 17 32 31l33 33q3 -4 13.5 -14.5l21.5 -21.5l29 -29q18 -20 17 -38q-1 -17 -12.5 -26t-16.5 -12zM271 313q-2 0 -4 1q0 5 -2 10q-3 6 -8 11q-6 6 -9 8t-5 3l-8 -6q-3 -2 -6.5 -5t-5.5 -6q-4 -5 -5 -8t-1 -5q-2 -2 -5 -2l-2 2q-4 2 -3 9
t6.5 14.5t11.5 14t12 11.5t8 7q5 -2 12 -11q7 -6 13.5 -15t8.5 -19q2 -5 -2 -9t-6 -5zM98 227q1 2 6.5 8t12 12t14.5 11.5t15 6.5q3 0 5 -1l4 -2q1 -1 1 -1.5t1 -1.5q-2 0 -2 -5q-4 0 -13 -5q-4 -2 -7 -5.5t-6 -6.5q-4 -4 -6 -8q1 -2 3 -5t8 -9q3 -2 5.5 -4t6.5 -4
q6 -3 10 -3q0 -3 1 -4q-2 -2 -6 -5.5t-9 -1.5q-10 2 -18.5 8.5t-15.5 13.5q-8 8 -10 12zM188 283q22 21 52.5 21t51.5 -22t21 -52t-22 -52q-22 -21 -52 -21t-52 22q-21 22 -21 52.5t22 51.5zM280 189q17 17 17.5 40.5t-16.5 40.5t-40.5 17.5t-40.5 -16.5t-17.5 -40.5
t16.5 -40.5t40.5 -17.5t40.5 16.5zM210 261q13 12 30.5 12t30.5 -13q12 -13 12 -30.5t-13 -29.5q-13 -13 -30.5 -13t-29.5 13q-13 13 -13 30.5t13 30.5zM243 331q11 -9 11 -16q-11 3 -24 1q4 7 13 15zM340 232q-9 -10 -15 -12q1 12 0 24q6 -2 15 -12zM236 130q-10 9 -12 15
q12 -2 25 0q-4 -7 -13 -15zM139 229q4 5 8 7.5t7 4.5q-2 -12 0 -24q-8 2 -15 12z" />
    <glyph glyph-name="endlineD" unicode="LOGO&#x2e;endlineC" horiz-adv-x="2201" 
d="M788 243l16 -14q11 -8 32 -14.5t31 -8.5h4q33 -3 65 -3.5t58 10.5q22 9 50 18t57 10q29 -1 56 -9.5t51 -18.5q26 -11 58 -10.5t64 3.5h4q11 2 32 8.5t31 14.5l17 14v-24v-6q14 -1 65.5 -2.5t123 -3.5t156 -4t166 -3.5t152 -3t114.5 -1.5h10v-23l-10 -1q-44 0 -114.5 -1
t-152 -3t-166 -3.5t-156 -3.5t-123 -3.5t-65.5 -2.5v-7v-24l-17 14q-10 9 -31 15.5t-32 8.5h-4q-32 2 -64 3t-58 -10q-24 -10 -51 -18.5t-56 -9.5q-29 1 -57 9.5t-50 18.5q-26 11 -58 10t-65 -3h-4q-10 -2 -31 -8.5t-31 -15.5l-17 -14v24q0 5 -1 7q-11 1 -43 2t-78 2
t-103.5 2.5t-119.5 3t-125 2.5t-120.5 2t-106 2t-81.5 1l-10 1v23h10q44 0 114.5 1.5t152 3t166 3.5t156.5 4t122.5 3.5t65.5 2.5q1 2 1 6v2v22z" />
    <glyph glyph-name="linethaiH" unicode="LOGO&#x2e;linethaiH" horiz-adv-x="357" 
d="M44 180q-12 11 -14 38v92q1 0 15.5 -0.5t31.5 -0.5h44q26 0 39 -13q4 -5 7 -11t3 -17q0 -7 -3 -19q-5 0 -13 -2q-1 5 -2.5 8l-2.5 5q-8 8 -23 11.5t-29 3.5q-17 0 -35 -3q-1 -4 -1 -9q-1 -5 -1 -10.5v-10.5q0 -14 3 -29t13 -23q7 -6 17 -6q-1 -3 -1 -5.5t-1 -5.5
q-6 -2 -20 -3t-27 10zM136 252q4 -3 4 -8v-3q-2 -2 -5 -2q-2 1 -4.5 2t-8.5 3h-18q-4 0 -9 -1q-1 -3 -1 -6q-1 -2 -1 -5.5v-6.5q0 -10 2 -14q3 -7 5 -9q0 -3 -2 -3q-2 -1 -7 -1t-8 5q-5 9 -7 20t-2 20q0 5 0.5 9.5t0.5 6.5q3 0 10.5 0.5t17 0.5t18.5 -2t15 -6zM188 268
q0 11 2.5 17t6.5 11q15 13 39 13h41q16 0 30.5 0.5t19.5 0.5v-92q0 -26 -14 -38q-13 -11 -27 -10t-20 3q-1 3 -1 5.5t-1 5.5q11 0 17 6q10 8 13 23t3 29q0 5 -0.5 10.5t-0.5 10.5q-1 5 -1 9q-18 3 -35 3q-14 0 -28.5 -3.5t-22.5 -11.5q-2 -2 -3.5 -5t-2.5 -8q-8 2 -13 2
q-2 6 -2 10.5v8.5zM217 244q0 5 5 8q6 4 15 6t18 2t16.5 -0.5t10.5 -0.5q0 -2 0.5 -6.5t0.5 -9.5q0 -9 -1.5 -20t-6.5 -20q-3 -5 -8.5 -5t-7.5 1q-1 0 -1 1t-0.5 1t-0.5 1q1 1 2.5 3t2.5 6q2 4 2 14q0 3 -0.5 6t-0.5 6q-1 3 -1 6q-5 1 -9 1h-17q-7 -2 -9.5 -3t-4.5 -2
q-3 0 -5 2v3zM44 144q13 12 27 10.5t20 -3.5q1 -2 1 -5t1 -5q-8 0 -17 -7q-10 -8 -13 -23t-3 -29v-11t1 -10q0 -5 1 -9q18 -3 35 -3q14 0 29 3t23 12l2.5 5t2.5 8q8 -2 13 -2q3 -11 3 -19q0 -11 -3 -17t-7 -10q-12 -14 -39 -14q-23 -1 -41 -1h-50v92q2 28 14 38zM313 144
q14 -11 14 -38v-92h-47q-19 0 -44 1q-25 0 -39 14q-4 4 -6.5 10t-2.5 17v9t2 10q5 0 13 2q1 -5 2.5 -8t3.5 -5q8 -9 22.5 -12t28.5 -3q17 0 35 3q0 4 1 9q0 5 0.5 10t0.5 11q0 14 -3 29t-13 23q-7 7 -17 7q1 2 1 5t1 5q6 2 20 3.5t27 -10.5zM275 121q5 -9 6.5 -20t1.5 -20
q0 -5 -0.5 -9.5t-0.5 -6.5q-3 0 -10.5 -0.5t-16.5 -0.5t-18 2t-15 6q-5 4 -5 9v2q1 1 2.5 1.5t2.5 1.5q2 -2 4.5 -3t9.5 -2q4 -1 8.5 -1h8.5t9 1q0 2 1 6q0 2 0.5 5.5t0.5 6.5q0 10 -2 14q-1 4 -2.5 6t-2.5 3q2 2 2 4h7.5t8.5 -5zM74 81q0 9 2 20t7 20q3 5 8 5h7q2 -2 2 -4
q-2 -2 -5 -9q-2 -4 -2 -14v-6.5t1 -5.5q0 -4 1 -6q5 -1 9 -1h8.5t9.5 1q6 1 8.5 2t4.5 3q1 -1 2.5 -1.5t2.5 -1.5v-2q0 -5 -4 -9q-6 -4 -15 -6t-18.5 -2t-17 0.5t-10.5 0.5q0 2 -0.5 6.5t-0.5 9.5zM105 162q0 31 21.5 52.5t52.5 21.5q30 0 51.5 -21.5t21.5 -52.5
q0 -30 -21.5 -51.5t-51.5 -21.5q-31 0 -52.5 21.5t-21.5 51.5zM122 163q0 -24 16.5 -40.5t40.5 -16.5q23 0 40 16.5t17 40.5q0 23 -17 40t-40 17q-24 0 -40.5 -17t-16.5 -40zM136 163q0 17 12.5 30t30.5 13t30.5 -13t12.5 -30q0 -18 -12.5 -30.5t-30.5 -12.5t-30.5 12.5
t-12.5 30.5zM232 94q5 4 9 8.5t8 9.5q3 -7 2 -19q-5 -1 -10.5 -0.5t-8.5 1.5zM249 212q-4 5 -8 9.5t-9 8.5q3 1 8.5 1.5t10.5 -0.5q1 -12 -2 -19zM125 230q-10 -9 -17 -18q-4 7 -2 19q6 1 11 0.5t8 -1.5zM108 112q7 -9 17 -18q-3 -1 -8 -1.5t-11 0.5q-2 12 2 19z" />
    <glyph glyph-name="linethaiI" unicode="LOGO&#x2e;linethaiI" horiz-adv-x="326" 
d="M322 147q12 -69 -21 -108q-16 -20 -54.5 -29.5t-83.5 -9.5q-44 0 -83 9.5t-55 29.5q-33 39 -21 108q3 17 8.5 30t10.5 21q6 10 13 16l2 -10q2 -9 5 -18q5 -9 9 -13t8 -6t9 0q-3 2 -6 6q-6 7 -8 16q-3 9 -1 24.5t11 32.5q8 16 24 35t33 36q19 19 41 39q22 -20 41 -39
q17 -17 33 -36t25 -35q9 -17 10.5 -32.5t-1.5 -24.5q-2 -9 -8 -16q-3 -4 -5 -6q4 -2 8 0t8 6t9 13q3 9 5 18l2 10q7 -6 13 -16q5 -8 10 -21t9 -30zM211 54q8 8 13 20t3 33q-2 19 -12.5 35t-21.5 27q-14 13 -30 24q-18 -11 -31 -24q-12 -11 -21.5 -27t-11.5 -35
q-2 -21 3.5 -33t12.5 -20q8 -8 21.5 -9.5t26.5 -1.5q14 0 27 1.5t21 9.5z" />
    <glyph glyph-name="linethaiJ" unicode="LOGO&#x2e;linethaiJ" horiz-adv-x="539" 
d="M242 204q0 -6 5 -11q3 -3 6 -4l10 2q-1 1 -1 3q-2 3 0 6q2 4 5 7q2 2 3 4q1 -2 3 -4q4 -4 5 -6t0.5 -3.5t-0.5 -3.5q-1 -2 -1 -3l10 -2q2 1 5 4q5 5 5 11q0 8 -4.5 15t-9.5 12q-6 6 -13 11q-8 -5 -14 -11q-5 -5 -9.5 -12t-4.5 -15zM218 138q-3 1 -7 5q-2 2 -4 3q1 2 3 4
q4 4 7 5q4 0 6 -1t4 -1l2 10l-5 5q-6 6 -10 6q-8 -1 -15 -5.5t-12 -9.5q-6 -6 -11 -13q5 -8 11 -14q5 -5 12 -9t15 -4q4 -1 10 5l5 5l-3 11q-1 0 -3 -1q-4 -2 -5 -1zM297 89q0 6 -5 11q-3 3 -5 4l-10 -2q0 -1 1 -3q0 -2 0.5 -3t-0.5 -3q-1 -3 -5 -7q-2 -2 -3 -4q-1 2 -3 4
q-4 3 -5 8q-2 2 0 5q0 2 1 3l-10 2q-3 -1 -6 -4q-5 -5 -5 -11q0 -8 4.5 -15t9.5 -12q6 -6 14 -11q7 5 13 11q5 5 9.5 12t4.5 15zM270 115q14 0 22.5 9t8.5 22q0 14 -8.5 22.5t-22.5 8.5q-13 0 -22 -8.5t-9 -22.5q0 -13 9 -22t22 -9zM328 119q8 0 14.5 4t11.5 9q6 6 11 14
q-5 7 -11 13q-5 5 -11.5 9.5t-14.5 5.5q-5 0 -11 -6q-3 -3 -4 -5l2 -10q1 0 3 1t6 1q4 -2 7 -5l4 -4q-1 0 -4.5 -3t-7.5 -5q-2 -1 -5 1q-2 1 -3 1l-2 -11q1 -2 4 -5q6 -6 11 -5zM380 73q-2 9 6 17t28 4q17 -3 32.5 -14t30 -23.5t28 -23t26.5 -13.5q-5 -2 -23.5 -7.5
t-45.5 -9.5t-59 -2.5t-63 15.5q-11 5 -19 12t-16 15l-35 -34l-34 35q-8 -8 -16.5 -15.5t-19.5 -12.5q-31 -14 -63 -15.5t-59 2.5t-46 9.5t-24 7.5q13 3 26.5 13.5t28 23t30.5 23.5t33 14q20 4 28 -4t6 -17q-1 -5 -5 -10.5t-14 -7.5q24 -11 42.5 -1t30.5 26v2q0 2 0.5 4.5
t0.5 4.5q-4 -2 -8 -2q-13 0 -29 13l-45 45l45 45q13 13 28 13q2 0 4 -0.5t4 -0.5q-2 4 -2 7q0 1 0.5 1.5t0.5 1.5q-13 15 -31 24.5t-41 -0.5q10 -3 14 -8.5t5 -10.5q2 -9 -6 -16.5t-28 -4.5q-17 3 -33 14t-30.5 23.5t-28 23.5t-26.5 14q5 1 24 7t46 9.5t59 2t63 -14.5
q10 -5 18.5 -12.5t16.5 -15.5l35 35l35 -35q8 9 16 16t19 12q31 13 63 14.5t59 -2t45.5 -9.5t23.5 -7q-13 -3 -26.5 -14t-28 -23.5t-30 -23.5t-32.5 -14q-20 -3 -28 4.5t-6 16.5q1 5 5 10.5t14 8.5q-23 10 -41 0.5t-31 -23.5q1 -2 1 -4q0 -3 -2 -9l9 2q15 0 28 -13l46 -44
l-45 -45q-14 -13 -29 -13q-5 0 -7 1q0 -2 0.5 -3.5t0.5 -3.5v-7q12 -14 29.5 -23t40.5 2q-10 2 -14 7.5t-5 10.5z" />
    <glyph glyph-name="linethaiK" unicode="LOGO&#x2e;linethaiK" horiz-adv-x="539" 
d="M380 73q-2 9 6 17t28 4q17 -3 32.5 -14t30 -23.5t28 -23t26.5 -13.5q-5 -2 -23.5 -7.5t-45.5 -9.5t-59 -2.5t-63 15.5q-22 9 -37 28t-24 35q-3 -1 -10 -1q-6 0 -9 1q-9 -16 -24 -35t-37 -28q-31 -14 -63 -15.5t-59 2.5t-46 9.5t-23 7.5q13 3 26.5 13.5t28 23t30.5 23.5
t33 14q20 4 27.5 -4t5.5 -17q-1 -5 -5 -10.5t-13 -7.5q15 -7 27.5 -5t23 9t19 17t14.5 19q-24 21 -24 51q0 32 24 51q-6 9 -14.5 19t-19 17t-23 9t-27.5 -4q9 -3 13 -8.5t5 -10.5q2 -9 -5.5 -16.5t-27.5 -4.5q-17 3 -33 14t-30.5 23.5t-28 23.5t-26.5 14q4 1 23 7t46 9.5
t59 2t63 -14.5q22 -10 37 -29t24 -35q3 1 9 1q7 0 10 -1q9 16 24 35t37 29q31 13 63 14.5t59 -2t45.5 -9.5t23.5 -7q-13 -3 -26.5 -14t-28 -23.5t-30 -23.5t-32.5 -14q-20 -3 -28 4.5t-6 16.5q1 5 5 10.5t13 8.5q-15 6 -27.5 4t-23 -9t-19 -17t-14.5 -19q23 -21 23 -51
t-23 -51q6 -9 14.5 -19t19 -17t23 -9t27.5 5q-9 2 -13 7.5t-5 10.5zM269 109q16 0 26.5 11t10.5 26q0 16 -10.5 26.5t-26.5 10.5q-15 0 -26 -10.5t-11 -26.5q0 -15 11 -26t26 -11z" />
    <glyph glyph-name="cornerA" unicode="LOGO&#x2e;cornerA" horiz-adv-x="555" 
d="M30 7q-2 4 -7.5 20t-9.5 39.5t-2.5 52t15.5 55.5q5 9 12.5 17t15.5 15q-15 -1 -28.5 -1h-15.5v84q0 25 13 35q12 11 25 9.5t18 -3.5l2 -9q-8 0 -16 -6q-8 -8 -11 -21.5t-3 -26.5t1 -18q0 -4 1 -9q17 -2 32 -2q13 0 25.5 2.5t20.5 10.5q5 5 6 12q6 -2 11 -2q2 -5 2 -9.5
v-7.5q0 -19 -8 -25q-3 -3 -11 -7v-1q-22 -11 -37 -25q-13 -12 -20 -28t4 -35q2 8 8 11.5t10 4.5q9 2 17 -5.5t4 -24.5q-3 -15 -14 -28.5t-23.5 -26t-23 -24.5t-13.5 -23zM80 403q5 1 9.5 0.5t7.5 -1.5q-8 -5 -15 -16q-3 7 -2 17zM72 374q-1 -1 -6 -1t-8 5q-5 8 -6 18t-1 18
v15q3 0 10 0.5t15.5 0.5t16.5 -1.5t13 -5.5q5 -3 5 -8v-3q-1 0 -2.5 -0.5t-2.5 -0.5q-2 1 -4 1.5t-9 2.5h-15q-4 0 -8 -1q-1 -2 -1 -5q-1 -2 -1 -5.5v-5.5q0 -9 2 -13q1 -5 4 -8q-1 -1 -1 -2t-1 -1zM135 420q-5 0 -11 -2q-2 7 -6 12q-8 8 -20.5 10.5t-25.5 2.5q-15 0 -32 -2
q-1 -5 -1 -9q-1 -4 -1 -9v-10q0 -12 3 -25.5t11 -21.5q6 -6 16 -6l-2 -10q-5 -1 -18 -2.5t-25 9.5q-13 11 -13 34v84h83q22 0 36 -12q4 -5 6 -10.5t2 -15.5v-7.5t-2 -9.5zM276 367l-2 -4q-4 -5 -5 -6q-12 -11 -25 -9.5t-18 2.5l-2 10q8 0 16 6q8 8 11 21.5t3 25.5
q0 5 -0.5 10t-0.5 9q-1 4 -1 9q-17 2 -32 2q-13 0 -26 -2.5t-21 -10.5l-2.5 -5t-2.5 -7q-6 2 -12 2q-1 5 -1.5 9.5t-0.5 7.5q0 10 2.5 15.5t6.5 10.5q12 12 35 12h84v-44q7 9 14.5 16.5t17.5 12.5q27 13 55.5 15t52 -2t39.5 -10t20 -7q-11 -3 -23 -13.5t-24.5 -23t-26 -23.5
t-28.5 -14q-18 -4 -25 4t-5 16q1 5 4.5 10.5t11.5 8.5q-17 9 -31.5 4t-26.5 -16t-20 -23.5t-11 -18.5zM97 278q-3 -1 -7.5 -1.5t-9.5 0.5q-1 11 2 18q5 -9 15 -17zM111 268v-2q0 -4 -5 -8t-13 -5.5t-16.5 -1.5t-15.5 0.5t-10 0.5v14q0 8 1 18.5t6 18.5q3 4 8 4h6t1 -1
q0 -2 1 -2q-3 -3 -4 -8q-2 -3 -2 -6.5v-6.5q0 -8 1 -11q0 -3 1 -6h8q4 0 7.5 -0.5t7.5 0.5q7 1 9 2t4 3zM195 402q7 2 17 1q1 -10 -2 -17q-6 9 -15 16zM186 411q-1 0 -2.5 0.5t-2.5 0.5v3q0 5 4 8q5 4 13.5 5.5t16.5 1.5t15 -0.5t10 -0.5q0 -2 0.5 -6t0.5 -9q0 -8 -1.5 -18
t-6.5 -18q-2 -5 -7 -5t-7 1q-1 0 -1 1v2l4 8q2 4 2 13q0 3 -0.5 6t-0.5 5q-1 3 -1 5q-4 1 -8 1h-16q-6 -2 -8 -2.5t-4 -1.5zM146 274q-28 0 -47.5 19.5t-19.5 46.5q0 29 19.5 48.5t47.5 19.5t47.5 -19.5t19.5 -48.5q0 -27 -19.5 -46.5t-47.5 -19.5zM93 341q0 -22 15.5 -37
t37.5 -15t37 15t15 37t-15 37t-37 15t-37.5 -15t-15.5 -37zM156 261q6 0 12 2q1 -5 2.5 -7.5t2.5 -4.5q8 -8 21 -10.5t26 -2.5q15 0 32 2q0 5 1 9q0 4 0.5 8.5t0.5 9.5q0 13 -3 26.5t-11 21.5q-4 2 -7.5 4t-8.5 2l2 9q5 2 18 3.5t25 -9.5q11 -9 13 -35v-84h-46q-18 0 -38 1
q-24 0 -35 13q-9 7 -9 25q0 3 0.5 7.5t1.5 9.5zM106 341q0 16 11.5 28t28.5 12q16 0 27.5 -12t11.5 -28q0 -17 -11.5 -28t-27.5 -11q-17 0 -28.5 11t-11.5 28zM222 266q0 3 1 6q0 2 0.5 5t0.5 6v6.5t-2 6.5l-4 8v2q0 1 1 1h7t7 -4q5 -8 6.5 -18.5t1.5 -18.5q0 -5 -0.5 -8.5
t-0.5 -5.5q-3 0 -10 -0.5t-15 -0.5t-16.5 1.5t-13.5 5.5q-4 4 -4 8v2l5 3q2 -2 4 -3t8 -2q4 -1 8 -0.5t8 0.5h8zM212 277q-10 -1 -17 1l8 8t7 9q3 -7 2 -18z" />
    <glyph glyph-name="cornerB" unicode="LOGO&#x2e;cornerB" horiz-adv-x="492" 
d="M466 174q13 -27 14.5 -55.5t-2 -52t-9.5 -39.5t-7 -20q-3 11 -14 23t-23.5 24.5t-23 26t-13.5 28.5q-4 17 3.5 24.5t16.5 5.5q5 -1 10.5 -4.5t8.5 -11.5q10 19 3 35t-20 28q-15 14 -37 25v1q-6 3 -10 7q-9 7 -9 25v7.5t2 9.5q4 0 6.5 0.5t5.5 1.5q1 -5 2.5 -7.5t3.5 -4.5
q7 -8 20 -10.5t26 -2.5q15 0 32 2q0 5 1 9q0 4 0.5 8.5t0.5 9.5q0 13 -3 26.5t-12 21.5q-6 6 -15 6l2 9q5 2 18 3.5t24 -9.5q13 -9 13 -35v-84h-14.5t-29.5 1q9 -7 16.5 -15t12.5 -17zM395 402q7 2 17 1q1 -10 -2 -17q-4 5 -7 9t-8 7zM434 378q-3 -5 -8 -5t-7 1q-1 0 -1 1
t-0.5 1t-0.5 1q1 1 2.5 3t2.5 5q2 4 2 13q0 2 -0.5 5.5t-0.5 5.5q-1 3 -1 5q-5 1 -9 1h-15q-10 -3 -13 -4q-1 0 -2 0.5t-2 0.5v3q0 5 4 8q5 4 13.5 5.5t17 1.5t15.5 -0.5t9 -0.5q0 -2 0.5 -6t0.5 -9q0 -8 -1.5 -18t-5.5 -18zM368 418q-3 1 -5.5 1.5t-6.5 0.5q-2 5 -2 9.5
v7.5q0 10 2.5 15.5t6.5 10.5q14 12 35 12h83v-84q0 -24 -13 -34q-11 -11 -24 -9.5t-18 2.5l-2 10q10 0 15 6q9 8 12 21.5t3 25.5q0 5 -0.5 10t-0.5 9q-1 4 -1 9q-17 2 -32 2q-13 0 -26 -2.5t-20 -10.5q-2 -2 -3.5 -5t-2.5 -7zM218 363q-2 2 -2 4q-3 6 -11.5 18.5t-20 23.5
t-26.5 16t-32 -4q8 -3 12 -8.5t5 -10.5q1 -8 -6 -16t-24 -4q-15 3 -28.5 14t-26.5 23.5t-24.5 23t-23.5 13.5q4 1 20.5 7t40 10t51.5 2t55 -15q10 -5 18 -12.5t15 -16.5v44h83q13 0 21.5 -3.5t14.5 -8.5q3 -5 6 -10.5t3 -15.5q0 -7 -3 -17q-4 0 -12 -2q-1 7 -4 12
q-8 8 -21.5 10.5t-26.5 2.5q-16 0 -32 -2q-1 -5 -1 -9q-1 -4 -1 -9v-10q0 -12 3 -25.5t12 -21.5q7 -6 16 -6l-2 -10q-3 0 -8 -1t-11 -1t-12 2t-12 7q-4 2 -5 6zM412 277q-10 -1 -17 1q7 6 15 17q3 -7 2 -18zM385 271q2 -2 4.5 -3t8.5 -2q3 -1 7 -0.5t8 0.5h9q0 3 1 6
q0 2 0.5 5t0.5 6v6.5t-2 6.5q-1 3 -2.5 5t-2.5 3l1 2q0 1 1 1h7t8 -4q4 -8 5.5 -18.5t1.5 -18.5q0 -5 -0.5 -8.5t-0.5 -5.5q-2 0 -9 -0.5t-15.5 -0.5t-17 1.5t-13.5 5.5q-4 4 -4 8v2zM279 403q6 1 10.5 0.5t7.5 -1.5q-5 -3 -8.5 -7t-7.5 -9q-2 4 -2 17zM311 412
q-1 0 -2.5 -0.5t-2.5 -0.5l-12 4h-16q-4 0 -9 -1q-1 -2 -1 -5v-11q0 -9 1 -13q3 -6 5 -8q0 -3 -2 -3q-2 -1 -6.5 -1t-7.5 5q-5 8 -6.5 18t-1.5 18q0 5 0.5 9t0.5 6q3 0 10 0.5t15 0.5t16.5 -1.5t14.5 -5.5q4 -3 4 -8v-3zM413 340q0 -27 -19.5 -46.5t-47.5 -19.5t-47.5 19.5
t-19.5 46.5q0 29 19.5 48.5t47.5 19.5t47.5 -19.5t19.5 -48.5zM346 289q21 0 36.5 15t15.5 37t-15.5 37t-36.5 15q-22 0 -37 -15t-15 -37t15 -37t37 -15zM323 263q8 -2 12 -2q3 -9 3 -17q0 -10 -3 -16t-6 -9q-13 -13 -36 -13q-20 -1 -37 -1h-46v84q2 26 13 35q11 11 24 9.5
t19 -3.5l2 -9q-5 0 -8.5 -2t-7.5 -4q-9 -8 -12 -21.5t-3 -26.5t1 -18q0 -4 1 -9q16 -2 32 -2q13 0 26.5 2.5t21.5 10.5q1 2 2 4.5t2 7.5zM346 381q17 0 28 -12t11 -28q0 -17 -11 -28t-28 -11t-28 11t-11 28q0 16 11 28t28 12zM268 272q0 -3 1 -6h9q4 0 8 -0.5t8 0.5
q8 1 12 5l5 -3v-2q0 -4 -4 -8q-6 -4 -14.5 -5.5t-16.5 -1.5t-15 0.5t-10 0.5q0 2 -0.5 5.5t-0.5 8.5q0 8 1.5 18.5t6.5 18.5q3 4 7.5 4h6.5t2 -3q-2 -2 -5 -8q-1 -3 -1 -6.5v-6.5v-11zM297 278q-3 -1 -7.5 -1.5t-10.5 0.5q0 14 2 18q6 -9 16 -17z" />
    <glyph glyph-name="cornerC" unicode="LOGO&#x2e;cornerC" horiz-adv-x="491" 
d="M26 303q-14 27 -15.5 55t2.5 51.5t9.5 40t7.5 20.5q3 -12 13.5 -23.5t23 -24.5t23.5 -26.5t14 -28.5q4 -17 -4 -24t-17 -5q-4 1 -10 4.5t-8 11.5q-11 -20 -4 -36t20 -28q15 -14 37 -25q8 -4 11 -8q8 -6 8 -24v-8.5t-2 -9.5q-8 0 -11 -1q-2 7 -6 12q-8 8 -20.5 10.5
t-25.5 2.5q-15 0 -32 -3q-1 -4 -1 -8q-1 -4 -1 -9v-10q0 -12 3 -25.5t11 -21.5q7 -7 16 -7l-2 -9q-5 -2 -18 -3.5t-25 9.5q-13 11 -13 35v84h44q-8 7 -15.5 14.5t-12.5 17.5zM97 74q-3 -1 -7.5 -1.5t-9.5 0.5q-2 12 2 17q5 -8 15 -16zM58 99q3 4 8 4t6 -1l1 -1q0 -1 1 -1
q-3 -3 -4 -9q-2 -3 -2 -12v-6.5t1 -5.5q0 -3 1 -5q4 -1 8 -1t7.5 -0.5t7.5 0.5q7 2 9 3l4 2q3 0 5 -2v-3q0 -5 -5 -7q-5 -4 -13 -5.5t-16.5 -2t-15.5 0t-10 0.5v15q0 8 1 18.5t6 18.5zM124 58q2 0 5 -0.5t6 -0.5q2 -6 2 -10v-8q0 -17 -8 -25q-12 -12 -36 -12q-20 -1 -37 -1
h-46v84q0 22 13 35q12 10 25 9t18 -3l2 -10q-10 0 -16 -6q-8 -8 -11 -21.5t-3 -25.5v-10t1 -9q0 -4 1 -8q17 -2 32 -2q13 0 25.5 2.5t20.5 10.5q4 2 6 11zM274 114l2 -4q3 -6 11 -19t20 -23.5t26.5 -16t31.5 3.5q-8 3 -11.5 8.5t-4.5 10.5q-2 9 5 16.5t25 4.5
q15 -3 28.5 -14t26 -23.5t24.5 -23.5t23 -14q-4 -2 -20 -7.5t-39.5 -9t-52 -2t-55.5 15.5q-10 5 -17.5 12.5t-14.5 16.5v-45h-43q-18 0 -41 1q-25 0 -35 12q-4 4 -6.5 9.5t-2.5 15.5q0 4 0.5 8t1.5 10q3 0 6.5 0.5t5.5 0.5q1 -4 2.5 -7t2.5 -4q8 -8 21 -10.5t26 -2.5
q15 0 32 2q0 4 1 8q0 4 0.5 9t0.5 10q0 12 -3 25.5t-11 21.5q-8 6 -16 6l2 10q5 2 18 3t25 -9q2 -2 2.5 -3t2.5 -3zM80 199q5 1 9.5 0.5t7.5 -1.5q-8 -5 -15 -16q-4 5 -2 17zM106 205q-2 2 -4 3t-9 2q-5 1 -15 1q-4 0 -8 -1q-1 -2 -1 -5q-1 -2 -1 -5.5v-5.5q0 -10 2 -13
q2 -8 4 -8q-2 -2 -2 -4h-6t-8 4q-5 8 -6 18.5t-1 18.5v15q3 0 10 0.5t15.5 0t16.5 -2t13 -5.5t5 -8v-2zM212 73q-10 -1 -17 1q4 4 8 7.5t7 8.5q4 -5 2 -17zM181 64q2 2 5 2l4 -2t8 -3q4 -1 8 -0.5t8 0.5t8 1q0 2 1 5q0 2 0.5 5t0.5 7v6.5t-2 5.5q-3 8 -4 9l1 2q2 1 7 1t7 -4
q5 -8 6.5 -18.5t1.5 -18.5q0 -5 -0.5 -9t-0.5 -6q-3 0 -10 -0.5t-15 0t-16.5 2t-13.5 5.5q-4 3 -4 7v3zM79 136q0 28 19.5 47.5t47.5 19.5t47.5 -19.5t19.5 -47.5t-19.5 -48t-47.5 -20t-47.5 20t-19.5 48zM146 187q-22 0 -37.5 -15t-15.5 -37q0 -21 15.5 -36.5t37.5 -15.5
t37 15.5t15 36.5q0 22 -15 37t-37 15zM168 214q-2 1 -5.5 1h-6.5q-1 5 -1.5 9.5t-0.5 8.5q0 17 9 24q10 13 35 13h38q15 0 28 0.5t18 0.5v-84q-2 -25 -13 -35q-12 -11 -25 -9.5t-18 3.5l-2 9q7 0 16 7q8 8 11 21.5t3 25.5q0 5 -0.5 10t-0.5 9q-1 4 -1 8q-17 3 -32 3
q-13 0 -26 -2.5t-21 -10.5l-2.5 -5t-2.5 -7zM146 96q-17 0 -28.5 11.5t-11.5 27.5q0 17 11.5 28t28.5 11q16 0 27.5 -11t11.5 -28q0 -16 -11.5 -27.5t-27.5 -11.5zM224 194q0 2 -0.5 5.5t-0.5 5.5q-1 3 -1 5q-4 1 -8 1h-8t-8 -1q-6 -1 -8 -2t-4 -3l-5 3v2q0 4 4 8
q5 4 13.5 5.5t16.5 2t15 0t10 -0.5q0 -2 0.5 -6t0.5 -9q0 -8 -1.5 -18.5t-6.5 -18.5q-2 -4 -7 -4h-7q0 1 -0.5 2t-0.5 2q1 0 4 8q2 3 2 13zM195 198q7 2 17 1q2 -12 -2 -17q-6 9 -15 16z" />
    <glyph glyph-name="cornerD" unicode="LOGO&#x2e;cornerD" horiz-adv-x="513" 
d="M483 470q1 -4 7 -20.5t9.5 -40t2 -51.5t-14.5 -55q-5 -10 -12.5 -17.5t-16.5 -14.5h44v-84q0 -25 -13 -35q-6 -5 -12 -7t-12 -2t-10.5 1t-7.5 2l-2 9q10 0 15 7q9 8 12 21.5t3 25.5q0 5 -0.5 10t-0.5 9q-1 4 -1 8q-17 3 -32 3q-13 0 -26 -2.5t-20 -10.5q-2 -2 -3.5 -5
t-2.5 -7q-4 1 -12 1q-2 5 -2 9.5v8.5q0 17 9 24q4 5 10 8q22 11 37 25q13 12 20 28t-3 36q-3 -8 -8.5 -11.5t-10.5 -4.5q-9 -2 -16.5 5t-3.5 24q3 15 13.5 28.5t23 26.5t23.5 24.5t14 23.5zM433 73q-10 -1 -17 1q5 4 8 7.5t7 8.5q4 -5 2 -17zM440 102q2 1 7 1t8 -4
q4 -8 5.5 -18.5t1.5 -18.5q0 -5 -0.5 -9t-0.5 -6q-2 0 -9 -0.5t-15.5 0t-17 2t-13.5 5.5q-4 3 -4 7v3q2 2 4 2q2 -1 4.5 -2t8.5 -3q3 -1 7 -0.5t8 0.5t9 1q0 2 1 5q0 2 0.5 5.5t0.5 6.5q0 9 -2 12q-1 4 -2.5 6t-2.5 3l1 1zM377 57q4 0 6.5 0.5t5.5 0.5q2 -9 6 -11
q7 -8 20 -10.5t26 -2.5q15 0 32 2q0 4 1 8q0 4 0.5 9t0.5 10q0 12 -3 25.5t-12 21.5q-5 6 -15 6l2 10q5 2 18 3t24 -9q13 -12 13 -35v-84h-46q-17 0 -37 1q-23 0 -35 12q-4 4 -6.5 9.5t-2.5 15.5v8t2 10zM237 110l2 4q1 2 5 6q11 10 24 9t19 -3l2 -10q-9 0 -16 -6
q-9 -8 -12 -21.5t-3 -25.5v-10t1 -9q0 -4 1 -8q16 -2 32 -2q13 0 26.5 2.5t21.5 10.5q2 2 4 11q3 0 6.5 -0.5t5.5 -0.5q3 -12 3 -18q0 -10 -3 -15.5t-6 -9.5q-12 -12 -36 -12q-22 -1 -40 -1h-43v45q-7 -9 -15 -16.5t-18 -12.5q-27 -14 -55 -15.5t-51.5 2t-40 9t-20.5 7.5
q12 3 23.5 14t24.5 23.5t26.5 23.5t28.5 14q17 3 24 -4.5t6 -16.5q-1 -5 -5 -10.5t-12 -8.5q17 -9 32 -3.5t26.5 16t20 23.5t11.5 19zM416 198q7 2 17 1q2 -12 -2 -17q-4 5 -7 9t-8 7zM402 208v2q0 4 4 8q5 4 13.5 5.5t17 2t15.5 0t9 -0.5q0 -2 0.5 -6t0.5 -9
q0 -8 -1.5 -18.5t-5.5 -18.5q-3 -4 -8 -4h-7q0 2 -2 4q3 0 5 8q2 3 2 13q0 2 -0.5 5.5t-0.5 5.5q-1 3 -1 5q-5 1 -9 1h-8t-7 -1q-6 -1 -8.5 -2t-4.5 -3zM318 74q-3 -1 -7.5 -1.5t-10.5 0.5v10t2 7q7 -9 16 -16zM327 66q3 0 5 -2v-3q0 -4 -4 -7q-6 -4 -14.5 -5.5t-16.5 -2
t-15 0t-10 0.5q0 2 -0.5 6t-0.5 9q0 8 1.5 18.5t6.5 18.5q3 4 7.5 4t6.5 -1l1 -1q0 -1 1 -1q-2 -2 -5 -9q-1 -2 -1 -5.5v-6.5v-12q0 -3 1 -5q5 -1 9 -1t8 -0.5t8 0.5l7.5 3t4.5 2zM367 203q28 0 47.5 -19.5t19.5 -47.5t-19.5 -48t-47.5 -20t-47.5 20t-19.5 48t19.5 47.5
t47.5 19.5zM419 135q0 22 -15.5 37t-36.5 15q-22 0 -37 -15t-15 -37q0 -21 15 -36.5t37 -15.5q21 0 36.5 15.5t15.5 36.5zM356 215h-5.5t-6.5 -1q-1 7 -4 12q-8 8 -21.5 10.5t-26.5 2.5q-16 0 -32 -3q-1 -4 -1 -8q-1 -4 -1 -9v-10q0 -12 3 -25.5t12 -21.5q9 -7 16 -7l-2 -9
q-3 -1 -8 -2t-11 -1t-12 2t-12 7q-11 10 -13 35v84q4 0 18 -0.5t28 -0.5h37q24 0 36 -13q3 -3 6 -8.5t3 -15.5q0 -8 -3 -18zM406 135q0 -16 -11 -27.5t-28 -11.5t-28 11.5t-11 27.5q0 17 11 28t28 11t28 -11t11 -28zM290 210q-1 -2 -1 -5v-11q0 -10 1 -13q3 -8 5 -8
q0 -2 -2 -4h-6.5t-7.5 4q-5 8 -6.5 18.5t-1.5 18.5q0 5 0.5 9t0.5 6q3 0 10 0.5t15 0t16.5 -2t14.5 -5.5q4 -4 4 -8v-2l-5 -3q-4 4 -12 5q-4 1 -8 1h-8t-9 -1zM300 199q6 1 10.5 0.5t7.5 -1.5q-5 -3 -8.5 -7t-7.5 -9q-2 2 -2 7v10z" />
    <glyph glyph-name=".notdef" horiz-adv-x="500" 
d="M352 43q21 154 41 304.5t42 305.5h-287q-21 -155 -42 -305t-43 -305h289zM389 0h-377l97 695h377z" />
    <glyph glyph-name=".null" 
 />
    <glyph glyph-name="nonmarkingreturn" horiz-adv-x="216" 
 />
    <glyph glyph-name="space" unicode=" " horiz-adv-x="243" 
 />
    <glyph glyph-name="exclam" unicode="!" horiz-adv-x="199" 
d="M101 99q17 -19 29 -51l1 -2l-49 -55l-2 6q-11 32 -28 48l-3 2l49 54zM168 485v-22t-1 -19q-2 -32 -6 -68t-11 -78l-7 -49l-10 -70l-44 -39l8 66q5 38 8.5 70.5t5.5 60.5q3 45 2.5 80.5t-3.5 63.5v2l58 28v-26z" />
    <glyph glyph-name="quotedbl" unicode="&#x22;" horiz-adv-x="257" 
d="M95 500q33 -33 30 -78q-5 -64 -86 -136l-3 -3l-10 16l2 2q44 38 47 82q3 36 -27 63l-3 2l47 54zM194 500q33 -33 30 -78q-5 -64 -86 -136l-3 -3l-10 16l2 2q44 38 47 82q3 36 -27 63l-3 2l47 54z" />
    <glyph glyph-name="numbersign" unicode="#" horiz-adv-x="360" 
d="M267 268q0 -2 -3 -11.5t-7 -20.5t-7 -21.5t-4 -13.5h87l-29 -33h-68q-2 -4 -7.5 -21.5t-11.5 -37t-11 -35t-5 -16.5l-39 -38l-6 3q12 38 22 69q8 26 15 49.5t8 26.5h-62q-1 -4 -6.5 -21.5t-11.5 -37t-11.5 -35l-5.5 -15.5l-39 -38l-6 3q12 38 22 69q8 26 15 49t9 26h-89
l29 33h70q0 1 3 11t7 21.5t7 21.5t4 13h-91l30 33h71q1 4 7 22.5t12.5 38.5t11.5 36l5 16l34 38l6 -3q-10 -39 -19 -71q-8 -27 -14.5 -50.5t-7.5 -26.5h62q1 2 6.5 19.5t12.5 38.5q8 25 17 55l33 38l12 -3q-12 -39 -22 -71q-8 -27 -16 -50.5t-9 -26.5h86l-28 -33h-68z
M212 201q0 1 3 11t7 21.5t7 21.5t4 13h-63q0 -2 -3 -11.5t-6.5 -21t-7 -21.5t-4.5 -13h63z" />
    <glyph glyph-name="dollar" unicode="$" horiz-adv-x="328" 
d="M292 414l-33 -39l-3 2q-17 15 -46 23q0 -3 -3 -20.5t-6 -37.5t-6 -37.5t-3 -18.5q1 -1 3.5 -3t4.5 -4l5 -5q46 -44 46 -83v-4q-3 -38 -31 -70q-26 -30 -61 -38q-1 -2 -3 -16t-5 -31q-4 -19 -7 -44l-30 -29q5 29 9 53q4 20 6.5 38.5t3.5 21.5q-2 -1 -5.5 -1h-6.5
q-4 0 -8 -1q-37 0 -70 24l-3 2l37 40l2 -3q11 -13 26 -20.5t33 -12.5q0 3 3.5 24.5t7.5 46.5t7.5 46t3.5 22q-2 1 -7 6l-4 4q-43 39 -43 78v5q5 74 83 94q0 1 2.5 14t4.5 28q3 18 7 40l29 28l-8 -52q-3 -20 -6 -37.5t-3 -19.5h9q37 0 64 -11zM162 100q44 10 49 60v3
q0 23 -26 52l-1 1q-2 2 -2 3q-1 -5 -4 -22.5t-6 -38t-6 -37.5t-4 -21zM146 356q0 -21 25 -46q1 4 3 17.5t4.5 29t4.5 28.5t3 16q-37 -3 -40 -42v-3z" />
    <glyph glyph-name="percent" unicode="%" horiz-adv-x="466" 
d="M180 237q-37 -46 -82 -49q-6 0 -15 3.5t-16.5 12t-12.5 22t-3 34.5q3 57 42 107q40 50 82 49q18 0 27.5 -8t14 -19t5.5 -24t0 -24q-3 -54 -42 -104zM95 322q-9 -43 -5.5 -65t11.5 -30q10 -10 25 -7q12 2 22.5 12t16.5 20q8 14 12.5 29t6.5 35q2 34 -7 52q-5 10 -11.5 12
t-14.5 2q-16 0 -32.5 -17t-23.5 -43zM393 455q-71 -120 -126 -215q-24 -41 -46.5 -80t-40.5 -69q-21 -36 -40 -67l-47 -28l-5 4l252 431h1l38 30zM384 90q-37 -46 -82 -49q-6 0 -15 3.5t-16.5 12t-12.5 22t-3 34.5q3 57 42 107q40 50 82 49q18 0 27.5 -8t14 -19t5.5 -24
t0 -24q-3 -54 -42 -104zM299 175q-9 -43 -5.5 -65t11.5 -30q10 -10 25 -7q12 2 22.5 12t16.5 20q8 14 12.5 29t6.5 35q2 34 -7 52q-5 10 -11.5 12t-14.5 2q-16 0 -32.5 -17t-23.5 -43z" />
    </font>
</defs>
</svg>
